<svg width="22" height="22" viewBox="0 0 22 22" fill="none" xmlns="http://www.w3.org/2000/svg">
<path fill-rule="evenodd" clip-rule="evenodd" d="M16.392 2.70184L13.84 5.25384C11.224 4.73484 0.748 2.23484 0.611 2.40584C0.458 2.59784 0.404 2.72984 0.097 3.11384C3.119 5.40284 6.198 7.59084 9.228 9.86584L5.373 13.7208L0 14.0558L4.723 16.7948L7.374 21.4298L7.707 16.0748C8.968 14.8248 10.238 13.5828 11.505 12.3388C13.805 15.3988 16.015 18.5098 18.327 21.5628C18.711 21.2548 18.843 21.2018 19.035 21.0478C19.208 20.9098 16.628 10.1108 16.165 7.70484C17.034 6.82184 17.895 5.93184 18.745 5.02984C23.273 0.230839 21.333 -2.24016 16.392 2.70184Z" fill="#D4483B"/>
</svg>
