<svg width="320" height="117" viewBox="0 0 320 117" fill="none" xmlns="http://www.w3.org/2000/svg">
<mask id="mask0_169_111" style="mask-type:luminance" maskUnits="userSpaceOnUse" x="249" y="0" width="71" height="66">
<path d="M249.341 0H319.4V65.7749H249.341V0Z" fill="white"/>
</mask>
<g mask="url(#mask0_169_111)">
<path d="M299.806 36.626L308.359 35.9319C312.211 35.6157 315.836 33.9653 318.601 31.2659C319.785 30.1091 319.627 28.1617 318.273 27.2169C315.104 24.9996 311.263 23.9585 307.407 24.2708L298.854 24.9649L276.561 0L269.273 0.589996L280.066 26.5228C275.08 27.0241 270.129 27.8301 265.243 28.9368L259.15 30.3135L252.884 20.6923C252.572 20.2103 252.02 19.9365 251.446 19.9866L250.47 20.0637C250.007 20.1023 249.695 20.5457 249.807 20.9892L252.606 31.7981L251.569 32.0333C250.27 32.3264 249.383 33.5334 249.491 34.8599C249.599 36.1864 250.671 37.2353 251.997 37.3124L253.061 37.378L252.051 48.4915C252.009 48.9504 252.394 49.336 252.853 49.3013L253.829 49.2203C254.4 49.174 254.901 48.8154 255.132 48.291L259.76 37.779L265.991 38.1531C270.997 38.4539 276.013 38.4461 281.011 38.1376L274.56 65.4703L281.844 64.8803L299.806 36.626Z" fill="#737373"/>
</g>
<mask id="mask1_169_111" style="mask-type:luminance" maskUnits="userSpaceOnUse" x="0" y="33" width="243" height="84">
<path d="M0 33.6475H242.457V116.235H0V33.6475Z" fill="white"/>
</mask>
<g mask="url(#mask1_169_111)">
<path d="M234.251 37.3392C233.542 37.3392 232.94 36.7955 232.879 36.0744C232.817 35.3147 233.376 34.6476 234.136 34.582C238.227 34.2388 240.575 34.1578 240.668 34.154C241.42 34.1308 242.072 34.7247 242.095 35.4844C242.122 36.2479 241.524 36.8842 240.764 36.9111C240.741 36.9111 238.381 36.996 234.367 37.3315C234.328 37.3353 234.29 37.3392 234.251 37.3392ZM215.958 39.5835C215.291 39.5835 214.708 39.0976 214.6 38.4189C214.481 37.667 214.994 36.9613 215.742 36.8417C217.878 36.5024 220.037 36.1862 222.158 35.9008C222.914 35.8044 223.608 36.3327 223.709 37.0847C223.809 37.8405 223.281 38.5346 222.525 38.6349C220.427 38.9202 218.291 39.2287 216.177 39.5681C216.104 39.5758 216.031 39.5835 215.958 39.5835ZM197.888 43.1158C197.263 43.1158 196.692 42.6877 196.546 42.0514C196.372 41.3111 196.835 40.5668 197.575 40.3933C199.658 39.9074 201.786 39.437 203.907 39.0012C204.651 38.8431 205.384 39.329 205.534 40.0732C205.689 40.8175 205.21 41.5463 204.462 41.7044C202.368 42.1363 200.263 42.599 198.204 43.081C198.1 43.1042 197.992 43.1158 197.888 43.1158ZM180.153 48.0324C179.567 48.0324 179.027 47.6622 178.838 47.0799C178.603 46.355 179 45.5799 179.725 45.3408C181.753 44.6852 183.84 44.0451 185.926 43.4397C186.658 43.2276 187.422 43.6479 187.634 44.3806C187.846 45.1133 187.426 45.8768 186.697 46.0889C184.634 46.6866 182.575 47.3151 180.577 47.9668C180.435 48.0131 180.292 48.0324 180.153 48.0324ZM162.954 54.5725C162.426 54.5725 161.921 54.2678 161.694 53.7511C161.385 53.057 161.697 52.2395 162.395 51.9349C164.335 51.0711 166.348 50.2266 168.384 49.4168C169.094 49.1353 169.896 49.4823 170.177 50.1919C170.455 50.8975 170.108 51.6996 169.406 51.9811C167.401 52.7794 165.419 53.6084 163.514 54.4529C163.332 54.5339 163.143 54.5725 162.954 54.5725ZM146.654 63.0869C146.192 63.0869 145.741 62.8517 145.478 62.4275C145.077 61.7797 145.282 60.9313 145.929 60.5303C147.738 59.4197 149.635 58.3207 151.563 57.268C152.23 56.9016 153.071 57.1484 153.434 57.8117C153.804 58.4827 153.553 59.3195 152.89 59.6858C150.996 60.7192 149.142 61.7913 147.376 62.8787C147.152 63.0214 146.901 63.0869 146.654 63.0869ZM131.87 73.9961C131.492 73.9961 131.114 73.8419 130.844 73.5372C130.335 72.9665 130.385 72.095 130.952 71.5898C132.549 70.1669 134.238 68.7594 135.973 67.4097C136.574 66.9431 137.442 67.0511 137.909 67.6527C138.379 68.2504 138.267 69.1219 137.666 69.5885C135.977 70.8996 134.338 72.2647 132.788 73.649C132.529 73.8804 132.198 73.9961 131.87 73.9961ZM119.472 87.5275C119.156 87.5275 118.84 87.4195 118.581 87.1997C117.999 86.7061 117.926 85.8385 118.42 85.2562C119.191 84.35 119.962 83.4052 120.71 82.4489C121.281 81.7162 121.875 80.9835 122.48 80.2701C122.97 79.684 123.841 79.6146 124.424 80.1043C125.006 80.5979 125.079 81.4655 124.589 82.0478C124.007 82.7381 123.433 83.4476 122.881 84.1494C122.11 85.1328 121.319 86.1045 120.521 87.0416C120.251 87.3616 119.862 87.5275 119.472 87.5275ZM106.211 100.207C105.798 100.207 105.386 100.022 105.116 99.6629C104.653 99.0575 104.769 98.1937 105.374 97.7309C107.028 96.47 108.663 95.1126 110.241 93.6974C110.811 93.1883 111.679 93.2346 112.192 93.8015C112.697 94.3683 112.651 95.2398 112.088 95.7489C110.453 97.2103 108.76 98.6179 107.048 99.9251C106.797 100.114 106.504 100.207 106.211 100.207ZM7.2344 105.906C7.05702 105.906 6.87578 105.871 6.69839 105.794C3.40136 104.398 1.31132 103.342 0.748315 103.052C0.0734844 102.702 -0.192591 101.872 0.150608 101.198C0.50152 100.519 1.33445 100.249 2.00928 100.604C2.55301 100.881 4.56979 101.896 7.77427 103.257C8.47609 103.55 8.80387 104.36 8.50694 105.062C8.28328 105.59 7.77427 105.906 7.2344 105.906ZM90.4198 109.531C89.8877 109.531 89.3825 109.222 89.155 108.706C88.8465 108.008 89.1666 107.194 89.8645 106.889C91.7888 106.045 93.6937 105.112 95.537 104.109C96.208 103.75 97.0447 103.997 97.4072 104.664C97.7736 105.335 97.5229 106.172 96.8558 106.535C94.9431 107.572 92.9649 108.54 90.9713 109.411C90.79 109.492 90.6049 109.531 90.4198 109.531ZM24.6219 111.91C24.5024 111.91 24.379 111.895 24.2556 111.86C22.1848 111.297 20.0909 110.672 18.024 110.001C17.299 109.77 16.9018 108.991 17.1371 108.266C17.3684 107.541 18.1474 107.144 18.8723 107.379C20.8968 108.035 22.9522 108.644 24.9844 109.199C25.7171 109.4 26.1528 110.159 25.9523 110.896C25.7826 111.509 25.2273 111.91 24.6219 111.91ZM72.8665 114.876C72.2148 114.876 71.6364 114.409 71.5091 113.746C71.3742 112.994 71.8678 112.276 72.6197 112.138C74.7021 111.756 76.7767 111.289 78.7896 110.753C79.5261 110.557 80.2819 110.992 80.4786 111.733C80.6714 112.465 80.2357 113.221 79.4991 113.418C77.4168 113.973 75.2689 114.455 73.1172 114.852C73.0323 114.864 72.9514 114.876 72.8665 114.876ZM42.6495 115.508C42.5917 115.508 42.5338 115.504 42.476 115.5C40.359 115.238 38.1918 114.906 36.04 114.521C35.2919 114.386 34.7868 113.672 34.9217 112.924C35.0567 112.172 35.7701 111.671 36.5259 111.806C38.6275 112.184 40.7446 112.504 42.8153 112.758C43.5711 112.855 44.111 113.541 44.0146 114.297C43.9259 114.999 43.3321 115.508 42.6495 115.508ZM56.1037 116.364C55.587 116.364 55.0664 116.36 54.5458 116.352C53.7823 116.337 53.1769 115.712 53.1885 114.953C53.2 114.197 53.8132 113.591 54.5651 113.591C54.5728 113.591 54.5805 113.591 54.5882 113.591C56.7014 113.622 58.8532 113.591 60.9355 113.487C61.699 113.437 62.3392 114.031 62.3816 114.795C62.4201 115.554 61.834 116.202 61.0705 116.241C59.4432 116.322 57.7734 116.364 56.1037 116.364Z" fill="#737373"/>
</g>
</svg>
