<svg xmlns="http://www.w3.org/2000/svg" xmlns:xlink="http://www.w3.org/1999/xlink" version="1.1" width="256" height="256" viewBox="0 0 256 256" xml:space="preserve">

<defs>
</defs>
<g style="stroke: none; stroke-width: 0; stroke-dasharray: none; stroke-linecap: butt; stroke-linejoin: miter; stroke-miterlimit: 10; fill: none; fill-rule: nonzero; opacity: 1;" transform="translate(1.4065934065934016 1.4065934065934016) scale(2.81 2.81)" >
	<path d="M 15.524 90 c -0.765 0 -1.54 -0.22 -2.245 -0.668 c -1.68 -1.067 -2.353 -3.043 -1.676 -4.914 l 14.965 -41.346 L 7.076 23.58 C 1.418 17.904 -0.776 11.286 0.895 4.944 c 0.58 -2.199 2.281 -3.928 4.439 -4.511 c 3.9 -1.052 10.169 -0.694 17.888 7 l 19.493 19.493 l 41.36 -14.97 c 1.87 -0.677 3.843 -0.004 4.91 1.674 c 1.067 1.678 0.839 3.751 -0.567 5.156 L 61.495 45.707 l 8.241 8.241 c 0.187 0.187 0.369 0.384 0.544 0.592 l 11.683 -3.41 c 1.525 -0.441 3.1 0.176 3.912 1.545 c 0.811 1.371 0.6 3.047 -0.526 4.174 L 71.432 70.766 c -0.17 0.171 -0.354 0.329 -0.546 0.473 c -0.144 0.192 -0.302 0.376 -0.473 0.546 L 56.516 85.682 c -1.13 1.129 -2.809 1.34 -4.182 0.527 c -1.373 -0.813 -1.995 -2.388 -1.548 -3.92 l 3.399 -11.65 c -0.208 -0.176 -0.407 -0.358 -0.595 -0.547 l -8.24 -8.241 L 18.438 88.764 C 17.622 89.58 16.581 90 15.524 90 z M 8.629 2.965 c -0.861 0 -1.703 0.11 -2.522 0.332 C 4.972 3.604 4.074 4.524 3.764 5.7 c -1.391 5.281 0.531 10.887 5.412 15.784 l 20.823 20.824 l -15.606 43.12 c -0.299 0.827 0.29 1.281 0.478 1.401 c 0.187 0.119 0.847 0.459 1.47 -0.162 l 29.008 -29.008 l 10.338 10.339 c 0.306 0.306 0.655 0.592 1.037 0.85 l 0.898 0.606 l -3.988 13.669 c -0.069 0.232 0.003 0.412 0.212 0.536 c 0.208 0.123 0.401 0.099 0.572 -0.072 l 13.897 -13.897 c 0.1 -0.1 0.19 -0.212 0.268 -0.328 l 0.168 -0.255 l 0.255 -0.168 c 0.117 -0.077 0.228 -0.167 0.328 -0.268 l 13.916 -13.916 c 0.169 -0.169 0.192 -0.358 0.071 -0.564 c -0.121 -0.204 -0.297 -0.274 -0.528 -0.208 l -13.701 3.997 l -0.606 -0.896 c -0.258 -0.381 -0.544 -0.729 -0.849 -1.034 L 57.299 45.707 l 29.019 -29.019 c 0.62 -0.621 0.28 -1.279 0.161 -1.467 c -0.12 -0.187 -0.574 -0.775 -1.396 -0.476 L 41.95 30.357 L 21.125 9.532 C 16.776 5.198 12.508 2.965 8.629 2.965 z" style="stroke: none; stroke-width: 1; stroke-dasharray: none; stroke-linecap: butt; stroke-linejoin: miter; stroke-miterlimit: 10; fill: rgb(0,0,0); fill-rule: nonzero; opacity: 1;" transform=" matrix(1 0 0 1 0 0) " stroke-linecap="round" />
</g>
</svg>