<svg width="425" height="412" viewBox="0 0 425 412" fill="none" xmlns="http://www.w3.org/2000/svg">
<path d="M410.719 29.2761C407.411 32.4845 403.802 35.3907 400.068 38.2605C398.042 39.8282 396.984 42.3595 397.313 44.9011L398.318 52.7084L398.417 52.7397C400.938 50.573 404.922 55.2397 404.031 57.7605C403.417 59.5105 400.891 60.9532 399.552 62.1199C399.536 62.1355 399.526 62.1563 399.526 62.1772L400.531 69.9636C400.531 69.9636 400.583 70.0157 400.62 70.0053C402.964 68.6303 405.573 72.6043 405.422 74.6199C405.255 76.7657 403.24 78.0105 401.75 79.297C401.74 79.3074 401.729 79.3334 401.729 79.3543L403.042 89.5939C403.161 90.5053 402.719 91.8074 402.073 92.4584L399.651 94.9116C399 95.573 398.083 95.4636 397.609 94.6564L376.115 58.422C375.75 57.8074 374.927 57.6511 374.354 58.0938C367.104 63.6876 360.313 68.9168 355.688 72.4949C355.453 72.672 355.333 72.948 355.344 73.2345C355.474 75.8647 355.609 78.4949 355.74 81.1355C355.839 83.1095 356.016 85.0782 356.047 87.0522C356.073 88.8439 356.234 90.8699 354.849 92.2345C353.661 93.3907 352.292 94.4168 351.036 95.4949C350.047 96.3439 348.958 97.1147 347.625 96.4532C346.323 95.8126 345.938 93.8959 345.443 92.6199C344.76 90.8699 344.089 89.1199 343.406 87.3803C342.469 84.9793 341.547 82.5782 340.609 80.1772C340.474 79.8386 340.057 79.6928 339.74 79.8907C338.615 80.6095 337.526 81.3699 336.411 82.1043C335.443 82.7449 334.375 83.6147 333.219 83.8699C331.807 84.1668 330.047 82.9428 330.51 81.3699C330.818 80.3022 331.818 79.6303 332.526 78.8386C333.188 78.0886 333.849 77.3282 334.495 76.5678C334.76 76.2605 335.026 75.9636 335.292 75.6563C335.531 75.3699 335.453 74.9376 335.135 74.7605C333.547 73.8699 331.964 72.9793 330.375 72.0886C329.109 71.3699 327.854 70.6355 326.578 69.9532C325.193 69.2032 323.693 68.4741 322.417 67.5626C321.115 66.6355 321.036 64.7657 322.193 63.7293C323.276 62.7501 324.396 61.8126 325.479 60.8334C326.151 60.2188 326.875 59.6355 327.714 59.2605C328.693 58.8282 329.505 58.9428 330.542 59.0522C332.792 59.3126 334.927 59.8647 337.13 60.3178C339.266 60.7553 341.422 61.1668 343.573 61.5834C343.859 61.6355 344.146 61.5626 344.354 61.3543C348.448 57.3647 354.849 51.1563 361.745 44.4532C362.25 43.9532 362.214 43.1199 361.667 42.6668L331.964 18.2345C331.25 17.6511 331.281 16.7241 332.031 16.1772L335.677 13.547C336.432 12.9949 337.802 12.7397 338.714 12.9949L346.104 15.0209C346.104 15.0209 346.146 15.0209 346.161 15.0105C346.766 14.4793 347.37 13.9636 347.974 13.4324C348.87 12.6511 349.901 11.672 351.161 11.6303C353.427 11.5418 356.776 15.2605 355.188 17.4428C355.167 17.4741 355.188 17.5209 355.224 17.5313L362.823 19.6199C362.823 19.6199 362.865 19.6199 362.875 19.6095C364.344 18.3438 365.859 16.5261 367.974 16.6616C369.969 16.7814 373.536 19.9064 371.917 22.047C371.896 22.0782 371.906 22.1199 371.943 22.1303L377.922 23.7709C380.385 24.4584 383.031 23.7709 384.87 21.9897C390.057 16.948 395.297 11.8907 401.313 7.82822C406.115 4.58343 415.531 -1.53115 421.573 1.42197C431.75 6.40114 415.12 25.0626 410.729 29.3126L410.719 29.2761Z" fill="#2F3030" fill-opacity="0.31"/>
<mask id="mask0_177_292" style="mask-type:luminance" maskUnits="userSpaceOnUse" x="0" y="85" width="329" height="327">
<path d="M0.171875 85.6667H329V411.516H0.171875V85.6667Z" fill="white"/>
</mask>
<g mask="url(#mask0_177_292)">
<path d="M30.651 411.495C29.9583 411.495 29.2864 411.099 28.9792 410.427C26.75 405.604 24.7708 401.188 22.9323 396.927C22.5208 395.99 22.9531 394.912 23.8906 394.505C24.8229 394.099 25.9062 394.526 26.3125 395.464C28.1406 399.703 30.1094 404.084 32.3229 408.886C32.7552 409.807 32.3489 410.901 31.4219 411.328C31.1667 411.438 30.9062 411.495 30.651 411.495ZM18.9896 384.396C18.25 384.396 17.5573 383.959 17.2708 383.229C15.4062 378.474 13.6927 373.781 12.1719 369.302C11.8385 368.334 12.3594 367.287 13.3281 366.969C14.2969 366.636 15.3437 367.156 15.6614 368.125C17.1719 372.563 18.8646 377.198 20.7083 381.896C21.0781 382.844 20.6094 383.912 19.6614 384.287C19.4375 384.375 19.2083 384.417 18.9896 384.417V384.396ZM144.49 360.406H144.193C143.182 360.406 142.354 359.568 142.354 358.542C142.354 357.531 143.182 356.719 144.193 356.719H144.469C149.026 356.719 153.63 355.99 158.146 354.547C159.115 354.24 160.151 354.776 160.458 355.75C160.766 356.719 160.229 357.75 159.26 358.057C154.38 359.615 149.401 360.396 144.469 360.396L144.49 360.406ZM129.724 357.974C129.536 357.974 129.339 357.938 129.141 357.875C124.417 356.297 119.844 354.021 115.526 351.078C114.687 350.505 114.469 349.36 115.042 348.516C115.615 347.677 116.76 347.459 117.609 348.031C121.641 350.771 125.911 352.906 130.307 354.37C131.276 354.693 131.792 355.735 131.474 356.703C131.219 357.474 130.495 357.974 129.724 357.974ZM9.55207 356.464C8.74478 356.464 7.99478 355.922 7.77603 355.11C6.41145 350.209 5.23436 345.354 4.26561 340.651C4.05207 339.651 4.70311 338.682 5.6979 338.474C6.6979 338.261 7.66665 338.912 7.87499 339.901C8.82291 344.516 9.98957 349.297 11.3229 354.12C11.5989 355.099 11.026 356.11 10.0364 356.386C9.86978 356.432 9.70311 356.453 9.53645 356.453L9.55207 356.464ZM171.969 351.771C171.375 351.771 170.781 351.485 170.427 350.948C169.865 350.099 170.094 348.953 170.943 348.391C174.875 345.807 178.521 342.677 181.781 339.12C182.464 338.375 183.641 338.318 184.391 339.011C185.141 339.693 185.193 340.86 184.5 341.62C181.031 345.406 177.156 348.724 172.969 351.474C172.661 351.682 172.307 351.781 171.958 351.781L171.969 351.771ZM105.526 341.688C105.021 341.688 104.516 341.479 104.151 341.073C100.771 337.281 97.849 333.11 95.4635 328.662C94.9792 327.771 95.3177 326.646 96.2083 326.162C97.1146 325.677 98.224 326.021 98.7083 326.912C100.969 331.104 103.719 335.037 106.906 338.615C107.589 339.375 107.51 340.542 106.75 341.214C106.396 341.521 105.958 341.677 105.526 341.677V341.688ZM191.745 330.261C191.448 330.261 191.141 330.182 190.854 330.026C189.964 329.531 189.63 328.422 190.13 327.526C191.802 324.49 193.187 321.328 194.26 318.125C194.677 316.86 195.062 315.573 195.401 314.281C195.667 313.302 196.672 312.709 197.661 312.974C198.641 313.235 199.234 314.24 198.974 315.229C198.609 316.594 198.203 317.959 197.76 319.292C196.625 322.703 195.141 326.084 193.365 329.313C193.036 329.917 192.396 330.271 191.745 330.271V330.261ZM3.66665 327.594C2.7552 327.594 1.96353 326.912 1.83853 325.974C1.39061 322.344 1.04686 318.709 0.838529 315.151C0.760404 313.807 0.697905 312.464 0.651029 311.11C0.61978 310.099 1.42186 309.24 2.43749 309.209C3.46874 309.182 4.30728 309.979 4.33853 310.99C4.3854 312.302 4.43749 313.62 4.51561 314.932C4.72395 318.412 5.05728 321.969 5.49478 325.526C5.61978 326.537 4.90103 327.453 3.89061 327.584C3.81249 327.584 3.73436 327.594 3.65624 327.594H3.66665ZM91.7187 315.932C90.901 315.932 90.151 315.396 89.9323 314.568C88.6667 309.802 87.8646 304.792 87.5417 299.672C87.4792 298.656 88.2604 297.776 89.2708 297.724C90.276 297.667 91.1667 298.438 91.224 299.453C91.5208 304.328 92.2812 309.11 93.4896 313.63C93.7552 314.615 93.1719 315.625 92.1771 315.891C92.026 315.932 91.8594 315.959 91.7083 315.959L91.7187 315.932ZM199.411 302.037C199.411 302.037 199.359 302.037 199.323 302.037C198.312 301.995 197.516 301.125 197.573 300.11C197.63 298.969 197.661 297.787 197.661 296.62C197.661 293.052 197.406 289.401 196.891 285.745C196.745 284.729 197.453 283.807 198.464 283.662C199.469 283.521 200.401 284.224 200.547 285.235C201.089 289.057 201.349 292.891 201.349 296.63C201.349 297.854 201.318 299.089 201.26 300.297C201.219 301.292 200.401 302.052 199.422 302.052L199.411 302.037ZM2.79686 298.151C2.79686 298.151 2.70832 298.151 2.66665 298.151C1.65624 298.073 0.880196 297.193 0.958321 296.182C1.32291 291.182 1.96353 286.193 2.85415 281.349C3.04165 280.349 3.99999 279.688 4.99999 279.875C6.0052 280.063 6.66665 281.021 6.47915 282.021C5.60936 286.724 4.98957 291.578 4.64061 296.448C4.57291 297.417 3.7552 298.151 2.79686 298.151ZM89.7917 286.656C89.724 286.656 89.6562 286.656 89.5781 286.646C88.5677 286.537 87.8385 285.62 87.9531 284.61C88.5 279.745 89.4479 274.776 90.7708 269.865C91.0365 268.886 92.0365 268.302 93.026 268.568C94.0052 268.834 94.5937 269.844 94.3281 270.823C93.0521 275.557 92.1354 280.339 91.6198 285.026C91.5104 285.974 90.7135 286.667 89.7917 286.667V286.656ZM195.448 272.948C194.667 272.948 193.937 272.443 193.687 271.662C192.266 267.115 190.458 262.599 188.323 258.24C187.87 257.328 188.255 256.224 189.172 255.771C190.083 255.323 191.187 255.709 191.635 256.62C193.849 261.146 195.734 265.839 197.208 270.563C197.516 271.531 196.979 272.563 196 272.87C195.812 272.927 195.625 272.959 195.448 272.959V272.948ZM8.17186 269.193C7.99478 269.193 7.80728 269.172 7.62499 269.104C6.65103 268.807 6.10415 267.776 6.41145 266.807C7.91145 261.964 9.70311 257.25 11.7396 252.813C12.1719 251.886 13.2604 251.479 14.1875 251.906C15.1094 252.339 15.5208 253.427 15.0885 254.354C13.1198 258.656 11.3802 263.214 9.92186 267.906C9.68228 268.698 8.95311 269.209 8.16145 269.209L8.17186 269.193ZM97.3646 258.25C97.125 258.25 96.8802 258.209 96.651 258.11C95.7135 257.709 95.276 256.63 95.6719 255.688C95.8802 255.198 96.0885 254.703 96.2969 254.219C98.0833 250.167 100.161 246.162 102.464 242.318C102.984 241.448 104.12 241.162 105 241.693C105.87 242.219 106.156 243.344 105.625 244.224C103.401 247.932 101.396 251.797 99.6667 255.719C99.4583 256.193 99.2604 256.667 99.0625 257.141C98.7656 257.844 98.0833 258.261 97.3646 258.261V258.25ZM182.552 246.537C181.958 246.537 181.385 246.261 181.031 245.729C178.323 241.766 175.292 237.948 172.047 234.37C171.365 233.62 171.417 232.453 172.167 231.761C172.927 231.078 174.094 231.13 174.776 231.88C178.146 235.578 181.276 239.542 184.083 243.641C184.656 244.474 184.448 245.63 183.599 246.203C183.276 246.427 182.917 246.526 182.562 246.526L182.552 246.537ZM20.4948 242.495C20.1562 242.495 19.8021 242.396 19.4948 242.198C18.6354 241.646 18.3958 240.5 18.9427 239.641C21.6979 235.38 24.7708 231.375 28.0729 227.709C28.7552 226.948 29.9219 226.891 30.6823 227.573C31.4427 228.261 31.5 229.427 30.8177 230.172C27.6458 233.688 24.6927 237.552 22.0521 241.646C21.6979 242.198 21.1042 242.495 20.4948 242.495ZM112.49 233.026C112.078 233.026 111.672 232.896 111.333 232.62C110.536 231.979 110.417 230.813 111.057 230.031C114.229 226.11 117.661 222.412 121.286 219.052C122.036 218.36 123.203 218.406 123.896 219.151C124.589 219.901 124.547 221.068 123.797 221.761C120.307 225.011 116.979 228.568 113.932 232.354C113.568 232.807 113.026 233.037 112.5 233.037L112.49 233.026ZM162.771 224.766C162.354 224.766 161.937 224.625 161.594 224.339C157.88 221.235 153.937 218.37 149.875 215.818C149.016 215.276 148.755 214.141 149.292 213.271C149.833 212.417 150.969 212.151 151.839 212.688C156.052 215.333 160.13 218.292 163.964 221.511C164.745 222.156 164.844 223.323 164.193 224.11C163.828 224.547 163.302 224.766 162.771 224.766ZM40.1979 220.714C39.6458 220.714 39.1094 220.474 38.7448 220.011C38.1198 219.209 38.25 218.052 39.0521 217.422C42.9531 214.354 47.1719 211.568 51.5989 209.136C52.4896 208.636 53.6146 208.969 54.0989 209.86C54.5833 210.75 54.2604 211.875 53.3698 212.36C49.1198 214.693 45.0677 217.37 41.3333 220.318C40.9896 220.584 40.5937 220.714 40.1875 220.714H40.1979ZM134.083 213.063C133.49 213.063 132.906 212.776 132.552 212.25C131.979 211.401 132.203 210.255 133.047 209.693C133.786 209.198 134.526 208.714 135.271 208.24C131.406 206.61 127.443 205.235 123.469 204.146C122.49 203.87 121.901 202.86 122.177 201.875C122.453 200.896 123.469 200.323 124.448 200.589C129.214 201.912 133.974 203.604 138.578 205.656C138.766 205.729 138.917 205.839 139.062 205.974C141.396 204.651 143.786 203.443 146.177 202.36C147.099 201.943 148.193 202.36 148.609 203.287C149.026 204.214 148.609 205.302 147.682 205.719C143.391 207.646 139.151 210.016 135.099 212.755C134.776 212.964 134.427 213.073 134.073 213.073L134.083 213.063ZM65.9271 206.537C65.1667 206.537 64.4583 206.073 64.1823 205.313C63.8437 204.354 64.3385 203.297 65.2969 202.958C69.9896 201.271 74.8542 199.927 79.7812 198.958C80.7917 198.771 81.75 199.412 81.9479 200.412C82.1458 201.417 81.4948 202.386 80.4948 202.583C75.7604 203.505 71.0677 204.807 66.5521 206.422C66.3437 206.5 66.1354 206.537 65.9271 206.537ZM109.505 201.391C109.437 201.391 109.359 201.391 109.292 201.38C105.859 200.995 102.333 200.797 98.8437 200.797C97.5312 200.797 96.1771 200.834 94.8437 200.886C93.8229 200.917 92.9635 200.136 92.9271 199.125C92.8958 198.11 93.6771 197.255 94.6927 197.208C96.0677 197.156 97.4427 197.12 98.8073 197.12H98.8437C102.479 197.12 106.135 197.328 109.703 197.724C110.714 197.839 111.443 198.75 111.333 199.766C111.219 200.698 110.427 201.406 109.505 201.406V201.391ZM160.891 201.151C160.052 201.151 159.292 200.578 159.094 199.729C158.865 198.74 159.479 197.75 160.469 197.516C165.219 196.406 170.062 195.776 174.854 195.636H175.448C176.505 195.615 177.307 196.406 177.333 197.417C177.354 198.432 176.547 199.281 175.526 199.302H174.953C170.406 199.443 165.812 200.047 161.297 201.104C161.151 201.141 161.01 201.151 160.88 201.151H160.891ZM204.943 200.943H204.917C200.38 200.896 195.786 200.49 191.339 200.104L190.052 199.995C189.036 199.906 188.292 199.016 188.375 198C188.464 196.99 189.349 196.229 190.37 196.328L191.661 196.438C196.031 196.813 200.557 197.208 204.953 197.255C205.964 197.255 206.792 198.099 206.781 199.115C206.781 200.125 205.943 200.943 204.943 200.943ZM219.578 199.443C218.74 199.443 217.99 198.87 217.781 198.026C217.552 197.031 218.156 196.042 219.146 195.797C223.641 194.729 228.109 193.016 232.453 190.724C233.354 190.25 234.469 190.594 234.937 191.485C235.411 192.386 235.073 193.5 234.182 193.974C229.578 196.417 224.807 198.245 220.005 199.38C219.865 199.412 219.719 199.432 219.578 199.432V199.443ZM245.536 185.979C245.005 185.979 244.479 185.745 244.104 185.307C243.453 184.526 243.573 183.36 244.354 182.708C247.859 179.833 251.38 176.464 254.818 172.708C255.51 171.964 256.667 171.906 257.427 172.589C258.177 173.271 258.234 174.438 257.547 175.198C253.99 179.083 250.349 182.578 246.703 185.557C246.359 185.844 245.943 185.979 245.536 185.979ZM265.547 164.396C265.161 164.396 264.776 164.276 264.443 164.037C263.63 163.427 263.453 162.271 264.068 161.458C266.812 157.771 269.531 153.828 272.359 149.412C272.911 148.552 274.047 148.313 274.906 148.865C275.766 149.412 276.005 150.557 275.458 151.406C272.573 155.896 269.818 159.906 267.021 163.662C266.656 164.146 266.104 164.396 265.547 164.396ZM282.073 139.964C281.714 139.964 281.339 139.854 281.005 139.625C280.182 139.042 279.984 137.886 280.568 137.057C283.417 133.031 286.339 129.151 289.51 125.203C290.146 124.406 291.302 124.276 292.099 124.917C292.891 125.552 293.021 126.708 292.385 127.5C289.266 131.401 286.38 135.219 283.573 139.182C283.208 139.693 282.646 139.964 282.062 139.964H282.073ZM300.469 116.932C300.036 116.932 299.599 116.776 299.245 116.469C298.484 115.797 298.417 114.63 299.089 113.87C302.141 110.427 305.432 106.87 309.135 102.979C309.839 102.245 311.005 102.214 311.745 102.917C312.479 103.62 312.516 104.787 311.807 105.526C308.141 109.38 304.88 112.912 301.854 116.318C301.49 116.724 300.984 116.932 300.479 116.932H300.469ZM320.75 95.5262C320.281 95.5262 319.818 95.3491 319.453 94.9897C318.724 94.271 318.724 93.1043 319.453 92.3804C321.38 90.4429 323.349 88.4689 325.38 86.4429C326.094 85.7293 327.26 85.7293 327.99 86.4429C328.703 87.172 328.703 88.3387 327.99 89.0522C325.964 91.0679 323.99 93.0418 322.073 94.9793C321.708 95.3387 321.234 95.5262 320.766 95.5262H320.75Z" fill="#2F3030" fill-opacity="0.31"/>
</g>
</svg>
