<svg width="25" height="33" viewBox="0 0 25 33" fill="none" xmlns="http://www.w3.org/2000/svg">
<g clip-path="url(#clip0_220_40)">
<path fill-rule="evenodd" clip-rule="evenodd" d="M12.1745 -0.001021C12.7049 -0.0111327 13.2242 0.151769 13.6537 0.46304C14.2364 0.83218 14.8824 1.55728 15.6866 2.01606C16.8151 2.66206 18.9087 1.77085 19.9818 3.36342C20.6067 4.29155 20.6357 5.01928 20.6832 5.73646C20.7166 6.6688 21.062 7.56294 21.664 8.27562C22.9824 10.0158 23.2461 11.176 22.5737 12.381C22.1123 13.201 21.1393 13.6598 20.9152 14.1792C20.4353 15.2866 20.9653 16.1225 20.3088 17.4145C20.1019 17.8402 19.8095 18.2188 19.4497 18.5264C19.09 18.834 18.6706 19.064 18.2179 19.2022C17.4268 19.4658 16.6358 19.0888 16.0057 19.3551C14.8956 19.8244 14.0756 20.9081 13.1817 21.1823C12.5181 21.389 11.8072 21.389 11.1436 21.1823C10.2603 20.9187 9.44289 19.8244 8.33283 19.3577C7.70002 19.094 6.90901 19.4605 6.12063 19.2048C5.66706 19.0677 5.24684 18.8381 4.8865 18.5304C4.52617 18.2227 4.23353 17.8436 4.02709 17.4171C3.37055 16.1251 3.90053 15.2893 3.42065 14.1819C3.19652 13.6545 2.22358 13.2036 1.76216 12.3836C1.09507 11.176 1.36929 10.0185 2.685 8.27825C3.28492 7.56432 3.63003 6.67094 3.66586 5.7391C3.71068 5.01928 3.73969 4.29155 4.36722 3.36606C5.43773 1.78403 7.53127 2.66469 8.66242 2.0187C9.45343 1.55991 10.1152 0.834817 10.6927 0.468314C11.1226 0.155141 11.6427 -0.00960215 12.1745 -0.001021ZM23.4649 29.8123L20.409 29.2665L18.8981 31.9691C17.8013 33.327 17.1052 31.0964 16.7888 30.3185L13.8594 24.7841C14.537 24.5494 15.3544 23.8691 16.1929 23.1098C17.8672 23.144 19.4281 22.8461 20.5751 21.3933L23.9553 27.9191L24.2559 28.5335C24.4853 29.3482 24.364 29.8861 23.4649 29.8123ZM0.902589 29.8123L3.95326 29.2665L5.46409 31.9691C6.55833 33.327 7.25442 31.0964 7.57346 30.3185L10.487 24.7841C9.80939 24.5494 8.99465 23.8691 8.15354 23.1098C6.47923 23.144 4.9183 22.8461 3.77133 21.3933L0.393704 27.9086L0.0983924 28.5335C-0.131001 29.3482 -0.00971264 29.8861 0.889405 29.8123H0.902589ZM10.429 9.56233L11.6735 10.7357L14.1758 8.19388C14.421 7.94339 14.5766 7.743 14.8824 8.05677L15.8738 9.06927C16.1981 9.39095 16.1823 9.58079 15.8738 9.88137L12.2273 13.4462C11.5813 14.0817 11.6999 14.1212 11.0381 13.4699L8.74943 11.1918C8.71787 11.163 8.69314 11.1274 8.67706 11.0878C8.66098 11.0482 8.65394 11.0054 8.65647 10.9627C8.65899 10.92 8.67102 10.8784 8.69166 10.841C8.71231 10.8035 8.74105 10.7712 8.7758 10.7462L9.92541 9.55442C10.0994 9.37513 10.2392 9.38567 10.4185 9.55442L10.429 9.56233ZM12.1534 4.46293C13.413 4.4645 14.6439 4.83944 15.6904 5.54036C16.737 6.24129 17.5522 7.23674 18.0332 8.4009C18.5141 9.56505 18.6391 10.8457 18.3924 12.0809C18.1457 13.316 17.5384 14.4504 16.6472 15.3405C15.756 16.2306 14.6209 16.8365 13.3854 17.0817C12.1499 17.3269 10.8694 17.2002 9.70589 16.7179C8.54233 16.2355 7.54789 15.419 6.84827 14.3716C6.14864 13.3241 5.77523 12.0928 5.77523 10.8332C5.77523 9.14418 6.44602 7.52427 7.64011 6.32968C8.8342 5.13509 10.4538 4.46363 12.1429 4.46293H12.1534Z" fill="white"/>
</g>
<defs>
<clipPath id="clip0_220_40">
<rect width="24.35" height="32.3999" fill="white"/>
</clipPath>
</defs>
</svg>
