<svg width="50" height="43" viewBox="0 0 50 43" fill="none" xmlns="http://www.w3.org/2000/svg">
<path d="M45.824 7.71799H42.8107L39.91 1.42891C39.6849 0.941292 39.1848 0.616211 38.6472 0.616211H25.2188C24.6812 0.616211 24.181 0.928789 23.956 1.42891L21.0553 7.71799H14.8162V4.37965C14.8162 3.61696 14.191 2.9918 13.4284 2.9918H6.27657C5.51388 2.9918 4.88872 3.61696 4.88872 4.37965V7.71799H4.16354C1.86297 7.71799 0 9.59346 0 11.8815V38.3757C0 40.6762 1.87547 42.5392 4.16354 42.5392H45.8365C48.137 42.5392 50 40.6637 50 38.3757V11.8815C49.9875 9.59346 48.112 7.71799 45.824 7.71799ZM26.1065 3.40441H37.7594L39.7474 7.71799H24.106L26.1065 3.40441ZM7.65191 5.7675H12.028V7.71799H7.65191V5.7675ZM45.824 39.7635H4.13853C3.37584 39.7635 2.75069 39.1383 2.75069 38.3757V24.9598H4.91373C5.67642 24.9598 6.30158 24.3346 6.30158 23.5719C6.30158 22.8093 5.67642 22.1841 4.91373 22.1841H2.75069V19.4084H7.68942C8.45211 19.4084 9.07727 18.7833 9.07727 18.0206C9.07727 17.2579 8.45211 16.6327 7.68942 16.6327H2.75069V11.894C2.75069 11.1313 3.37584 10.5062 4.13853 10.5062H45.8115C46.5741 10.5062 47.1993 11.1313 47.1993 11.894V38.3757H47.2118C47.2118 39.1383 46.5866 39.7635 45.824 39.7635Z" fill="white"/>
<path d="M31.933 12.9316C25.2063 12.9316 19.73 18.408 19.73 25.1347C19.73 31.8614 25.2063 37.3377 31.933 37.3377C38.6597 37.3377 44.1361 31.8614 44.1361 25.1347C44.1236 18.408 38.6472 12.9316 31.933 12.9316ZM31.933 34.5495C26.7442 34.5495 22.5182 30.3235 22.5182 25.1347C22.5182 19.9459 26.7442 15.7198 31.933 15.7198C37.1218 15.7198 41.3479 19.9459 41.3479 25.1347C41.3479 30.3235 37.1218 34.5495 31.933 34.5495Z" fill="white"/>
<path d="M31.933 18.4956C28.2696 18.4956 25.2938 21.4713 25.2938 25.1348C25.2938 28.7982 28.2696 31.7739 31.933 31.7739C35.5964 31.7739 38.5721 28.7982 38.5721 25.1348C38.5721 21.4713 35.5839 18.4956 31.933 18.4956ZM31.933 28.9982C29.8075 28.9982 28.0695 27.2603 28.0695 25.1348C28.0695 23.0092 29.8075 21.2713 31.933 21.2713C34.0585 21.2713 35.7964 23.0092 35.7964 25.1348C35.7964 27.2603 34.0585 28.9982 31.933 28.9982Z" fill="white"/>
<path d="M44.236 12.5566H42.9982C42.2355 12.5566 41.6104 13.1818 41.6104 13.9445C41.6104 14.7072 42.2355 15.3323 42.9982 15.3323H44.236C44.9987 15.3323 45.6239 14.7072 45.6239 13.9445C45.6239 13.1818 45.0112 12.5566 44.236 12.5566Z" fill="white"/>
<path d="M14.6537 13.9321C13.891 13.9321 13.2659 14.5573 13.2659 15.32V34.9374C13.2659 35.7001 13.891 36.3252 14.6537 36.3252C15.4164 36.3252 16.0416 35.7001 16.0416 34.9374V15.32C16.0416 14.5573 15.4164 13.9321 14.6537 13.9321Z" fill="white"/>
</svg>
