<svg width="20" height="19" viewBox="0 0 20 19" fill="none" xmlns="http://www.w3.org/2000/svg">
<g clip-path="url(#clip0_429_2)">
<path d="M19.5704 0.160939C17.9266 1.10938 16.0688 2.46719 14.3219 3.99844C12.9141 5.23281 11.4125 6.72031 10.0219 8.25781C9.06255 9.32031 8.02817 10.5563 7.0938 11.7578C6.7688 12.1766 5.92817 13.2984 5.66411 13.6688C5.52817 13.8594 5.45317 13.9516 5.43755 13.9469C5.42505 13.9438 4.23598 13.275 2.79692 12.4625L0.179732 10.9828L0.120357 11.05C0.0891073 11.0875 0.0547323 11.1281 0.0469198 11.1422C0.0328573 11.1672 0.254732 11.4266 5.91255 17.9875L6.36723 18.5156H6.42973H6.49223L6.84692 17.8078C8.59848 14.3219 10.3188 11.4516 12.2704 8.75781C14.4219 5.79063 16.8579 3.05781 19.5985 0.540626C19.7938 0.360939 19.9532 0.209376 19.9532 0.203126C19.9532 0.195314 19.8454 0.0421886 19.825 0.0218761C19.8219 0.0203136 19.7079 0.0828136 19.5704 0.160939Z" fill="#06AB06"/>
</g>
<defs>
<clipPath id="clip0_429_2">
<rect width="20" height="18.5156" fill="white"/>
</clipPath>
</defs>
</svg>
