<svg width="46" height="44" viewBox="0 0 46 44" fill="none" xmlns="http://www.w3.org/2000/svg">
<path d="M37.5 43.6L33.5 39.6L35.6 37.5L39.6 41.5C40.2 42.1 40.2 43 39.6 43.6C39.1 44.1 38.1 44.1 37.5 43.6Z" fill="#37474F"/>
<path d="M8.5 43.6L12.5 39.6L10.4 37.5L6.4 41.5C5.8 42.1 5.8 43 6.4 43.6C6.9 44.1 7.9 44.1 8.5 43.6Z" fill="#37474F"/>
<path d="M23 43C34.0457 43 43 34.0457 43 23C43 11.9543 34.0457 3 23 3C11.9543 3 3 11.9543 3 23C3 34.0457 11.9543 43 23 43Z" fill="#C62828"/>
<path d="M23 39C31.8366 39 39 31.8366 39 23C39 14.1634 31.8366 7 23 7C14.1634 7 7 14.1634 7 23C7 31.8366 14.1634 39 23 39Z" fill="#EEEEEE"/>
<path d="M13.5301 31.9137L14.0957 32.4793L23.2867 23.2883L22.7211 22.7227L13.5301 31.9137Z" fill="#E53935"/>
<path d="M24 10H22V23H24V10Z" fill="black"/>
<path d="M28.6593 30.2799L30.2854 28.6538L23.781 22.1494L22.1549 23.7755L28.6593 30.2799Z" fill="black"/>
<path d="M23 25C24.1046 25 25 24.1046 25 23C25 21.8954 24.1046 21 23 21C21.8954 21 21 21.8954 21 23C21 24.1046 21.8954 25 23 25Z" fill="black"/>
<path d="M23 24C23.5523 24 24 23.5523 24 23C24 22.4477 23.5523 22 23 22C22.4477 22 22 22.4477 22 23C22 23.5523 22.4477 24 23 24Z" fill="#C62828"/>
<path d="M25 0H21V3H25V0Z" fill="#37474F"/>
<path d="M43.4 15.2C45.9 11.7 45.5 6.8 42.4 3.7C39.3 0.600002 34.4 0.200002 30.9 2.7L43.4 15.2Z" fill="#37474F"/>
<path d="M2.6 15.2C0.100003 11.7 0.500003 6.8 3.6 3.7C6.7 0.600002 11.6 0.200002 15.1 2.7L2.6 15.2Z" fill="#37474F"/>
</svg>
