<svg width="138" height="185" viewBox="0 0 138 185" fill="none" xmlns="http://www.w3.org/2000/svg">
<path d="M131.389 171.505V175.668C131.389 177.162 130.171 178.379 128.675 178.379H8.79477C7.29857 178.379 6.08112 177.162 6.08112 175.668V8.79476C6.08112 7.29857 7.29857 6.08111 8.79477 6.08111H102.77V24.841C102.77 29.6903 106.716 33.6357 111.563 33.6357H131.389V171.505C133.481 171.698 134.67 174.688 137.47 170.345V30.6208C137.472 30.4486 137.458 30.2805 137.433 30.1125C137.433 30.1125 137.431 30.1125 137.431 30.1104C137.431 30.1084 137.431 30.1084 137.431 30.1043C137.431 30.1022 137.429 30.1002 137.429 30.0981C137.414 30.0121 137.398 29.9301 137.376 29.846C137.373 29.844 137.38 29.8399 137.373 29.8399C137.373 29.8358 137.373 29.8337 137.371 29.8317C137.236 29.3131 136.964 28.8294 136.568 28.438L136.564 28.4359C136.55 28.4339 136.56 28.4339 136.558 28.4318C136.564 28.4216 136.554 28.4277 136.554 28.4277C136.55 28.4257 136.556 28.4257 136.547 28.4236C136.55 28.4216 136.543 28.4216 136.543 28.4195C136.541 28.4175 136.539 28.4175 136.537 28.4154L107.919 0.850577C107.917 0.848528 107.915 0.846478 107.913 0.844428C107.911 0.842379 107.909 0.840329 107.907 0.83828C107.495 0.448859 106.997 0.188562 106.466 0.0717354C106.388 0.0553388 106.312 0.0409917 106.234 0.0307438C106.232 0.0307438 106.232 0.0307438 106.232 0.0307438C106.228 0.0286942 106.226 0.0307438 106.222 0.0286942C106.218 0.0286942 106.214 0.0266446 106.214 0.0286942C106.212 0.0286942 106.207 0.0286942 106.203 0.0286942C106.199 0.0286942 106.197 0.0266446 106.193 0.0286942C106.193 0.0286942 106.191 0.0286942 106.183 0.0266446C106.052 0.00614875 105.896 0.00614875 105.789 0H8.79477C3.94545 0 0 3.94545 0 8.79476V175.67C0 180.517 3.94545 184.463 8.79477 184.463H128.675C133.524 184.463 137.47 180.517 137.47 175.67V170.345C135.51 170.915 133.481 171.312 131.389 171.505ZM108.851 10.1885L126.888 27.5546H111.563C110.069 27.5546 108.851 26.3372 108.851 24.841V10.1885Z" fill="#D4483B"/>
<path d="M21.4405 136.093C19.7598 136.093 18.3989 137.454 18.3989 139.134C18.3989 140.815 19.7598 142.176 21.4405 142.176H67.9005C69.5791 142.176 70.9421 140.815 70.9421 139.134C70.9421 137.454 69.5812 136.093 67.9005 136.093H21.4405Z" fill="#D4483B"/>
<path d="M21.4405 81.3625H118.374C120.052 81.3625 121.415 80.0015 121.415 78.3209C121.415 76.6402 120.054 75.2793 118.374 75.2793H21.4405C19.7598 75.2793 18.3989 76.6402 18.3989 78.3209C18.3989 80.0015 19.7619 81.3625 21.4405 81.3625Z" fill="#D4483B"/>
<path d="M121.415 118.863C121.415 117.185 120.054 115.822 118.374 115.822H21.4405C19.7598 115.822 18.3989 117.183 18.3989 118.863C18.3989 120.544 19.7598 121.905 21.4405 121.905H118.374C120.054 121.903 121.415 120.542 121.415 118.863Z" fill="#D4483B"/>
<path d="M21.4405 61.091H67.9005C69.5791 61.091 70.9421 59.7301 70.9421 58.0494C70.9421 56.3687 69.5812 55.0078 67.9005 55.0078H21.4405C19.7598 55.0078 18.3989 56.3687 18.3989 58.0494C18.401 59.7301 19.7619 61.091 21.4405 61.091Z" fill="#D4483B"/>
<path d="M21.4405 101.633H118.374C120.052 101.633 121.415 100.273 121.415 98.5919C121.415 96.9133 120.054 95.5503 118.374 95.5503H21.4405C19.7598 95.5503 18.3989 96.9112 18.3989 98.5919C18.401 100.273 19.7619 101.633 21.4405 101.633Z" fill="#D4483B"/>
</svg>
