<svg width="595" height="456" viewBox="0 0 595 456" fill="none" xmlns="http://www.w3.org/2000/svg">
<path d="M541.567 39.3C575.9 75.7667 594.333 116.667 594.333 182.967C594.333 299.633 512.433 404.2 393.333 455.9L363.567 409.967C474.733 349.833 496.467 271.8 505.133 222.6C487.233 231.867 463.8 235.1 440.833 232.967C380.7 227.4 333.3 178.033 333.3 116.667C333.3 85.7247 345.592 56.0501 367.471 34.1709C389.35 12.2916 419.025 0 449.967 0C485.733 0 519.933 16.3333 541.567 39.3ZM208.233 39.3C242.567 75.7667 261 116.667 261 182.967C261 299.633 179.1 404.2 60 455.9L30.2333 409.967C141.4 349.833 163.133 271.8 171.8 222.6C153.9 231.867 130.467 235.1 107.5 232.967C47.3667 227.4 0 178.033 0 116.667C0 85.7247 12.2916 56.0501 34.1709 34.1709C56.0501 12.2916 85.7247 0 116.667 0C152.433 0 186.633 16.3333 208.267 39.3H208.233Z" fill="black"/>
</svg>
