<svg width="88" height="72" viewBox="0 0 88 72" fill="none" xmlns="http://www.w3.org/2000/svg">
<path d="M83.38 44.4801C82.46 43.5601 81.45 42.7701 80.36 42.1101C80.43 41.2601 80.47 40.4001 80.47 39.5501C80.47 35.5601 79.69 31.6801 78.14 28.0301C76.92 25.1501 75.27 22.5101 73.23 20.1601L76.16 17.2301L78.61 19.6801C79.02 20.0901 79.56 20.2901 80.09 20.2901C80.62 20.2901 81.16 20.0901 81.57 19.6801C82.39 18.8601 82.39 17.5301 81.57 16.7101L73.7 8.84009C72.88 8.02009 71.55 8.02009 70.73 8.84009C69.91 9.66009 69.91 10.9901 70.73 11.8101L73.18 14.2601L70.25 17.1901C67.9 15.1501 65.26 13.5001 62.38 12.2801C59.37 11.0101 56.21 10.2501 52.96 10.0301V4.79009H56.43C57.59 4.79009 58.53 3.85009 58.53 2.69009C58.53 1.53009 57.59 0.590088 56.43 0.590088H45.3C44.14 0.590088 43.2 1.53009 43.2 2.69009C43.2 3.85009 44.14 4.79009 45.3 4.79009H48.77V10.0301C45.52 10.2601 42.36 11.0101 39.35 12.2801C35.83 13.7701 32.66 15.9001 29.94 18.6201C27.22 21.3401 25.09 24.5001 23.6 28.0301C22.06 31.6801 21.27 35.5601 21.27 39.5501C21.27 43.5401 22.05 47.4201 23.6 51.0701C25.09 54.5901 27.22 57.7601 29.94 60.4801C32.66 63.2001 35.82 65.3301 39.35 66.8201C43 68.3601 46.88 69.1501 50.87 69.1501C54.53 69.1501 58.09 68.4901 61.48 67.1901C64.41 69.9201 68.2 71.4101 72.22 71.4101C76.24 71.4101 80.39 69.7701 83.37 66.7901C86.35 63.8101 87.99 59.8501 87.99 55.6401C87.99 51.4301 86.35 47.4701 83.37 44.4901L83.38 44.4801ZM32.92 57.5101C28.12 52.7101 25.48 46.3401 25.48 39.5501C25.48 32.7601 28.12 26.3901 32.92 21.5901C37.72 16.7901 44.09 14.1501 50.88 14.1501C57.67 14.1501 63.82 16.7001 68.58 21.3401C68.65 21.4401 68.72 21.5301 68.81 21.6101C68.9 21.7001 68.99 21.7701 69.08 21.8401C73.72 26.6101 76.27 32.8801 76.27 39.5401C76.27 39.8201 76.27 40.0901 76.26 40.3701C74.96 40.0301 73.6 39.8501 72.22 39.8501C68.01 39.8501 64.05 41.4901 61.07 44.4701C58.09 47.4501 56.45 51.4101 56.45 55.6201C56.45 58.5201 57.23 61.2901 58.68 63.7101C56.17 64.5201 53.56 64.9301 50.88 64.9301C44.1 64.9301 37.72 62.2901 32.92 57.4901V57.5101ZM72.22 67.2101C65.84 67.2101 60.64 62.0201 60.64 55.6301C60.64 49.2401 65.83 44.0501 72.22 44.0501C78.61 44.0501 83.8 49.2401 83.8 55.6301C83.8 62.0201 78.61 67.2101 72.22 67.2101Z" fill="black"/>
<path d="M76.01 50.4199L69.87 56.5599L68.3 54.9899C67.48 54.1699 66.15 54.1699 65.33 54.9899C64.51 55.8099 64.51 57.1399 65.33 57.9599L68.38 61.0099C68.77 61.3999 69.31 61.6199 69.86 61.6199C70.41 61.6199 70.95 61.3999 71.34 61.0099L78.96 53.3899C79.78 52.5699 79.78 51.2399 78.96 50.4199C78.14 49.5999 76.81 49.5999 75.99 50.4199H76.01Z" fill="black"/>
<path d="M60.75 29.6799C59.93 28.8599 58.6 28.8599 57.78 29.6799L52.98 34.4799V20.9999C52.98 19.8399 52.04 18.8999 50.88 18.8999C49.72 18.8999 48.78 19.8399 48.78 20.9999V39.5399C48.78 40.3899 49.29 41.1499 50.07 41.4799C50.33 41.5899 50.6 41.6399 50.87 41.6399C51.42 41.6399 51.95 41.4299 52.35 41.0299L60.73 32.6499C61.55 31.8299 61.55 30.4999 60.73 29.6799H60.75Z" fill="black"/>
<path d="M16.78 23.7H2.1C0.94 23.7 0 24.6399 0 25.7999C0 26.9599 0.94 27.9 2.1 27.9H16.78C17.94 27.9 18.88 26.9599 18.88 25.7999C18.88 24.6399 17.94 23.7 16.78 23.7Z" fill="black"/>
<path d="M12.74 37.45H2.08999C0.929991 37.45 -0.0100098 38.3899 -0.0100098 39.5499C-0.0100098 40.7099 0.929991 41.65 2.08999 41.65H12.74C13.9 41.65 14.84 40.7099 14.84 39.5499C14.84 38.3899 13.9 37.45 12.74 37.45Z" fill="black"/>
<path d="M2.1 14.15H23.39C24.55 14.15 25.49 13.2099 25.49 12.0499C25.49 10.8899 24.55 9.94995 23.39 9.94995H2.1C0.94 9.94995 0 10.8899 0 12.0499C0 13.2099 0.94 14.15 2.1 14.15Z" fill="black"/>
</svg>
