<svg width="31" height="26" viewBox="0 0 31 26" fill="none" xmlns="http://www.w3.org/2000/svg">
<path d="M29.7418 23.8303H2.2008C1.82814 23.8303 1.45548 23.8231 1.07924 23.8303H1.03265C0.695828 23.8303 0.373335 24.1277 0.387668 24.4753C0.402001 24.8264 0.670745 25.1203 1.03265 25.1203H28.5736C28.9463 25.1203 29.3189 25.1274 29.6952 25.1203H29.7418C30.0786 25.1203 30.4011 24.8228 30.3867 24.4753C30.3688 24.1241 30.1037 23.8303 29.7418 23.8303ZM26.8716 6.60553H6.73363C5.80556 6.60553 4.87033 6.56612 3.94226 6.60553H3.90285C4.01035 7.00686 4.12143 7.40818 4.22893 7.80593C4.60875 7.61601 4.98858 7.4261 5.37199 7.23619C6.28572 6.77753 7.19945 6.32246 8.11318 5.8638C9.22041 5.31198 10.3241 4.75657 11.4313 4.20475C12.388 3.72817 13.3447 3.24802 14.2979 2.77144C14.7601 2.53853 15.2403 2.32712 15.6918 2.07271L15.7133 2.06196H15.0611C15.441 2.25187 15.8208 2.44178 16.2042 2.63169C17.1179 3.09035 18.0317 3.54543 18.9454 4.00408C20.0526 4.55591 21.1563 5.11131 22.2635 5.66313C23.2202 6.13971 24.177 6.61987 25.1301 7.09644C25.5959 7.32935 26.0582 7.56943 26.524 7.79518L26.5455 7.80593C26.8465 7.95642 27.2586 7.89551 27.427 7.57301C27.5811 7.27919 27.5166 6.85278 27.1941 6.69153C26.8107 6.49804 26.4272 6.30812 26.0438 6.11463C25.1229 5.65597 24.202 5.19373 23.2811 4.73507L19.9487 3.06885C18.9956 2.59228 18.046 2.11571 17.0928 1.64271C16.6378 1.41339 16.1863 1.17689 15.724 0.958311C15.4875 0.84723 15.2761 0.84723 15.0432 0.958311C14.993 0.983394 14.9429 1.00848 14.8963 1.03356C14.6634 1.15181 14.4269 1.26647 14.194 1.38472C13.3268 1.81829 12.4633 2.25187 11.5961 2.68186C10.4925 3.23368 9.38524 3.78551 8.2816 4.34091C7.28187 4.83898 6.28572 5.34064 5.28599 5.83871L3.65202 6.6557C3.62694 6.67003 3.60185 6.68078 3.57319 6.69511C3.32953 6.81695 3.19336 7.16811 3.27578 7.42252C3.36178 7.69485 3.60544 7.89551 3.89927 7.89551H24.0372C24.9653 7.89551 25.9005 7.91701 26.8286 7.89551H26.868C27.2048 7.89551 27.5273 7.5981 27.513 7.25052C27.4986 6.89936 27.2299 6.60553 26.8716 6.60553Z" fill="black"/>
<path d="M7.42172 21.6014V20.1717V16.7532V12.6002V9.02414C7.42172 8.44365 7.43963 7.856 7.42172 7.27551V7.25043C7.42172 6.9136 7.12431 6.59111 6.77673 6.60544C6.42557 6.61977 6.13174 6.88852 6.13174 7.25043V19.8277C6.13174 20.4082 6.11383 20.9958 6.13174 21.5763V21.6014C6.13174 21.9382 6.42915 22.2607 6.77673 22.2464C7.12431 22.2321 7.42172 21.9633 7.42172 21.6014ZM24.6429 21.6014V20.1717V16.7532V12.6002V9.02414C24.6429 8.44365 24.6608 7.856 24.6429 7.27551V7.25043C24.6429 6.9136 24.3455 6.59111 23.9979 6.60544C23.6467 6.61977 23.3529 6.88852 23.3529 7.25043V19.8277C23.3529 20.4082 23.335 20.9958 23.3529 21.5763V21.6014C23.3529 21.9382 23.6503 22.2607 23.9979 22.2464C24.3491 22.2321 24.6429 21.9633 24.6429 21.6014ZM11.7252 21.6014V20.1717V16.7532V12.6002V9.02414C11.7252 8.44365 11.7431 7.856 11.7252 7.27551V7.25043C11.7252 6.9136 11.4278 6.59111 11.0802 6.60544C10.7291 6.61977 10.4352 6.88852 10.4352 7.25043V19.8277C10.4352 20.4082 10.4173 20.9958 10.4352 21.5763V21.6014C10.4352 21.9382 10.7327 22.2607 11.0802 22.2464C11.4314 22.2321 11.7252 21.9633 11.7252 21.6014ZM16.0323 21.6014V20.1717V16.7532V12.6002V9.02414C16.0323 8.44365 16.0502 7.856 16.0323 7.27551V7.25043C16.0323 6.9136 15.7349 6.59111 15.3873 6.60544C15.0362 6.61977 14.7423 6.88852 14.7423 7.25043V19.8277C14.7423 20.4082 14.7244 20.9958 14.7423 21.5763V21.6014C14.7423 21.9382 15.0397 22.2607 15.3873 22.2464C15.7385 22.2321 16.0323 21.9633 16.0323 21.6014ZM20.3394 21.6014V20.1717V16.7532V12.6002V9.02414C20.3394 8.44365 20.3573 7.856 20.3394 7.27551V7.25043C20.3394 6.9136 20.042 6.59111 19.6944 6.60544C19.3432 6.61977 19.0494 6.88852 19.0494 7.25043V19.8277C19.0494 20.4082 19.0315 20.9958 19.0494 21.5763V21.6014C19.0494 21.9382 19.3468 22.2607 19.6944 22.2464C20.042 22.2321 20.3394 21.9633 20.3394 21.6014Z" fill="black"/>
<path d="M4.54779 24.4752V21.605L3.9028 22.25H24.0407C24.9688 22.25 25.904 22.2894 26.8321 22.25H26.8715L26.2265 21.605V24.4752C26.2265 24.812 26.5239 25.1345 26.8715 25.1202C27.2227 25.1058 27.5165 24.8371 27.5165 24.4752V21.605C27.5165 21.2574 27.2227 20.96 26.8715 20.96H6.73358C5.80551 20.96 4.87028 20.9385 3.94222 20.96H3.9028C3.55522 20.96 3.25781 21.2538 3.25781 21.605V24.4752C3.25781 24.812 3.55522 25.1345 3.9028 25.1202C4.25396 25.1022 4.54779 24.8335 4.54779 24.4752Z" fill="black"/>
</svg>
