<svg width="51" height="61" viewBox="0 0 51 61" fill="none" xmlns="http://www.w3.org/2000/svg">
<path d="M2.50018 11.1635C3.00009 11.2061 3.49997 11.2267 4.0026 11.2267C14.6267 11.2267 25.5838 2.07204 25.5838 2.07204C25.5838 2.07204 36.5402 11.2267 47.1652 11.2267C47.667 11.2267 48.1684 11.2061 48.6677 11.1635V33.6408C48.6677 36.7003 47.8426 39.7067 46.2549 42.322C43.7681 46.4199 38.9467 52.1142 30.0005 56.3291L30.0009 56.3315L29.9684 56.3448C28.8839 56.855 27.7414 57.3441 26.5325 57.8051L26.5315 57.7604L25.5838 58.1507L24.6358 57.7666L24.6351 57.8051C23.6498 57.4293 22.7158 57.032 21.8135 56.6231L21.6814 56.5693L21.6817 56.5644C12.4941 52.3674 7.54221 46.605 4.98588 42.439C3.34885 39.7713 2.50018 36.6958 2.50018 33.5658V11.1635ZM20.7625 58.2509C20.8265 58.2859 20.893 58.3176 20.9618 58.3456L21.0578 58.3847C22.0733 58.8438 23.0206 59.2402 23.9522 59.5956C24.0569 59.6354 24.1638 59.6658 24.2716 59.6867L24.8642 59.9266C25.095 60.0202 25.3394 60.0667 25.5838 60.0667C25.8321 60.0667 26.0797 60.0188 26.3136 59.9224L26.8782 59.6899C26.9921 59.6689 27.1048 59.6375 27.2152 59.5956C28.4052 59.142 29.5913 58.6382 30.7418 58.0987C30.7974 58.0753 30.8511 58.0498 30.9035 58.0219C40.2547 53.594 45.3027 47.5844 47.8929 43.3164C49.6534 40.4159 50.584 37.0701 50.584 33.6408V11.1635C50.584 10.6268 50.3588 10.1146 49.9635 9.75177C49.6087 9.42599 49.1457 9.24721 48.6677 9.24686C48.6132 9.24686 48.5588 9.24931 48.504 9.2542C48.0685 9.29121 47.6181 9.31041 47.1652 9.31041C37.3489 9.31041 26.9166 0.688619 26.8126 0.601675C26.4568 0.304528 26.0203 0.156123 25.5838 0.156123C25.1474 0.156123 24.7109 0.304528 24.3551 0.601675C24.2004 0.729821 13.767 9.31041 4.0026 9.31041C3.54948 9.31041 3.09912 9.29121 2.66359 9.2542C2.60919 9.24931 2.55448 9.24686 2.50008 9.24686C2.02227 9.24686 1.55919 9.42599 1.20415 9.75177C0.808888 10.1146 0.583984 10.6268 0.583984 11.1635V33.5658C0.583984 37.0743 1.54131 40.4895 3.35265 43.4411C6.00829 47.7691 11.1828 53.8433 20.7625 58.2509Z" fill="white"/>
<path d="M13.4862 29.6099L20.3645 36.0392L37.5877 18.8159L40.3169 21.5447L20.4549 41.4067L10.8507 32.4291L13.4862 29.6099ZM19.1463 42.8069C19.5153 43.1516 19.9852 43.323 20.4547 43.323C20.946 43.323 21.4364 43.1351 21.8099 42.7615L41.6716 22.8998C42.4203 22.1515 42.4203 20.9382 41.6716 20.1899L38.9429 17.4607C38.5836 17.1014 38.0961 16.8996 37.5877 16.8996C37.0797 16.8996 36.5922 17.1014 36.2329 17.4607L20.3196 33.3743L14.7949 28.2101C14.4393 27.8776 13.9713 27.6936 13.4863 27.6936C13.4649 27.6936 13.4434 27.694 13.4217 27.6947C12.9137 27.7118 12.4335 27.93 12.0863 28.3012L9.45091 31.1204C8.72829 31.8938 8.76908 33.1062 9.54229 33.829L19.1463 42.8069Z" fill="white"/>
</svg>
