<?xml version="1.0" encoding="utf-8"?>
<!-- Svg Vector Icons : http://www.onlinewebfonts.com/icon -->
<!DOCTYPE svg PUBLIC "-//W3C//DTD SVG 1.1//EN" "http://www.w3.org/Graphics/SVG/1.1/DTD/svg11.dtd">
<svg version="1.1" xmlns="http://www.w3.org/2000/svg" xmlns:xlink="http://www.w3.org/1999/xlink" x="0px" y="0px" viewBox="0 0 256 256" enable-background="new 0 0 256 256" xml:space="preserve">
<metadata> Svg Vector Icons : http://www.onlinewebfonts.com/icon </metadata>
<g><g><path fill="#000000" d="M101.7,118.4c-2-2-5.1-2-7.1,0l-6.1,6.1c-2,2-2,5.1,0,7.1l26.3,26.3c0,0,1,0,1,1c2,1,5.1,1,6.1-1l45.6-46.6c2-2,2-5.1,0-7.1l-6.1-6.1c-2-2-5.1-2-7.1,0l-36.5,36.4L101.7,118.4"/><path fill="#000000" d="M213.1,43.4c-30.4-1-51.7-8.1-81-31.4c-1-1-3-2-4-2s-3,0-4,1c-29.4,24.3-50.6,31.4-81,31.4c-3,0-5.1,2-5.1,5.1v91.2c0,43.6,31.4,71.9,86.1,106.4c1,1,3,1,4,1c2,0,3,0,4-1c54.7-34.4,86.1-62.8,86.1-106.4V48.5C218.1,45.5,216.1,43.4,213.1,43.4L213.1,43.4z M197.9,138.7c0,30.4-18.2,52.7-69.9,86.1c-51.7-33.4-69.9-55.7-69.9-86.1v-77c26.3-3,46.6-11.2,69.9-28.4c23.3,17.2,44.6,25.3,69.9,28.4V138.7L197.9,138.7z"/></g></g>
</svg>