<svg xmlns="http://www.w3.org/2000/svg" xmlns:xlink="http://www.w3.org/1999/xlink" width="501" zoomAndPan="magnify" viewBox="0 0 375.75 108.749999" height="145" preserveAspectRatio="xMidYMid meet" version="1.0"><defs><g/><clipPath id="9b250f70ca"><path d="M 2.550781 2.316406 L 90.847656 2.316406 L 90.847656 78 L 2.550781 78 Z M 2.550781 2.316406 " clip-rule="nonzero"/></clipPath><clipPath id="894ce53947"><path d="M 35 2.316406 L 90.847656 2.316406 L 90.847656 98.84375 L 35 98.84375 Z M 35 2.316406 " clip-rule="nonzero"/></clipPath><clipPath id="6dee536e70"><path d="M 327 21 L 357 21 L 357 58 L 327 58 Z M 327 21 " clip-rule="nonzero"/></clipPath><clipPath id="2d3d0a6ccd"><path d="M 289.996094 101.203125 L 275.925781 37.640625 L 351.175781 20.984375 L 365.246094 84.546875 Z M 289.996094 101.203125 " clip-rule="nonzero"/></clipPath><clipPath id="db3458460e"><path d="M 365.484375 84.496094 L 351.417969 20.933594 L 276.164062 37.589844 L 290.234375 101.152344 Z M 365.484375 84.496094 " clip-rule="nonzero"/></clipPath><clipPath id="a8e07a9a92"><path d="M 287 56 L 337 56 L 337 99 L 287 99 Z M 287 56 " clip-rule="nonzero"/></clipPath><clipPath id="a8fe92cfcb"><path d="M 289.996094 101.203125 L 275.925781 37.640625 L 351.175781 20.984375 L 365.246094 84.546875 Z M 289.996094 101.203125 " clip-rule="nonzero"/></clipPath><clipPath id="9d1d65b4aa"><path d="M 365.484375 84.496094 L 351.417969 20.933594 L 276.164062 37.589844 L 290.234375 101.152344 Z M 365.484375 84.496094 " clip-rule="nonzero"/></clipPath></defs><g fill="#d4483b" fill-opacity="1"><g transform="translate(65.922475, 91.438919)"><g><path d="M 4.25 -37.984375 L 12.53125 -37.984375 L 12.53125 0 L 4.25 0 Z M 4.25 -37.984375 "/></g></g></g><g fill="#d4483b" fill-opacity="1"><g transform="translate(82.527837, 91.438919)"><g><path d="M 14.453125 1.015625 C 11.503906 1.015625 8.859375 0.351562 6.515625 -0.96875 C 4.171875 -2.289062 2.28125 -4.195312 0.84375 -6.6875 L 6.625 -11.5 C 8.59375 -7.988281 11.1875 -6.234375 14.40625 -6.234375 C 15.832031 -6.234375 16.988281 -6.582031 17.875 -7.28125 C 18.769531 -7.976562 19.21875 -8.894531 19.21875 -10.03125 C 19.21875 -11.09375 18.78125 -12.007812 17.90625 -12.78125 C 17.039062 -13.550781 15.472656 -14.429688 13.203125 -15.421875 C 9.691406 -16.972656 7.132812 -18.703125 5.53125 -20.609375 C 3.925781 -22.515625 3.125 -24.789062 3.125 -27.4375 C 3.125 -29.101562 3.425781 -30.632812 4.03125 -32.03125 C 4.632812 -33.425781 5.484375 -34.625 6.578125 -35.625 C 7.671875 -36.625 8.972656 -37.398438 10.484375 -37.953125 C 11.992188 -38.503906 13.65625 -38.78125 15.46875 -38.78125 C 20.269531 -38.78125 24.332031 -36.71875 27.65625 -32.59375 L 22.171875 -27.609375 C 21.109375 -29.003906 20.046875 -30.03125 18.984375 -30.6875 C 17.929688 -31.351562 16.757812 -31.6875 15.46875 -31.6875 C 14.226562 -31.6875 13.238281 -31.375 12.5 -30.75 C 11.757812 -30.125 11.390625 -29.285156 11.390625 -28.234375 C 11.390625 -27.054688 11.878906 -26.085938 12.859375 -25.328125 C 13.847656 -24.578125 15.328125 -23.769531 17.296875 -22.90625 C 20.878906 -21.3125 23.472656 -19.539062 25.078125 -17.59375 C 26.691406 -15.65625 27.5 -13.363281 27.5 -10.71875 C 27.5 -8.976562 27.175781 -7.390625 26.53125 -5.953125 C 25.882812 -4.515625 24.992188 -3.273438 23.859375 -2.234375 C 22.734375 -1.203125 21.363281 -0.40625 19.75 0.15625 C 18.144531 0.726562 16.378906 1.015625 14.453125 1.015625 Z M 14.453125 1.015625 "/></g></g></g><g fill="#d4483b" fill-opacity="1"><g transform="translate(111.998134, 91.438919)"><g><path d="M 15.53125 -38.65625 L 20.796875 -38.65625 L 35.765625 0 L 27.046875 0 L 24.71875 -6.40625 L 11.625 -6.40625 L 9.359375 0 L 0.5625 0 Z M 22.171875 -13.546875 L 18.203125 -24.71875 L 14.171875 -13.546875 Z M 22.171875 -13.546875 "/></g></g></g><g clip-path="url(#9b250f70ca)"><path fill="#d4483b" d="M 2.554688 17.085938 L 27.484375 68.125 L 24.46875 77.523438 L 91.042969 2.316406 L 39.65625 50.339844 L 23.550781 17.085938 Z M 2.554688 17.085938 " fill-opacity="1" fill-rule="evenodd"/></g><g clip-path="url(#894ce53947)"><path fill="#d4483b" d="M 91.042969 2.316406 L 35.304688 83.398438 L 43.105469 98.691406 Z M 91.042969 2.316406 " fill-opacity="1" fill-rule="evenodd"/></g><g fill="#d4483b" fill-opacity="1"><g transform="translate(166.829851, 93.796277)"><g><path d="M 19.609375 0.71875 C 17.046875 0.71875 14.671875 0.273438 12.484375 -0.609375 C 10.304688 -1.492188 8.421875 -2.726562 6.828125 -4.3125 C 5.242188 -5.90625 4.007812 -7.789062 3.125 -9.96875 C 2.238281 -12.15625 1.796875 -14.53125 1.796875 -17.09375 C 1.796875 -19.65625 2.242188 -22.023438 3.140625 -24.203125 C 4.046875 -26.390625 5.289062 -28.285156 6.875 -29.890625 C 8.46875 -31.492188 10.347656 -32.75 12.515625 -33.65625 C 14.679688 -34.5625 17.023438 -35.015625 19.546875 -35.015625 C 22.210938 -35.015625 24.6875 -34.5 26.96875 -33.46875 C 29.257812 -32.445312 31.238281 -30.984375 32.90625 -29.078125 L 27.6875 -24 C 26.695312 -25.164062 25.53125 -26.082031 24.1875 -26.75 C 22.84375 -27.414062 21.367188 -27.75 19.765625 -27.75 C 18.296875 -27.75 16.945312 -27.484375 15.71875 -26.953125 C 14.488281 -26.421875 13.421875 -25.6875 12.515625 -24.75 C 11.609375 -23.8125 10.90625 -22.691406 10.40625 -21.390625 C 9.914062 -20.097656 9.671875 -18.703125 9.671875 -17.203125 C 9.671875 -15.660156 9.925781 -14.238281 10.4375 -12.9375 C 10.945312 -11.644531 11.65625 -10.519531 12.5625 -9.5625 C 13.46875 -8.613281 14.550781 -7.875 15.8125 -7.34375 C 17.070312 -6.8125 18.457031 -6.546875 19.96875 -6.546875 C 21.601562 -6.546875 23.101562 -6.882812 24.46875 -7.5625 C 25.832031 -8.25 26.992188 -9.175781 27.953125 -10.34375 L 33.171875 -5.375 C 31.535156 -3.425781 29.5625 -1.921875 27.25 -0.859375 C 24.945312 0.191406 22.398438 0.71875 19.609375 0.71875 Z M 19.609375 0.71875 "/></g></g></g><g fill="#d4483b" fill-opacity="1"><g transform="translate(200.870766, 93.796277)"><g><path d="M 19.5 0.71875 C 16.976562 0.71875 14.640625 0.257812 12.484375 -0.65625 C 10.335938 -1.582031 8.46875 -2.847656 6.875 -4.453125 C 5.289062 -6.054688 4.046875 -7.941406 3.140625 -10.109375 C 2.242188 -12.273438 1.796875 -14.617188 1.796875 -17.140625 C 1.796875 -19.671875 2.242188 -22.023438 3.140625 -24.203125 C 4.046875 -26.390625 5.289062 -28.285156 6.875 -29.890625 C 8.46875 -31.492188 10.335938 -32.75 12.484375 -33.65625 C 14.640625 -34.5625 16.976562 -35.015625 19.5 -35.015625 C 21.988281 -35.015625 24.316406 -34.5625 26.484375 -33.65625 C 28.648438 -32.75 30.523438 -31.492188 32.109375 -29.890625 C 33.703125 -28.285156 34.953125 -26.390625 35.859375 -24.203125 C 36.765625 -22.023438 37.21875 -19.671875 37.21875 -17.140625 C 37.21875 -14.617188 36.765625 -12.273438 35.859375 -10.109375 C 34.953125 -7.941406 33.703125 -6.054688 32.109375 -4.453125 C 30.523438 -2.847656 28.648438 -1.582031 26.484375 -0.65625 C 24.316406 0.257812 21.988281 0.71875 19.5 0.71875 Z M 19.5 -6.546875 C 20.9375 -6.546875 22.25 -6.8125 23.4375 -7.34375 C 24.632812 -7.875 25.664062 -8.613281 26.53125 -9.5625 C 27.40625 -10.519531 28.085938 -11.644531 28.578125 -12.9375 C 29.078125 -14.238281 29.328125 -15.640625 29.328125 -17.140625 C 29.328125 -18.648438 29.078125 -20.050781 28.578125 -21.34375 C 28.085938 -22.644531 27.40625 -23.765625 26.53125 -24.703125 C 25.664062 -25.640625 24.632812 -26.378906 23.4375 -26.921875 C 22.25 -27.472656 20.9375 -27.75 19.5 -27.75 C 18.070312 -27.75 16.757812 -27.472656 15.5625 -26.921875 C 14.363281 -26.378906 13.328125 -25.640625 12.453125 -24.703125 C 11.585938 -23.765625 10.90625 -22.644531 10.40625 -21.34375 C 9.914062 -20.050781 9.671875 -18.648438 9.671875 -17.140625 C 9.671875 -15.640625 9.914062 -14.238281 10.40625 -12.9375 C 10.90625 -11.644531 11.585938 -10.53125 12.453125 -9.59375 C 13.328125 -8.65625 14.363281 -7.910156 15.5625 -7.359375 C 16.757812 -6.816406 18.070312 -6.546875 19.5 -6.546875 Z M 19.5 -6.546875 "/></g></g></g><g fill="#d4483b" fill-opacity="1"><g transform="translate(239.723486, 93.796277)"><g><path d="M 3.84375 -34.90625 L 7.671875 -34.90625 L 21.8125 -16.328125 L 35.78125 -34.90625 L 39.625 -34.90625 L 39.625 0 L 32.140625 0 L 32.140625 -19.09375 L 23.1875 -7.265625 L 20.21875 -7.265625 L 11.3125 -19.046875 L 11.3125 0 L 3.84375 0 Z M 3.84375 -34.90625 "/></g></g></g><g fill="#d4483b" fill-opacity="1"><g transform="translate(283.029671, 93.796277)"><g><path d="M 3.84375 -34.90625 L 7.671875 -34.90625 L 21.8125 -16.328125 L 35.78125 -34.90625 L 39.625 -34.90625 L 39.625 0 L 32.140625 0 L 32.140625 -19.09375 L 23.1875 -7.265625 L 20.21875 -7.265625 L 11.3125 -19.046875 L 11.3125 0 L 3.84375 0 Z M 3.84375 -34.90625 "/></g></g></g><g fill="#d4483b" fill-opacity="1"><g transform="translate(326.335865, 93.796277)"><g><path d="M 3.84375 -34.296875 L 11.3125 -34.296875 L 11.3125 0 L 3.84375 0 Z M 3.84375 -34.296875 "/></g></g></g><g fill="#d4483b" fill-opacity="1"><g transform="translate(341.334334, 93.796277)"><g><path d="M 11 -27.28125 L 1.03125 -27.28125 L 1.03125 -34.296875 L 28.453125 -34.296875 L 28.453125 -27.28125 L 18.484375 -27.28125 L 18.484375 0 L 11 0 Z M 11 -27.28125 "/></g></g></g><g clip-path="url(#6dee536e70)"><g clip-path="url(#2d3d0a6ccd)"><g clip-path="url(#db3458460e)"><path fill="#d4483b" d="M 350.746094 21.714844 C 351.675781 22.101562 350.472656 26.859375 350.328125 27.429688 C 349.585938 30.375 348.488281 32.695312 347.589844 34.304688 C 348.5 35.402344 349.40625 36.503906 350.316406 37.601562 C 350.46875 37.277344 350.621094 36.953125 350.773438 36.625 C 351.011719 36.738281 351.355469 36.929688 351.691406 37.253906 C 352.089844 37.636719 352.308594 38.039062 352.425781 38.300781 C 352.257812 38.601562 352.089844 38.902344 351.921875 39.203125 C 353.453125 41.152344 354.980469 43.097656 356.507812 45.046875 C 356.511719 45.058594 356.515625 45.070312 356.519531 45.078125 C 356.367188 46.449219 355.964844 47.773438 355.652344 49.113281 C 353.402344 46.746094 351.15625 44.375 348.910156 42.007812 L 348.5625 42.585938 C 348.441406 42.464844 348.316406 42.347656 348.195312 42.226562 C 348.257812 41.96875 348.316406 41.707031 348.378906 41.449219 C 347.574219 40.601562 346.769531 39.753906 345.96875 38.90625 L 339.320312 51.488281 C 340.128906 52.542969 340.933594 53.597656 341.738281 54.65625 C 341.601562 55.652344 341.460938 56.652344 341.324219 57.648438 L 337.574219 53.820312 C 337.3125 54.179688 337.050781 54.542969 336.789062 54.90625 C 336.683594 54.859375 336.574219 54.8125 336.464844 54.765625 C 336.519531 54.34375 336.570312 53.921875 336.625 53.5 C 334.960938 53.65625 333.292969 53.8125 331.628906 53.96875 C 332.152344 53.128906 332.679688 52.285156 333.203125 51.445312 C 334.5625 51.171875 335.921875 50.894531 337.285156 50.621094 L 341.71875 37.144531 L 338.582031 37.246094 L 338.230469 37.816406 L 337.914062 37.804688 C 337.871094 37.683594 337.832031 37.558594 337.792969 37.4375 C 334.203125 37.707031 330.617188 37.972656 327.027344 38.242188 C 327.273438 37.792969 327.488281 37.433594 327.640625 37.191406 C 328.144531 36.40625 328.6875 35.640625 329.148438 34.828125 C 329.214844 34.714844 329.277344 34.597656 329.339844 34.480469 C 332.015625 34.03125 334.691406 33.578125 337.367188 33.128906 C 337.472656 32.796875 337.574219 32.464844 337.675781 32.136719 C 337.933594 32.023438 338.355469 31.882812 338.890625 31.867188 C 339.324219 31.855469 339.679688 31.929688 339.921875 32 C 339.878906 32.351562 339.835938 32.703125 339.792969 33.050781 C 341.148438 32.902344 342.503906 32.753906 343.859375 32.605469 C 344.503906 30.660156 345.578125 28.042969 347.429688 25.257812 C 348.207031 24.09375 350 21.402344 350.746094 21.714844 Z M 350.746094 21.714844 " fill-opacity="1" fill-rule="nonzero"/></g></g></g><g clip-path="url(#a8e07a9a92)"><g clip-path="url(#a8fe92cfcb)"><g clip-path="url(#9d1d65b4aa)"><path fill="#d4483b" d="M 312.296875 92.414062 C 308.085938 95.4375 302.492188 98.4375 297.195312 98.417969 C 294.816406 98.457031 292.242188 97.878906 290.480469 96.175781 C 288.742188 94.539062 287.984375 92.113281 287.988281 89.78125 C 288.445312 92.730469 289.960938 95.527344 292.894531 96.550781 C 294.253906 97.042969 295.71875 97.105469 297.148438 96.996094 C 302.632812 96.640625 308.625 92.75 312.816406 89.347656 C 317.167969 85.800781 321.019531 81.660156 324.414062 77.1875 C 327.488281 73.136719 330.167969 68.808594 332.476562 64.265625 C 333.769531 61.734375 334.933594 59.125 336.011719 56.492188 C 332.625 70.398438 323.902344 83.964844 312.296875 92.414062 Z M 312.296875 92.414062 " fill-opacity="1" fill-rule="nonzero"/></g></g></g></svg>