<svg xmlns="http://www.w3.org/2000/svg" xmlns:xlink="http://www.w3.org/1999/xlink" width="416" zoomAndPan="magnify" viewBox="0 0 312 54.75" height="73" preserveAspectRatio="xMidYMid meet" version="1.0"><defs><g/><clipPath id="ecd6223799"><path d="M 0.710938 9.292969 L 54.796875 9.292969 L 54.796875 45.109375 L 0.710938 45.109375 Z M 0.710938 9.292969 " clip-rule="nonzero"/></clipPath></defs><g clip-path="url(#ecd6223799)"><path fill="#d4483b" d="M 54.945312 16.117188 L 54.894531 16.164062 L 52.667969 17.859375 C 51.25 16.117188 49.492188 14.730469 47.394531 13.695312 C 45.296875 12.664062 43.023438 12.148438 40.570312 12.148438 C 39.566406 12.148438 38.59375 12.234375 37.644531 12.410156 C 36.578125 12.609375 35.542969 12.914062 34.542969 13.332031 C 34.183594 13.484375 33.832031 13.648438 33.488281 13.820312 C 32.035156 14.546875 30.742188 15.46875 29.609375 16.578125 C 28.957031 17.210938 28.371094 17.894531 27.851562 18.628906 L 26.210938 21.5625 L 22.28125 28.582031 L 18.234375 35.8125 L 16.585938 38.765625 L 15.136719 36.203125 L 3.90625 15.730469 L 0.710938 9.582031 L 3.808594 9.582031 L 6.421875 14.324219 L 7.101562 15.632812 L 13.34375 26.957031 L 16.585938 32.863281 L 18.378906 29.667969 L 16.152344 25.746094 L 10.390625 15.246094 L 10.054688 14.617188 L 7.199219 9.582031 L 10.488281 9.582031 L 11.214844 10.839844 L 12.910156 13.9375 L 15.714844 18.972656 L 17.265625 21.875 L 20.023438 26.765625 L 20.121094 26.523438 L 23.972656 19.617188 L 24.332031 18.972656 L 24.941406 17.875 C 25.703125 16.660156 26.597656 15.550781 27.621094 14.542969 C 28.867188 13.324219 30.269531 12.300781 31.832031 11.46875 C 32.355469 11.1875 32.894531 10.933594 33.453125 10.699219 C 34.15625 10.402344 34.871094 10.15625 35.597656 9.953125 C 36.847656 9.609375 38.136719 9.398438 39.46875 9.324219 C 39.832031 9.304688 40.199219 9.292969 40.570312 9.292969 C 43.507812 9.292969 46.214844 9.90625 48.699219 11.132812 C 51.183594 12.359375 53.265625 14.019531 54.945312 16.117188 Z M 31.519531 36.007812 C 32.679688 37.136719 34.035156 38.023438 35.585938 38.667969 C 37.132812 39.316406 38.792969 39.636719 40.570312 39.636719 C 42.601562 39.636719 44.492188 39.210938 46.234375 38.355469 C 47.976562 37.5 49.425781 36.347656 50.589844 34.894531 L 48.3125 33.152344 C 47.410156 34.25 46.289062 35.128906 44.949219 35.789062 C 43.609375 36.449219 42.148438 36.78125 40.570312 36.78125 C 39.214844 36.78125 37.933594 36.53125 36.722656 36.03125 C 35.511719 35.53125 34.457031 34.847656 33.550781 33.976562 C 32.648438 33.105469 31.9375 32.089844 31.421875 30.925781 C 31.292969 30.636719 31.183594 30.34375 31.085938 30.046875 L 29.359375 33.191406 C 29.941406 34.238281 30.664062 35.175781 31.519531 36.007812 Z M 54.894531 38.234375 L 52.667969 36.492188 C 51.25 38.234375 49.492188 39.621094 47.394531 40.652344 C 45.296875 41.6875 43.023438 42.203125 40.570312 42.203125 C 38.441406 42.203125 36.433594 41.808594 34.546875 41.015625 C 32.65625 40.226562 31.011719 39.152344 29.609375 37.796875 C 28.980469 37.191406 28.414062 36.539062 27.90625 35.839844 L 26.414062 38.558594 C 26.792969 39.015625 27.199219 39.457031 27.625 39.878906 C 29.285156 41.523438 31.230469 42.824219 33.457031 43.773438 C 35.683594 44.726562 38.054688 45.203125 40.570312 45.203125 C 43.507812 45.203125 46.21875 44.574219 48.703125 43.316406 C 51.1875 42.058594 53.265625 40.363281 54.945312 38.234375 Z M 46.230469 15.996094 C 44.488281 15.140625 42.601562 14.714844 40.570312 14.714844 C 38.898438 14.714844 37.328125 15.007812 35.859375 15.59375 C 35.765625 15.628906 35.675781 15.667969 35.585938 15.703125 C 34.035156 16.367188 32.679688 17.261719 31.519531 18.390625 C 30.9375 18.957031 30.414062 19.574219 29.957031 20.242188 C 29.503906 20.898438 29.113281 21.605469 28.785156 22.359375 C 28.773438 22.382812 28.765625 22.402344 28.757812 22.425781 L 25.179688 28.929688 L 23.113281 32.691406 L 18.136719 41.742188 L 19.78125 44.695312 L 24.59375 35.945312 L 26.25 32.929688 L 28.039062 29.675781 L 30.769531 24.707031 L 31.277344 23.792969 L 32.566406 21.488281 C 32.863281 21.09375 33.191406 20.722656 33.554688 20.375 C 34.457031 19.503906 35.511719 18.820312 36.722656 18.316406 C 37.933594 17.816406 39.214844 17.566406 40.570312 17.566406 C 42.152344 17.566406 43.601562 17.898438 44.925781 18.558594 C 46.25 19.222656 47.378906 20.117188 48.316406 21.246094 L 50.589844 19.453125 C 49.425781 18.003906 47.972656 16.851562 46.230469 15.996094 Z M 46.230469 15.996094 " fill-opacity="1" fill-rule="nonzero"/></g><g fill="#d4483b" fill-opacity="1"><g transform="translate(67.445881, 43.181437)"><g><path d="M 27.65625 -29.671875 C 26.570312 -26.523438 25.535156 -23.617188 24.546875 -20.953125 C 23.566406 -18.285156 22.601562 -15.753906 21.65625 -13.359375 C 20.71875 -10.960938 19.785156 -8.671875 18.859375 -6.484375 C 17.929688 -4.304688 16.984375 -2.144531 16.015625 0 L 12.109375 0 C 11.140625 -2.144531 10.191406 -4.304688 9.265625 -6.484375 C 8.335938 -8.671875 7.394531 -10.960938 6.4375 -13.359375 C 5.488281 -15.753906 4.515625 -18.285156 3.515625 -20.953125 C 2.515625 -23.617188 1.484375 -26.523438 0.421875 -29.671875 L 5.015625 -29.671875 C 6.554688 -25.160156 8.066406 -20.820312 9.546875 -16.65625 C 11.035156 -12.488281 12.5625 -8.578125 14.125 -4.921875 C 15.695312 -8.546875 17.222656 -12.445312 18.703125 -16.625 C 20.191406 -20.8125 21.691406 -25.160156 23.203125 -29.671875 Z M 27.65625 -29.671875 "/></g></g></g><g fill="#d4483b" fill-opacity="1"><g transform="translate(95.532006, 43.181437)"><g><path d="M 7.40625 0 L 3.421875 0 L 3.421875 -22.265625 L 7.40625 -22.265625 Z M 5.390625 -26.28125 C 4.679688 -26.28125 4.078125 -26.515625 3.578125 -26.984375 C 3.078125 -27.460938 2.828125 -28.101562 2.828125 -28.90625 C 2.828125 -29.695312 3.078125 -30.328125 3.578125 -30.796875 C 4.078125 -31.273438 4.679688 -31.515625 5.390625 -31.515625 C 6.109375 -31.515625 6.71875 -31.273438 7.21875 -30.796875 C 7.71875 -30.328125 7.96875 -29.695312 7.96875 -28.90625 C 7.96875 -28.101562 7.71875 -27.460938 7.21875 -26.984375 C 6.71875 -26.515625 6.109375 -26.28125 5.390625 -26.28125 Z M 5.390625 -26.28125 "/></g></g></g><g fill="#d4483b" fill-opacity="1"><g transform="translate(106.364, 43.181437)"><g><path d="M 8.609375 -2.875 C 10.234375 -2.875 11.4375 -3.085938 12.21875 -3.515625 C 13.007812 -3.941406 13.40625 -4.625 13.40625 -5.5625 C 13.40625 -6.53125 13.019531 -7.300781 12.25 -7.875 C 11.476562 -8.445312 10.207031 -9.085938 8.4375 -9.796875 C 7.582031 -10.140625 6.757812 -10.488281 5.96875 -10.84375 C 5.1875 -11.207031 4.507812 -11.628906 3.9375 -12.109375 C 3.363281 -12.597656 2.90625 -13.1875 2.5625 -13.875 C 2.226562 -14.5625 2.0625 -15.398438 2.0625 -16.390625 C 2.0625 -18.359375 2.785156 -19.921875 4.234375 -21.078125 C 5.691406 -22.234375 7.675781 -22.8125 10.1875 -22.8125 C 10.8125 -22.8125 11.4375 -22.773438 12.0625 -22.703125 C 12.695312 -22.640625 13.285156 -22.554688 13.828125 -22.453125 C 14.367188 -22.359375 14.847656 -22.253906 15.265625 -22.140625 C 15.679688 -22.023438 16 -21.921875 16.21875 -21.828125 L 15.5 -18.40625 C 15.070312 -18.632812 14.398438 -18.867188 13.484375 -19.109375 C 12.566406 -19.359375 11.46875 -19.484375 10.1875 -19.484375 C 9.070312 -19.484375 8.097656 -19.257812 7.265625 -18.8125 C 6.441406 -18.375 6.03125 -17.679688 6.03125 -16.734375 C 6.03125 -16.253906 6.125 -15.828125 6.3125 -15.453125 C 6.5 -15.085938 6.785156 -14.753906 7.171875 -14.453125 C 7.554688 -14.148438 8.035156 -13.867188 8.609375 -13.609375 C 9.179688 -13.359375 9.863281 -13.085938 10.65625 -12.796875 C 11.71875 -12.398438 12.660156 -12.007812 13.484375 -11.625 C 14.316406 -11.238281 15.023438 -10.785156 15.609375 -10.265625 C 16.191406 -9.753906 16.640625 -9.132812 16.953125 -8.40625 C 17.265625 -7.6875 17.421875 -6.796875 17.421875 -5.734375 C 17.421875 -3.679688 16.65625 -2.125 15.125 -1.0625 C 13.601562 -0.0078125 11.429688 0.515625 8.609375 0.515625 C 6.640625 0.515625 5.097656 0.347656 3.984375 0.015625 C 2.867188 -0.304688 2.113281 -0.554688 1.71875 -0.734375 L 2.4375 -4.15625 C 2.894531 -3.976562 3.625 -3.71875 4.625 -3.375 C 5.625 -3.039062 6.953125 -2.875 8.609375 -2.875 Z M 8.609375 -2.875 "/></g></g></g><g fill="#d4483b" fill-opacity="1"><g transform="translate(125.459136, 43.181437)"><g><path d="M 10.953125 -2.875 C 11.898438 -2.875 12.738281 -2.894531 13.46875 -2.9375 C 14.195312 -2.976562 14.800781 -3.054688 15.28125 -3.171875 L 15.28125 -9.796875 C 15 -9.941406 14.535156 -10.0625 13.890625 -10.15625 C 13.242188 -10.257812 12.46875 -10.3125 11.5625 -10.3125 C 10.957031 -10.3125 10.316406 -10.269531 9.640625 -10.1875 C 8.972656 -10.101562 8.363281 -9.925781 7.8125 -9.65625 C 7.257812 -9.382812 6.796875 -9.007812 6.421875 -8.53125 C 6.046875 -8.0625 5.859375 -7.441406 5.859375 -6.671875 C 5.859375 -5.242188 6.316406 -4.253906 7.234375 -3.703125 C 8.148438 -3.148438 9.390625 -2.875 10.953125 -2.875 Z M 10.625 -22.8125 C 12.21875 -22.8125 13.5625 -22.601562 14.65625 -22.1875 C 15.757812 -21.78125 16.644531 -21.195312 17.3125 -20.4375 C 17.988281 -19.6875 18.46875 -18.789062 18.75 -17.75 C 19.039062 -16.707031 19.1875 -15.554688 19.1875 -14.296875 L 19.1875 -0.390625 C 18.84375 -0.328125 18.363281 -0.242188 17.75 -0.140625 C 17.132812 -0.046875 16.441406 0.0390625 15.671875 0.125 C 14.898438 0.207031 14.0625 0.285156 13.15625 0.359375 C 12.257812 0.429688 11.367188 0.46875 10.484375 0.46875 C 9.234375 0.46875 8.078125 0.335938 7.015625 0.078125 C 5.960938 -0.171875 5.050781 -0.570312 4.28125 -1.125 C 3.507812 -1.6875 2.910156 -2.421875 2.484375 -3.328125 C 2.054688 -4.242188 1.84375 -5.347656 1.84375 -6.640625 C 1.84375 -7.867188 2.09375 -8.921875 2.59375 -9.796875 C 3.09375 -10.679688 3.769531 -11.394531 4.625 -11.9375 C 5.476562 -12.488281 6.472656 -12.890625 7.609375 -13.140625 C 8.753906 -13.398438 9.957031 -13.53125 11.21875 -13.53125 C 11.613281 -13.53125 12.023438 -13.507812 12.453125 -13.46875 C 12.878906 -13.425781 13.285156 -13.367188 13.671875 -13.296875 C 14.054688 -13.222656 14.390625 -13.15625 14.671875 -13.09375 C 14.960938 -13.039062 15.164062 -13 15.28125 -12.96875 L 15.28125 -14.078125 C 15.28125 -14.734375 15.207031 -15.382812 15.0625 -16.03125 C 14.925781 -16.675781 14.671875 -17.25 14.296875 -17.75 C 13.929688 -18.25 13.425781 -18.644531 12.78125 -18.9375 C 12.132812 -19.238281 11.300781 -19.390625 10.28125 -19.390625 C 8.96875 -19.390625 7.816406 -19.296875 6.828125 -19.109375 C 5.847656 -18.929688 5.113281 -18.738281 4.625 -18.53125 L 4.15625 -21.828125 C 4.664062 -22.054688 5.519531 -22.273438 6.71875 -22.484375 C 7.914062 -22.703125 9.21875 -22.8125 10.625 -22.8125 Z M 10.625 -22.8125 "/></g></g></g><g fill="#d4483b" fill-opacity="1"><g transform="translate(147.808156, 43.181437)"><g/></g></g><g fill="#d4483b" fill-opacity="1"><g transform="translate(157.69824, 43.181437)"><g><path d="M 16.4375 0.640625 C 14.351562 0.640625 12.453125 0.300781 10.734375 -0.375 C 9.023438 -1.0625 7.554688 -2.0625 6.328125 -3.375 C 5.109375 -4.695312 4.160156 -6.316406 3.484375 -8.234375 C 2.816406 -10.160156 2.484375 -12.367188 2.484375 -14.859375 C 2.484375 -17.335938 2.859375 -19.539062 3.609375 -21.46875 C 4.367188 -23.394531 5.390625 -25.015625 6.671875 -26.328125 C 7.960938 -27.640625 9.460938 -28.640625 11.171875 -29.328125 C 12.890625 -30.015625 14.71875 -30.359375 16.65625 -30.359375 C 17.882812 -30.359375 18.988281 -30.269531 19.96875 -30.09375 C 20.957031 -29.925781 21.8125 -29.726562 22.53125 -29.5 C 23.257812 -29.269531 23.851562 -29.039062 24.3125 -28.8125 C 24.769531 -28.582031 25.085938 -28.410156 25.265625 -28.296875 L 24.0625 -24.875 C 23.800781 -25.039062 23.425781 -25.222656 22.9375 -25.421875 C 22.457031 -25.628906 21.910156 -25.832031 21.296875 -26.03125 C 20.679688 -26.226562 20.007812 -26.390625 19.28125 -26.515625 C 18.5625 -26.648438 17.828125 -26.71875 17.078125 -26.71875 C 15.515625 -26.71875 14.101562 -26.445312 12.84375 -25.90625 C 11.582031 -25.363281 10.507812 -24.578125 9.625 -23.546875 C 8.75 -22.515625 8.070312 -21.265625 7.59375 -19.796875 C 7.125 -18.328125 6.890625 -16.679688 6.890625 -14.859375 C 6.890625 -13.085938 7.097656 -11.472656 7.515625 -10.015625 C 7.929688 -8.554688 8.550781 -7.304688 9.375 -6.265625 C 10.207031 -5.222656 11.242188 -4.414062 12.484375 -3.84375 C 13.722656 -3.28125 15.171875 -3 16.828125 -3 C 18.734375 -3 20.316406 -3.195312 21.578125 -3.59375 C 22.835938 -4 23.78125 -4.359375 24.40625 -4.671875 L 25.46875 -1.234375 C 25.269531 -1.097656 24.910156 -0.921875 24.390625 -0.703125 C 23.878906 -0.492188 23.238281 -0.285156 22.46875 -0.078125 C 21.707031 0.117188 20.8125 0.285156 19.78125 0.421875 C 18.75 0.566406 17.632812 0.640625 16.4375 0.640625 Z M 16.4375 0.640625 "/></g></g></g><g fill="#d4483b" fill-opacity="1"><g transform="translate(184.243052, 43.181437)"><g><path d="M 23.078125 -11.125 C 23.078125 -9.363281 22.816406 -7.769531 22.296875 -6.34375 C 21.785156 -4.914062 21.066406 -3.6875 20.140625 -2.65625 C 19.210938 -1.625 18.109375 -0.828125 16.828125 -0.265625 C 15.546875 0.285156 14.144531 0.5625 12.625 0.5625 C 11.113281 0.5625 9.710938 0.285156 8.421875 -0.265625 C 7.140625 -0.828125 6.035156 -1.625 5.109375 -2.65625 C 4.179688 -3.6875 3.460938 -4.914062 2.953125 -6.34375 C 2.441406 -7.769531 2.1875 -9.363281 2.1875 -11.125 C 2.1875 -12.875 2.441406 -14.46875 2.953125 -15.90625 C 3.460938 -17.34375 4.179688 -18.578125 5.109375 -19.609375 C 6.035156 -20.640625 7.140625 -21.429688 8.421875 -21.984375 C 9.710938 -22.535156 11.113281 -22.8125 12.625 -22.8125 C 14.144531 -22.8125 15.546875 -22.535156 16.828125 -21.984375 C 18.109375 -21.429688 19.210938 -20.640625 20.140625 -19.609375 C 21.066406 -18.578125 21.785156 -17.34375 22.296875 -15.90625 C 22.816406 -14.46875 23.078125 -12.875 23.078125 -11.125 Z M 18.921875 -11.125 C 18.921875 -13.644531 18.359375 -15.640625 17.234375 -17.109375 C 16.109375 -18.578125 14.570312 -19.3125 12.625 -19.3125 C 10.6875 -19.3125 9.15625 -18.578125 8.03125 -17.109375 C 6.90625 -15.640625 6.34375 -13.644531 6.34375 -11.125 C 6.34375 -8.613281 6.90625 -6.625 8.03125 -5.15625 C 9.15625 -3.6875 10.6875 -2.953125 12.625 -2.953125 C 14.570312 -2.953125 16.109375 -3.6875 17.234375 -5.15625 C 18.359375 -6.625 18.921875 -8.613281 18.921875 -11.125 Z M 18.921875 -11.125 "/></g></g></g><g fill="#d4483b" fill-opacity="1"><g transform="translate(209.503438, 43.181437)"><g><path d="M 3.421875 -21.625 C 4.335938 -21.851562 5.546875 -22.09375 7.046875 -22.34375 C 8.546875 -22.601562 10.28125 -22.734375 12.25 -22.734375 C 13.675781 -22.734375 14.875 -22.539062 15.84375 -22.15625 C 16.8125 -21.769531 17.625 -21.207031 18.28125 -20.46875 C 18.476562 -20.601562 18.789062 -20.800781 19.21875 -21.0625 C 19.644531 -21.320312 20.171875 -21.570312 20.796875 -21.8125 C 21.429688 -22.050781 22.132812 -22.265625 22.90625 -22.453125 C 23.675781 -22.640625 24.503906 -22.734375 25.390625 -22.734375 C 27.097656 -22.734375 28.492188 -22.484375 29.578125 -21.984375 C 30.660156 -21.484375 31.507812 -20.773438 32.125 -19.859375 C 32.738281 -18.953125 33.148438 -17.867188 33.359375 -16.609375 C 33.578125 -15.359375 33.6875 -13.988281 33.6875 -12.5 L 33.6875 0 L 29.71875 0 L 29.71875 -11.640625 C 29.71875 -12.953125 29.648438 -14.078125 29.515625 -15.015625 C 29.390625 -15.960938 29.144531 -16.75 28.78125 -17.375 C 28.425781 -18.007812 27.941406 -18.472656 27.328125 -18.765625 C 26.722656 -19.066406 25.929688 -19.21875 24.953125 -19.21875 C 23.617188 -19.21875 22.515625 -19.039062 21.640625 -18.6875 C 20.773438 -18.332031 20.179688 -18.007812 19.859375 -17.71875 C 20.085938 -16.976562 20.257812 -16.164062 20.375 -15.28125 C 20.488281 -14.394531 20.546875 -13.46875 20.546875 -12.5 L 20.546875 0 L 16.5625 0 L 16.5625 -11.640625 C 16.5625 -12.953125 16.488281 -14.078125 16.34375 -15.015625 C 16.207031 -15.960938 15.957031 -16.75 15.59375 -17.375 C 15.238281 -18.007812 14.753906 -18.472656 14.140625 -18.765625 C 13.535156 -19.066406 12.757812 -19.21875 11.8125 -19.21875 C 11.414062 -19.21875 10.988281 -19.203125 10.53125 -19.171875 C 10.070312 -19.148438 9.632812 -19.117188 9.21875 -19.078125 C 8.8125 -19.035156 8.4375 -18.984375 8.09375 -18.921875 C 7.75 -18.867188 7.519531 -18.828125 7.40625 -18.796875 L 7.40625 0 L 3.421875 0 Z M 3.421875 -21.625 "/></g></g></g><g fill="#d4483b" fill-opacity="1"><g transform="translate(246.366479, 43.181437)"><g><path d="M 3.421875 -21.625 C 4.335938 -21.851562 5.546875 -22.09375 7.046875 -22.34375 C 8.546875 -22.601562 10.28125 -22.734375 12.25 -22.734375 C 13.675781 -22.734375 14.875 -22.539062 15.84375 -22.15625 C 16.8125 -21.769531 17.625 -21.207031 18.28125 -20.46875 C 18.476562 -20.601562 18.789062 -20.800781 19.21875 -21.0625 C 19.644531 -21.320312 20.171875 -21.570312 20.796875 -21.8125 C 21.429688 -22.050781 22.132812 -22.265625 22.90625 -22.453125 C 23.675781 -22.640625 24.503906 -22.734375 25.390625 -22.734375 C 27.097656 -22.734375 28.492188 -22.484375 29.578125 -21.984375 C 30.660156 -21.484375 31.507812 -20.773438 32.125 -19.859375 C 32.738281 -18.953125 33.148438 -17.867188 33.359375 -16.609375 C 33.578125 -15.359375 33.6875 -13.988281 33.6875 -12.5 L 33.6875 0 L 29.71875 0 L 29.71875 -11.640625 C 29.71875 -12.953125 29.648438 -14.078125 29.515625 -15.015625 C 29.390625 -15.960938 29.144531 -16.75 28.78125 -17.375 C 28.425781 -18.007812 27.941406 -18.472656 27.328125 -18.765625 C 26.722656 -19.066406 25.929688 -19.21875 24.953125 -19.21875 C 23.617188 -19.21875 22.515625 -19.039062 21.640625 -18.6875 C 20.773438 -18.332031 20.179688 -18.007812 19.859375 -17.71875 C 20.085938 -16.976562 20.257812 -16.164062 20.375 -15.28125 C 20.488281 -14.394531 20.546875 -13.46875 20.546875 -12.5 L 20.546875 0 L 16.5625 0 L 16.5625 -11.640625 C 16.5625 -12.953125 16.488281 -14.078125 16.34375 -15.015625 C 16.207031 -15.960938 15.957031 -16.75 15.59375 -17.375 C 15.238281 -18.007812 14.753906 -18.472656 14.140625 -18.765625 C 13.535156 -19.066406 12.757812 -19.21875 11.8125 -19.21875 C 11.414062 -19.21875 10.988281 -19.203125 10.53125 -19.171875 C 10.070312 -19.148438 9.632812 -19.117188 9.21875 -19.078125 C 8.8125 -19.035156 8.4375 -18.984375 8.09375 -18.921875 C 7.75 -18.867188 7.519531 -18.828125 7.40625 -18.796875 L 7.40625 0 L 3.421875 0 Z M 3.421875 -21.625 "/></g></g></g><g fill="#d4483b" fill-opacity="1"><g transform="translate(283.229504, 43.181437)"><g><path d="M 7.40625 0 L 3.421875 0 L 3.421875 -22.265625 L 7.40625 -22.265625 Z M 5.390625 -26.28125 C 4.679688 -26.28125 4.078125 -26.515625 3.578125 -26.984375 C 3.078125 -27.460938 2.828125 -28.101562 2.828125 -28.90625 C 2.828125 -29.695312 3.078125 -30.328125 3.578125 -30.796875 C 4.078125 -31.273438 4.679688 -31.515625 5.390625 -31.515625 C 6.109375 -31.515625 6.71875 -31.273438 7.21875 -30.796875 C 7.71875 -30.328125 7.96875 -29.695312 7.96875 -28.90625 C 7.96875 -28.101562 7.71875 -27.460938 7.21875 -26.984375 C 6.71875 -26.515625 6.109375 -26.28125 5.390625 -26.28125 Z M 5.390625 -26.28125 "/></g></g></g><g fill="#d4483b" fill-opacity="1"><g transform="translate(294.061498, 43.181437)"><g><path d="M 7.15625 -22.265625 L 15.578125 -22.265625 L 15.578125 -18.921875 L 7.15625 -18.921875 L 7.15625 -8.640625 C 7.15625 -7.535156 7.238281 -6.617188 7.40625 -5.890625 C 7.570312 -5.160156 7.828125 -4.585938 8.171875 -4.171875 C 8.515625 -3.753906 8.941406 -3.460938 9.453125 -3.296875 C 9.972656 -3.128906 10.578125 -3.046875 11.265625 -3.046875 C 12.460938 -3.046875 13.421875 -3.179688 14.140625 -3.453125 C 14.867188 -3.722656 15.378906 -3.914062 15.671875 -4.03125 L 16.4375 -0.734375 C 16.039062 -0.523438 15.34375 -0.273438 14.34375 0.015625 C 13.34375 0.316406 12.203125 0.46875 10.921875 0.46875 C 9.398438 0.46875 8.144531 0.273438 7.15625 -0.109375 C 6.175781 -0.492188 5.382812 -1.070312 4.78125 -1.84375 C 4.1875 -2.613281 3.769531 -3.5625 3.53125 -4.6875 C 3.289062 -5.8125 3.171875 -7.117188 3.171875 -8.609375 L 3.171875 -28.46875 L 7.15625 -29.15625 Z M 7.15625 -22.265625 "/></g></g></g></svg>