<svg width="131" height="167" viewBox="0 0 131 167" fill="none" xmlns="http://www.w3.org/2000/svg">
<path d="M100.212 0.430282C99.2219 0.713167 78.2884 5.73437 53.7481 11.675C24.4695 18.8178 8.41583 22.8489 7.14284 23.4147C4.59688 24.6169 2.3338 26.88 1.06082 29.5674L0 31.7598V94.6309V157.502L0.919376 159.412C2.3338 162.382 4.24327 164.221 7.14284 165.706L9.68881 166.979H65.1343H120.58L122.843 165.918C125.672 164.574 128.076 162.24 129.349 159.553L130.339 157.502L130.41 95.3381C130.481 26.2435 130.622 31.3354 128.218 27.6579C125.884 24.1219 122.206 22.2124 117.114 21.9295L114.003 21.7174L113.932 14.4331C113.861 7.29024 113.861 7.1488 112.942 5.45149C110.608 0.925331 105.94 -0.913421 100.212 0.430282ZM120.085 27.4458C122.136 28.153 123.621 29.426 124.611 31.2647L125.53 32.8913V94.4188C125.53 145.267 125.459 156.158 125.106 157.078C124.399 158.846 122.843 160.402 121.004 161.25L119.307 162.028H65.205H11.1032L9.40592 161.25C7.56717 160.402 6.01131 158.846 5.30409 157.078C4.95049 156.158 4.87976 145.338 4.87976 94.4188V32.8913L5.79914 31.2647C6.78924 29.426 8.27438 28.153 10.1839 27.4458C12.1641 26.7386 118.104 26.6678 120.085 27.4458Z" fill="#D4483B"/>
<path d="M56.9297 37.3438C48.726 39.1119 41.8661 42.7894 35.8548 48.8007C27.439 57.2165 23.4079 67.6832 23.8322 79.6351C24.5394 98.9419 37.9764 114.571 57.2833 118.744C60.9608 119.522 69.4473 119.522 73.1248 118.744C81.3992 116.976 87.9763 113.51 93.8461 107.853C101.767 100.286 106.081 90.6676 106.505 79.6351C106.93 67.6832 102.898 57.2165 94.4826 48.8007C88.4713 42.7894 81.6114 39.0411 73.2663 37.3438C68.8108 36.4245 61.3144 36.4245 56.9297 37.3438ZM68.3865 42.365C71.569 43.7795 74.8929 48.0227 77.1559 53.1146C78.4996 56.2264 78.5703 56.8629 77.5803 56.8629C77.1559 56.8629 74.2564 57.0043 71.1446 57.2165C65.1333 57.6408 52.8986 57.1457 52.2621 56.5093C51.9085 56.1556 53.6765 51.7002 55.3031 49.0128C57.0004 46.184 59.5464 43.4966 61.5266 42.5772C63.7189 41.5164 66.4063 41.4457 68.3865 42.365ZM52.7571 43.9209C52.7571 43.9916 52.4035 44.6281 51.9792 45.1939C50.9184 46.6083 48.726 51.0637 47.7359 53.7511C47.3116 54.9534 46.8166 55.8728 46.6044 55.8728C45.8265 55.8728 39.108 54.1755 38.6129 53.8218C37.4814 53.1146 45.19 47.0326 50.1405 44.7695C52.2621 43.7795 52.7571 43.638 52.7571 43.9209ZM80.1969 44.6988C83.3087 46.1132 87.5519 49.0128 90.1686 51.4173C91.9366 53.1146 92.2903 53.539 91.8659 53.8218C91.3709 54.1755 84.6524 55.8728 83.8744 55.8728C83.6623 55.8728 83.1672 54.9534 82.7429 53.7511C81.8235 51.2759 79.7726 47.1033 78.5704 45.3353C77.2267 43.3551 77.2267 43.3551 80.1969 44.6988ZM38.5422 59.0552C40.0981 59.4795 42.2904 60.0453 43.4219 60.2575C45.4021 60.6818 45.4021 60.6818 45.2607 61.6719C44.6949 65.4908 43.9877 71.1485 43.8463 73.058L43.6341 75.3211H36.1377H28.712L28.9241 73.4116C29.4899 69.0269 31.2579 63.6521 33.3795 59.9039C34.2282 58.4894 34.794 57.853 35.0769 57.9944C35.4305 58.2066 36.9863 58.6309 38.5422 59.0552ZM96.8871 59.9746C99.0795 63.8643 100.848 69.0976 101.413 73.4823L101.625 75.3918H94.2704H86.8447L86.6326 73.1287C86.4911 71.2192 85.7839 65.5616 85.2181 61.7426L85.0767 60.6818L87.8348 60.116C89.32 59.7624 91.6538 59.1967 92.9975 58.7016C94.3412 58.2773 95.5434 57.9237 95.6141 57.9237C95.6141 57.9237 96.2506 58.8431 96.8871 59.9746ZM65.2041 62.0962C69.9424 62.0962 75.1757 61.9548 76.873 61.8133L79.9141 61.5305L80.3384 63.2985C80.8334 65.4201 81.6821 72.3508 81.6821 74.0481V75.3211H65.1333H48.5846L48.7968 72.3508C49.0089 69.2391 49.504 66.1273 50.0697 63.2278L50.4233 61.4597L53.4644 61.7426C55.2324 61.9548 60.4657 62.0962 65.2041 62.0962ZM43.7756 82.7468C44.1999 87.1315 44.6949 91.1626 45.1193 93.2135L45.5436 95.3352L43.6341 95.6888C42.5733 95.9009 40.1688 96.5374 38.1886 97.1032C34.016 98.3054 34.5818 98.5883 32.248 93.7793C30.7629 90.5968 29.3484 86 28.9241 82.4639L28.712 80.5544H36.1377H43.5634L43.7756 82.7468ZM81.6114 83.5954C81.3992 86.9901 80.4798 92.6477 80.0555 93.85C79.7726 94.4865 79.6312 94.5572 77.9339 94.2743C74.1149 93.7086 61.8802 93.5671 56.2932 93.9914C53.2522 94.2036 50.6355 94.3451 50.5648 94.2036C50.2112 93.9207 49.1504 86.9193 48.8675 83.5954L48.6553 80.4837H65.2748H81.8942L81.6114 83.5954ZM101.413 82.3932C100.989 85.9292 99.6452 90.4554 98.0894 93.7086C95.7556 98.5176 96.2506 98.2347 92.1488 97.0325C90.1686 96.4667 87.7641 95.8302 86.7033 95.618L84.7938 95.2644L85.2181 93.1428C85.6425 91.0919 86.1375 87.1315 86.5618 82.6761L86.774 80.413H94.2704H101.696L101.413 82.3932ZM75.3879 99.0127C76.8023 99.1541 78.146 99.3663 78.2167 99.5077C78.4996 99.7906 76.8023 103.963 75.3879 106.438C73.6906 109.338 70.791 112.379 68.8816 113.369C66.5478 114.571 65.2041 114.713 62.941 114.076C59.3342 113.015 54.8788 107.641 52.6864 101.7C52.2621 100.639 52.0499 99.6491 52.1914 99.5784C52.8279 98.8005 70.1545 98.4469 75.3879 99.0127ZM48.1603 103.397C48.8675 105.236 50.2112 107.924 51.0598 109.338C51.9792 110.752 52.6157 112.025 52.545 112.096C52.3328 112.308 46.7458 109.479 44.6949 108.065C42.5733 106.651 38.2593 102.832 38.2593 102.337C38.2593 102.054 42.5733 100.851 46.6751 100.003C46.7458 100.073 47.3823 101.559 48.1603 103.397ZM88.7542 101.205C90.5222 101.629 92.0074 102.054 92.1488 102.195C92.4317 102.478 88.1884 106.438 85.7839 108.065C83.6623 109.479 78.0753 112.308 77.8631 112.096C77.7924 112.025 78.4289 110.752 79.2776 109.338C80.1969 107.924 81.4699 105.236 82.1771 103.397C83.733 99.5784 83.0258 99.7906 88.7542 101.205Z" fill="#D4483B"/>
<path d="M73.6937 130.35C70.6527 131.411 69.2383 133.249 69.2383 136.149C69.2383 139.261 70.582 140.604 75.391 142.585C77.937 143.645 78.7856 144.635 78.432 145.979C77.937 147.818 75.1788 148.313 71.6428 147.252L69.6626 146.616L69.2383 148.454C68.7432 150.505 68.8139 150.576 70.9356 151.213C72.4207 151.637 76.8054 151.637 78.3613 151.213C80.2 150.718 81.7559 149.515 82.6753 148.03C83.3118 146.969 83.3825 146.333 83.3118 144.777C83.1703 141.948 82.1802 140.887 77.7248 138.695C74.3302 137.068 74.118 136.856 74.0473 135.795C73.9059 134.169 75.0374 133.532 77.937 133.744C79.2099 133.815 80.5537 134.027 80.9073 134.169C81.5438 134.31 81.6852 134.169 82.0388 132.684C82.3217 131.623 82.3924 130.845 82.1802 130.633C81.7559 130.208 78.6442 129.643 76.8761 129.643C76.0982 129.713 74.6838 129.996 73.6937 130.35Z" fill="#D4483B"/>
<path d="M93.2097 130.276C90.1687 131.407 88.7542 133.175 88.7542 136.075C88.7542 139.045 90.1687 140.601 94.907 142.581C97.4529 143.642 98.3723 144.703 98.0187 145.976C97.5237 147.744 94.4119 148.309 91.1588 147.178C89.8858 146.754 89.32 146.683 89.2493 146.966C89.0371 147.673 88.4006 150.007 88.4006 150.219C88.4006 151.138 95.1899 151.916 97.6651 151.209C99.2917 150.785 101.06 149.653 101.979 148.38C102.757 147.249 103.111 144.561 102.616 143.005C102.05 141.308 100.989 140.389 97.0993 138.55C93.9169 136.994 93.634 136.782 93.5633 135.792C93.4218 134.165 94.5534 133.529 97.4529 133.741C98.7259 133.812 100.07 134.024 100.423 134.165C101.06 134.377 101.13 134.165 101.625 132.539L102.121 130.7L101.06 130.346C99.0795 129.639 95.1899 129.639 93.2097 130.276Z" fill="#D4483B"/>
<path d="M28.0783 130.268C27.5125 130.409 27.4418 131.187 27.4418 141.017V151.626L29.7049 151.555L31.9679 151.484L32.0387 147.665L32.1094 143.917H33.8774C39.0401 143.917 42.4347 141.088 42.5054 136.774C42.5054 134.723 42.0811 133.592 40.7374 132.177C39.2522 130.621 37.1306 130.056 32.463 130.126C30.4121 130.056 28.3612 130.126 28.0783 130.268ZM36.0698 133.875C37.4135 134.44 37.9085 135.289 37.9085 136.774C37.9085 138.896 36.4234 140.169 33.6652 140.169H32.1801V137.057C32.1801 135.289 32.2508 133.804 32.3923 133.662C32.8166 133.238 34.8675 133.309 36.0698 133.875Z" fill="#D4483B"/>
<path d="M50.0692 134.305C47.0989 143.852 44.9773 150.853 44.9773 151.207C44.9773 151.419 45.8967 151.561 47.3111 151.561H49.6449L50.2107 149.58C51.3422 145.549 50.9179 145.974 54.3832 145.903C56.717 145.832 57.495 145.903 57.6364 146.257C57.7071 146.469 58.1314 147.812 58.4851 149.156L59.1923 151.561H61.7382C64.0013 151.561 64.2842 151.49 64.072 150.924C64.0013 150.641 62.5162 145.762 60.7481 140.175L57.5657 129.991H54.4539H51.3422L50.0692 134.305ZM55.444 137.629C56.0098 139.68 56.5756 141.589 56.6463 141.872C56.7877 142.438 56.5756 142.508 54.4539 142.508C52.1201 142.508 52.0494 142.508 52.2616 141.73C52.3323 141.306 52.8981 139.397 53.3931 137.416C53.8882 135.436 54.3832 133.88 54.3832 133.88C54.3832 133.88 54.8783 135.578 55.444 137.629Z" fill="#D4483B"/>
</svg>
