<svg width="17" height="15" viewBox="0 0 17 15" fill="none" xmlns="http://www.w3.org/2000/svg">
<path d="M5.85184 0.387695C5.12434 0.387695 4.52737 0.982624 4.52737 1.71011C4.52737 2.43761 5.12434 3.03201 5.85184 3.03201C6.57933 3.03201 7.17424 2.43761 7.17424 1.71011C7.17424 0.982624 6.57933 0.387695 5.85184 0.387695ZM11.1435 0.387695C10.416 0.387695 9.81905 0.982624 9.81905 1.71011C9.81905 2.43761 10.416 3.03201 11.1435 3.03201C11.871 3.03201 12.4659 2.43761 12.4659 1.71011C12.4659 0.982624 11.871 0.387695 11.1435 0.387695ZM5.85184 0.914795C6.29335 0.914795 6.64455 1.2686 6.64455 1.71011C6.64455 2.15162 6.29335 2.50284 5.85184 2.50284C5.41033 2.50284 5.05705 2.15162 5.05705 1.71011C5.05705 1.2686 5.41033 0.914795 5.85184 0.914795ZM11.1435 0.914795C11.585 0.914795 11.9362 1.2686 11.9362 1.71011C11.9362 2.15162 11.585 2.50284 11.1435 2.50284C10.702 2.50284 10.3487 2.15162 10.3487 1.71011C10.3487 1.2686 10.702 0.914795 11.1435 0.914795ZM3.17603 2.68524C2.44854 2.68524 1.85157 3.28017 1.85156 4.00766C1.85156 4.73516 2.44854 5.32953 3.17603 5.32953C3.90352 5.32953 4.49843 4.73516 4.49843 4.00766C4.49843 3.28017 3.90352 2.68524 3.17603 2.68524ZM13.7594 2.68524C13.0319 2.68524 12.4349 3.28017 12.4349 4.00766C12.4349 4.73516 13.0319 5.32953 13.7594 5.32953C14.4869 5.32953 15.0818 4.73516 15.0818 4.00766C15.0818 3.28017 14.4869 2.68524 13.7594 2.68524ZM3.17603 3.21234C3.61754 3.21234 3.96875 3.56615 3.96875 4.00766C3.96875 4.44917 3.61754 4.80035 3.17603 4.80035C2.73452 4.80035 2.38125 4.44917 2.38125 4.00766C2.38125 3.56615 2.73452 3.21234 3.17603 3.21234ZM13.7594 3.21234C14.2009 3.21234 14.5521 3.56615 14.5521 4.00766C14.5521 4.44917 14.2009 4.80035 13.7594 4.80035C13.3179 4.80035 12.9646 4.44917 12.9646 4.00766C12.9646 3.56615 13.3179 3.21234 13.7594 3.21234ZM5.82083 3.56168C5.55147 3.56168 5.29588 3.61679 5.05757 3.71414C4.89485 3.79554 4.88787 3.94881 4.96097 4.07535C5.03407 4.20189 5.18273 4.2378 5.32787 4.18231C5.48595 4.12511 5.65083 4.09082 5.82086 4.09082C6.45086 4.09082 7.02499 4.50389 7.36185 5.14966C7.43495 5.27618 7.59653 5.3194 7.72307 5.24628C7.84961 5.17318 7.88759 5.0147 7.81457 4.88815C7.39633 4.09717 6.67467 3.56168 5.82083 3.56168ZM11.1125 3.56168C10.2587 3.56168 9.53705 4.09723 9.11882 4.88821C9.04572 5.01476 9.08372 5.17324 9.21032 5.24634C9.33686 5.31944 9.49846 5.27622 9.57154 5.14972C9.9084 4.50395 10.4825 4.09088 11.1125 4.09088C11.2939 4.09088 11.469 4.12936 11.6365 4.19421C11.7631 4.26731 11.9293 4.21533 12.0024 4.08881C12.0755 3.96226 12.0323 3.8007 11.9058 3.7276C11.659 3.62218 11.3933 3.56168 11.1125 3.56168ZM8.4677 5.67886C7.7402 5.67886 7.14323 6.27379 7.14323 7.00128C7.14323 7.72877 7.7402 8.32315 8.4677 8.32315C9.19519 8.32315 9.7901 7.72877 9.7901 7.00128C9.7901 6.27379 9.19519 5.67886 8.4677 5.67886ZM3.175 5.85922C1.82486 5.85922 0.793755 7.19022 0.793755 8.76962V9.34842C0.793755 9.41859 0.821631 9.48587 0.871249 9.53549C0.920867 9.58511 0.988164 9.61298 1.05833 9.61298C1.12851 9.61298 1.1958 9.58511 1.24542 9.53549C1.29504 9.48587 1.32291 9.41859 1.32291 9.34842V8.76962C1.32291 7.41743 2.17987 6.38837 3.175 6.38837C4.17013 6.38837 5.02708 7.41743 5.02708 8.76962V11.0227H4.4974V8.46732C4.5054 8.10654 3.96012 8.10654 3.96823 8.46732V11.0227H2.38125V8.46732C2.38925 8.10654 1.84398 8.10654 1.85208 8.46732V11.0227H1.32291V10.4067C1.32291 10.3366 1.29504 10.2693 1.24542 10.2197C1.1958 10.17 1.12851 10.1422 1.05833 10.1422C0.988164 10.1422 0.920867 10.17 0.871249 10.2197C0.821631 10.2693 0.793755 10.3366 0.793755 10.4067V11.2873C0.793765 11.4334 0.912215 11.5519 1.05833 11.5519H5.29166C5.43778 11.5519 5.55623 11.4334 5.55625 11.2873V9.25436H6.61407C6.76019 9.25436 6.87865 9.13591 6.87865 8.98978C6.87865 8.84366 6.76019 8.72519 6.61407 8.72519H5.5547C5.5354 7.16552 4.51234 5.85922 3.175 5.85922ZM13.7583 5.85922C12.421 5.85922 11.3979 7.16552 11.3786 8.72519H10.3188C10.1726 8.72519 10.0542 8.84366 10.0542 8.98978C10.0542 9.13591 10.1726 9.25436 10.3188 9.25436H11.3771V11.2873C11.3771 11.4334 11.4956 11.5519 11.6417 11.5519H15.875C16.0211 11.5519 16.1396 11.4334 16.1396 11.2873V8.76962C16.1396 7.19022 15.1085 5.85922 13.7583 5.85922ZM8.4677 6.20596C8.90921 6.20596 9.26042 6.55977 9.26042 7.00128C9.26042 7.44279 8.90921 7.79398 8.4677 7.79398C8.02619 7.79398 7.67291 7.44279 7.67291 7.00128C7.67291 6.55977 8.02619 6.20596 8.4677 6.20596ZM13.7583 6.38837C14.7535 6.38837 15.6104 7.41743 15.6104 8.76962V11.0227H15.0807V8.46732C15.0887 8.10654 14.5435 8.10654 14.5516 8.46732V11.0227H12.9646V8.46732C12.9726 8.10654 12.4273 8.10654 12.4354 8.46732V11.0227H11.9063V8.76962C11.9063 7.41743 12.7632 6.38837 13.7583 6.38837ZM8.46666 8.85281C7.11653 8.85281 6.08541 10.1838 6.08541 11.7632V14.2809C6.08543 14.427 6.20388 14.5455 6.35 14.5455H10.5833C10.7295 14.5455 10.8479 14.427 10.8479 14.2809V11.7632C10.8479 10.1838 9.8168 8.85281 8.46666 8.85281ZM8.46666 9.38199C9.46179 9.38199 10.3188 10.4111 10.3188 11.7632V14.0163H9.78907V11.4609C9.79707 11.1002 9.25179 11.1002 9.2599 11.4609V14.0163H7.67291V11.4609C7.68091 11.1002 7.13565 11.1002 7.14375 11.4609V14.0163H6.61458V11.7632C6.61458 10.4111 7.47153 9.38199 8.46666 9.38199Z" fill="black"/>
</svg>
