<svg width="136" height="136" viewBox="0 0 136 136" fill="none" xmlns="http://www.w3.org/2000/svg">
<g clip-path="url(#clip0_268_29)">
<path d="M0 121.661C0 129.581 6.44708 136 14.3392 136H121.661C129.581 136 136 129.553 136 121.661V14.3392C136 6.41929 129.553 0 121.661 0H14.3392C6.41929 0 0 6.44708 0 14.3392V121.661ZM121.661 129.192H14.3392C10.1986 129.192 6.80834 125.801 6.80834 121.661V103.737L32.5967 77.9485L54.6334 99.9853C55.9673 101.319 58.1071 101.319 59.4409 99.9853L99.235 60.1913L129.192 90.1479V121.661C129.192 125.801 125.801 129.192 121.661 129.192ZM14.3392 6.80834H121.661C125.801 6.80834 129.192 10.1986 129.192 14.3392V80.5051L101.625 52.9661C100.291 51.6322 98.1512 51.6322 96.8173 52.9661L57.0233 92.7601L34.9865 70.7233C33.6526 69.3895 31.5129 69.3895 30.179 70.7233L6.80834 94.094V14.3392C6.80834 10.1986 10.1986 6.80834 14.3392 6.80834Z" fill="#D4483B"/>
<path d="M42.1561 54.4944C51.7156 54.4944 59.4688 46.7134 59.4688 37.1818C59.4688 27.6501 51.6878 19.8691 42.1561 19.8691C32.6245 19.8691 24.8435 27.6501 24.8435 37.1818C24.8435 46.7134 32.5967 54.4944 42.1561 54.4944ZM42.1561 26.6775C47.9641 26.6775 52.6604 31.4016 52.6604 37.1818C52.6604 42.9619 47.9363 47.6861 42.1561 47.6861C36.376 47.6861 31.6518 42.9619 31.6518 37.1818C31.6518 31.4016 36.3482 26.6775 42.1561 26.6775Z" fill="#D4483B"/>
</g>
<defs>
<clipPath id="clip0_268_29">
<rect width="136" height="136" fill="white"/>
</clipPath>
</defs>
</svg>
