<svg width="429" height="133" viewBox="0 0 429 133" fill="none" xmlns="http://www.w3.org/2000/svg">
<mask id="mask0_170_259" style="mask-type:luminance" maskUnits="userSpaceOnUse" x="0" y="11" width="363" height="122">
<path d="M0.333313 11.3333H363V132.021H0.333313V11.3333Z" fill="white"/>
</mask>
<g mask="url(#mask0_170_259)">
<path d="M121.375 132.141C119.755 132.141 118.073 132.141 116.396 132.021C114.656 131.964 112.854 131.844 111.115 131.724C107.818 131.484 105.359 128.542 105.599 125.24C105.839 121.943 108.719 119.484 112.078 119.724C113.698 119.844 115.255 119.964 116.875 120.021C118.375 120.083 119.812 120.141 121.312 120.083C123.891 120.083 126.474 119.964 129.052 119.781C132.349 119.542 135.229 122 135.526 125.302C135.828 128.604 133.37 131.484 130.01 131.781C127.193 132.021 124.25 132.141 121.375 132.141ZM76.3281 125.063C75.7917 125.063 75.3073 125 74.7708 124.88C69.5521 123.5 64.3958 122 59.2344 120.563L57.3177 120.021C54.1354 119.12 52.276 115.76 53.2396 112.583C54.1354 109.401 57.4948 107.604 60.6771 108.5L62.5365 109.042C67.6302 110.484 72.7292 111.984 77.8281 113.302C81.0052 114.141 82.9271 117.443 82.0885 120.62C81.3698 123.26 78.9687 125.063 76.3281 125.063ZM163.776 121.521C161.74 121.521 159.76 120.5 158.62 118.583C156.943 115.76 157.839 112.042 160.719 110.359C162.818 109.104 164.859 107.724 166.719 106.224C168.995 104.422 171.156 102.38 173.312 100.104C175.594 97.7031 179.375 97.5833 181.771 99.8594C184.172 102.141 184.292 105.922 182.01 108.323C179.432 111.083 176.854 113.422 174.156 115.641C171.875 117.443 169.417 119.12 166.839 120.682C165.875 121.224 164.797 121.521 163.776 121.521ZM24.3854 110.24C23.849 110.24 23.3073 110.182 22.7083 110L5.43228 105.021C2.2552 104.12 0.395826 100.76 1.35416 97.5833C2.2552 94.401 5.61458 92.5417 8.79166 93.5L26.0677 98.4844C29.2448 99.3802 31.1042 102.74 30.2031 105.922C29.4271 108.563 27.026 110.24 24.3854 110.24ZM198.568 80.9635C197.427 80.9635 196.286 80.6615 195.266 80C192.51 78.2031 191.729 74.4844 193.526 71.724C195.687 68.4844 198.505 64.1615 201.682 60.0208C202.583 58.8802 203.484 57.7396 204.443 56.6042C206.542 54.0833 210.323 53.724 212.901 55.8229C215.422 57.9219 215.781 61.7031 213.682 64.2813C212.839 65.3021 212.062 66.3229 211.281 67.3438C208.344 71.1823 205.646 75.2604 203.604 78.3229C202.464 80 200.547 80.9635 198.568 80.9635ZM236.172 42.8594C234.193 42.8594 232.214 41.8438 231.073 40.0417C229.333 37.224 230.177 33.5 232.995 31.7604C238.271 28.4635 243.911 25.5208 249.667 22.9427C252.724 21.6198 256.266 23 257.583 26.0625C258.906 29.1198 257.526 32.6042 254.464 33.9844C249.187 36.2604 244.151 38.9635 239.349 41.9635C238.333 42.5625 237.25 42.8594 236.172 42.8594ZM356.49 36.4427C355.531 36.4427 354.63 36.2031 353.729 35.7813C348.75 33.2031 343.474 30.9844 338.078 29.1823C334.896 28.1615 333.219 24.7396 334.24 21.6198C335.255 18.5 338.677 16.7604 341.797 17.7813C347.854 19.7604 353.729 22.224 359.307 25.1615C362.25 26.724 363.385 30.3229 361.828 33.2604C360.75 35.3021 358.651 36.4427 356.49 36.4427ZM286.615 24.8594C283.677 24.8594 281.099 22.6406 280.677 19.6406C280.255 16.3437 282.536 13.3437 285.833 12.9219C291.594 12.1406 297.469 11.7812 303.286 11.7812H304.667C307.969 11.8437 310.604 14.5417 310.604 17.8438C310.547 21.1406 307.906 23.7813 304.609 23.7813H304.547H303.349C298.073 23.7813 292.734 24.1406 287.516 24.8021C287.156 24.8594 286.854 24.8594 286.615 24.8594Z" fill="#E9B826"/>
</g>
<path d="M374.245 70.2813C371.844 70.2813 369.625 68.8438 368.667 66.5C367.406 63.4427 368.906 59.9635 371.964 58.7031L411.49 42.7396L376.161 11.3594C373.703 9.14063 373.464 5.35938 375.682 2.90105C377.901 0.442714 381.682 0.203131 384.141 2.42188L426.724 40.224C428.286 41.6042 429.005 43.7031 428.646 45.7396C428.286 47.7813 426.906 49.5208 424.984 50.3021L376.464 69.8594C375.745 70.1615 374.964 70.2813 374.245 70.2813Z" fill="#E9B826"/>
</svg>
