<svg width="521" height="919" viewBox="0 0 521 919" fill="none" xmlns="http://www.w3.org/2000/svg">
<mask id="mask0_248_2" style="mask-type:luminance" maskUnits="userSpaceOnUse" x="80" y="9" width="441" height="910">
<path d="M80.4844 9.521H520.375V918.334H80.4844V9.521Z" fill="white"/>
</mask>
<g mask="url(#mask0_248_2)">
<mask id="mask1_248_2" style="mask-type:luminance" maskUnits="userSpaceOnUse" x="80" y="9" width="441" height="909">
<path d="M128.484 9.521H472.375C485.109 9.521 497.318 14.5783 506.318 23.5783C515.318 32.5783 520.375 44.7866 520.375 57.521V869.896C520.375 882.625 515.318 894.834 506.318 903.839C497.318 912.839 485.109 917.896 472.375 917.896H128.484C115.755 917.896 103.542 912.839 94.5417 903.839C85.5417 894.834 80.4844 882.625 80.4844 869.896V57.521C80.4844 44.7866 85.5417 32.5783 94.5417 23.5783C103.542 14.5783 115.755 9.521 128.484 9.521Z" fill="white"/>
</mask>
<g mask="url(#mask1_248_2)">
<path d="M80.4844 9.521H520.375V918.516H80.4844V9.521Z" fill="#D4483B"/>
</g>
</g>
<mask id="mask2_248_2" style="mask-type:luminance" maskUnits="userSpaceOnUse" x="129" y="842" width="343" height="34">
<path d="M129.505 842.688H471.318V875.536H129.505V842.688Z" fill="white"/>
</mask>
<g mask="url(#mask2_248_2)">
<mask id="mask3_248_2" style="mask-type:luminance" maskUnits="userSpaceOnUse" x="129" y="842" width="343" height="34">
<path d="M145.927 842.688H454.932C464.005 842.688 471.359 850.042 471.359 859.115C471.359 868.182 464.005 875.536 454.932 875.536H145.927C136.854 875.536 129.505 868.182 129.505 859.115C129.505 850.042 136.854 842.688 145.927 842.688Z" fill="white"/>
</mask>
<g mask="url(#mask3_248_2)">
<path d="M129.505 842.688V875.536H471.318V842.688H129.505Z" fill="url(#paint0_linear_248_2)"/>
</g>
</g>
<mask id="mask4_248_2" style="mask-type:luminance" maskUnits="userSpaceOnUse" x="121" y="161" width="359" height="501">
<path d="M121.562 161.979H479.563V661.979H121.562V161.979Z" fill="white"/>
</mask>
<g mask="url(#mask4_248_2)">
<path d="M439.125 662.302H161.688C160.375 662.302 159.068 662.234 157.76 662.104C156.458 661.979 155.161 661.781 153.875 661.526C152.589 661.271 151.318 660.948 150.063 660.567C148.807 660.187 147.573 659.744 146.365 659.244C145.151 658.739 143.969 658.177 142.813 657.562C141.656 656.942 140.531 656.265 139.443 655.536C138.349 654.807 137.297 654.031 136.286 653.198C135.271 652.364 134.302 651.484 133.375 650.557C132.443 649.63 131.568 648.656 130.734 647.646C129.901 646.63 129.12 645.578 128.391 644.489C127.661 643.396 126.99 642.276 126.37 641.119C125.75 639.963 125.188 638.776 124.688 637.567C124.182 636.354 123.745 635.119 123.359 633.864C122.979 632.609 122.661 631.338 122.401 630.052C122.146 628.765 121.953 627.474 121.823 626.166C121.693 624.859 121.625 623.552 121.625 622.239V202.036C121.625 200.724 121.693 199.416 121.823 198.114C121.953 196.807 122.146 195.51 122.401 194.224C122.661 192.937 122.979 191.666 123.359 190.411C123.745 189.156 124.182 187.927 124.688 186.713C125.188 185.5 125.75 184.317 126.37 183.161C126.99 182.005 127.661 180.88 128.391 179.791C129.12 178.698 129.901 177.646 130.734 176.635C131.568 175.619 132.443 174.651 133.375 173.724C134.302 172.797 135.271 171.916 136.286 171.083C137.297 170.25 138.349 169.468 139.443 168.739C140.531 168.01 141.656 167.338 142.813 166.718C143.969 166.099 145.151 165.541 146.365 165.036C147.573 164.536 148.807 164.093 150.063 163.708C151.318 163.328 152.589 163.01 153.875 162.755C155.161 162.494 156.458 162.302 157.76 162.172C159.068 162.041 160.375 161.979 161.688 161.974H439.125C440.432 161.979 441.745 162.041 443.047 162.172C444.354 162.302 445.651 162.494 446.938 162.755C448.224 163.01 449.495 163.328 450.745 163.708C452 164.093 453.234 164.536 454.448 165.036C455.656 165.541 456.844 166.099 458 166.718C459.156 167.338 460.281 168.01 461.37 168.739C462.458 169.468 463.51 170.25 464.526 171.083C465.542 171.916 466.51 172.797 467.438 173.724C468.365 174.651 469.245 175.619 470.078 176.635C470.911 177.646 471.693 178.698 472.422 179.791C473.151 180.88 473.823 182.005 474.443 183.161C475.063 184.317 475.62 185.5 476.125 186.713C476.625 187.927 477.068 189.156 477.448 190.411C477.833 191.666 478.151 192.937 478.406 194.224C478.667 195.51 478.859 196.807 478.99 198.114C479.12 199.416 479.182 200.724 479.182 202.036V622.244C479.182 623.552 479.12 624.864 478.99 626.166C478.859 627.474 478.667 628.771 478.406 630.057C478.151 631.343 477.833 632.614 477.448 633.864C477.068 635.119 476.625 636.354 476.125 637.567C475.62 638.776 475.057 639.963 474.443 641.119C473.823 642.276 473.146 643.401 472.417 644.489C471.688 645.578 470.911 646.63 470.078 647.646C469.245 648.661 468.365 649.63 467.438 650.557C466.51 651.484 465.542 652.364 464.526 653.198C463.51 654.031 462.458 654.807 461.37 655.536C460.276 656.265 459.156 656.942 458 657.562C456.844 658.177 455.656 658.739 454.448 659.244C453.234 659.744 452 660.187 450.745 660.567C449.49 660.948 448.219 661.271 446.938 661.526C445.651 661.781 444.354 661.979 443.047 662.104C441.745 662.234 440.432 662.302 439.125 662.302ZM161.688 175.948C160.833 175.953 159.979 175.994 159.13 176.078C158.281 176.161 157.438 176.286 156.599 176.458C155.76 176.625 154.938 176.833 154.12 177.078C153.302 177.328 152.5 177.614 151.708 177.942C150.922 178.271 150.151 178.635 149.396 179.036C148.641 179.442 147.911 179.88 147.203 180.354C146.49 180.828 145.807 181.338 145.146 181.88C144.484 182.422 143.854 182.994 143.25 183.599C142.646 184.203 142.073 184.833 141.531 185.494C140.99 186.156 140.479 186.838 140.005 187.552C139.531 188.26 139.094 188.994 138.688 189.744C138.286 190.5 137.922 191.271 137.594 192.057C137.266 192.849 136.979 193.651 136.729 194.468C136.479 195.286 136.276 196.114 136.104 196.948C135.938 197.786 135.813 198.63 135.729 199.479C135.646 200.333 135.599 201.182 135.599 202.036V622.244C135.599 623.099 135.646 623.948 135.729 624.797C135.813 625.651 135.938 626.494 136.104 627.328C136.276 628.166 136.479 628.994 136.729 629.812C136.979 630.63 137.266 631.432 137.594 632.218C137.922 633.01 138.286 633.781 138.688 634.536C139.094 635.286 139.531 636.021 140.005 636.729C140.479 637.437 140.99 638.125 141.531 638.786C142.073 639.442 142.646 640.078 143.25 640.682C143.854 641.286 144.484 641.859 145.146 642.401C145.807 642.942 146.49 643.448 147.203 643.922C147.911 644.401 148.641 644.838 149.396 645.239C150.151 645.646 150.922 646.01 151.708 646.338C152.5 646.661 153.302 646.953 154.12 647.198C154.938 647.448 155.76 647.656 156.599 647.823C157.438 647.989 158.281 648.114 159.13 648.203C159.979 648.286 160.833 648.328 161.688 648.328H439.125C439.979 648.328 440.828 648.286 441.677 648.203C442.531 648.114 443.375 647.989 444.208 647.823C445.047 647.656 445.875 647.448 446.693 647.198C447.51 646.953 448.313 646.661 449.104 646.338C449.891 646.01 450.661 645.646 451.417 645.239C452.167 644.838 452.901 644.401 453.609 643.922C454.318 643.448 455.005 642.942 455.667 642.401C456.323 641.859 456.958 641.286 457.563 640.682C458.167 640.078 458.74 639.442 459.281 638.786C459.823 638.125 460.328 637.437 460.807 636.729C461.281 636.021 461.719 635.286 462.12 634.536C462.526 633.781 462.891 633.01 463.219 632.218C463.542 631.432 463.833 630.63 464.078 629.812C464.328 628.994 464.536 628.166 464.703 627.328C464.87 626.494 465 625.651 465.083 624.797C465.167 623.948 465.208 623.099 465.208 622.244V202.036C465.208 201.182 465.167 200.333 465.083 199.479C465 198.63 464.87 197.786 464.703 196.948C464.536 196.114 464.328 195.286 464.078 194.468C463.833 193.651 463.542 192.849 463.219 192.057C462.891 191.271 462.526 190.5 462.12 189.744C461.719 188.994 461.281 188.26 460.807 187.552C460.328 186.843 459.823 186.156 459.281 185.494C458.74 184.833 458.167 184.203 457.563 183.599C456.958 182.994 456.323 182.422 455.667 181.88C455.005 181.338 454.318 180.828 453.609 180.354C452.901 179.88 452.167 179.442 451.417 179.041C450.661 178.635 449.891 178.271 449.104 177.942C448.313 177.614 447.51 177.328 446.693 177.078C445.875 176.833 445.047 176.625 444.208 176.458C443.375 176.286 442.531 176.161 441.677 176.078C440.828 175.994 439.979 175.953 439.125 175.948H161.688Z" fill="white"/>
</g>
<path d="M128.615 202.036V278.265H472.198V202.036C472.198 200.953 472.146 199.875 472.036 198.797C471.932 197.719 471.771 196.646 471.562 195.583C471.349 194.521 471.088 193.474 470.771 192.437C470.458 191.401 470.094 190.38 469.677 189.38C469.266 188.38 468.802 187.401 468.292 186.448C467.781 185.489 467.224 184.562 466.625 183.661C466.021 182.76 465.375 181.89 464.687 181.052C464 180.219 463.276 179.417 462.51 178.651C461.745 177.885 460.943 177.156 460.104 176.469C459.266 175.781 458.401 175.135 457.5 174.536C456.599 173.932 455.667 173.38 454.713 172.87C453.76 172.359 452.781 171.896 451.781 171.479C450.781 171.068 449.76 170.703 448.724 170.385C447.687 170.073 446.635 169.807 445.573 169.599C444.51 169.385 443.443 169.229 442.365 169.12C441.286 169.015 440.208 168.963 439.125 168.963H161.687C160.604 168.963 159.521 169.015 158.448 169.12C157.37 169.229 156.297 169.385 155.234 169.599C154.172 169.807 153.125 170.073 152.088 170.385C151.052 170.703 150.031 171.068 149.031 171.479C148.031 171.896 147.052 172.359 146.094 172.87C145.141 173.38 144.213 173.932 143.312 174.536C142.411 175.135 141.542 175.781 140.703 176.469C139.87 177.156 139.068 177.885 138.302 178.651C137.536 179.417 136.807 180.219 136.12 181.052C135.432 181.89 134.786 182.76 134.187 183.661C133.583 184.562 133.031 185.489 132.516 186.448C132.005 187.401 131.547 188.38 131.13 189.38C130.713 190.38 130.349 191.401 130.036 192.437C129.724 193.474 129.458 194.521 129.25 195.583C129.036 196.646 128.88 197.719 128.771 198.797C128.667 199.875 128.615 200.953 128.615 202.036Z" fill="white"/>
<mask id="mask5_248_2" style="mask-type:luminance" maskUnits="userSpaceOnUse" x="121" y="161" width="359" height="126">
<path d="M121.562 161.979H479.563V286.333H121.562V161.979Z" fill="white"/>
</mask>
<g mask="url(#mask5_248_2)">
<path d="M472.198 285.255H128.615C128.156 285.255 127.698 285.208 127.25 285.119C126.802 285.031 126.365 284.896 125.938 284.724C125.516 284.547 125.115 284.333 124.729 284.078C124.349 283.823 123.995 283.531 123.672 283.208C123.349 282.88 123.057 282.531 122.802 282.146C122.547 281.765 122.333 281.364 122.156 280.942C121.984 280.515 121.849 280.078 121.76 279.63C121.672 279.177 121.625 278.724 121.625 278.265V202.036C121.625 200.724 121.693 199.416 121.823 198.109C121.953 196.807 122.146 195.51 122.401 194.224C122.661 192.937 122.979 191.666 123.359 190.411C123.74 189.156 124.182 187.922 124.688 186.713C125.188 185.5 125.75 184.317 126.37 183.161C126.99 182.005 127.661 180.88 128.391 179.791C129.12 178.698 129.901 177.646 130.734 176.635C131.563 175.619 132.443 174.651 133.37 173.724C134.302 172.791 135.271 171.916 136.286 171.083C137.297 170.25 138.349 169.468 139.443 168.739C140.531 168.01 141.656 167.338 142.813 166.718C143.969 166.099 145.151 165.536 146.365 165.036C147.573 164.531 148.807 164.093 150.063 163.708C151.318 163.328 152.589 163.01 153.875 162.75C155.161 162.494 156.458 162.302 157.76 162.172C159.068 162.041 160.375 161.974 161.688 161.974H439.125C440.432 161.974 441.745 162.041 443.047 162.172C444.354 162.302 445.651 162.494 446.938 162.75C448.224 163.01 449.495 163.328 450.745 163.708C452 164.093 453.234 164.531 454.448 165.036C455.656 165.536 456.844 166.099 458 166.718C459.156 167.338 460.281 168.01 461.37 168.739C462.458 169.468 463.51 170.25 464.526 171.083C465.542 171.916 466.51 172.791 467.438 173.724C468.365 174.651 469.245 175.619 470.078 176.635C470.911 177.646 471.693 178.698 472.422 179.791C473.146 180.88 473.823 182.005 474.443 183.161C475.057 184.317 475.62 185.5 476.125 186.713C476.625 187.922 477.068 189.156 477.448 190.411C477.833 191.666 478.151 192.937 478.406 194.224C478.667 195.51 478.859 196.807 478.99 198.109C479.12 199.416 479.182 200.724 479.182 202.036V278.265C479.182 278.724 479.141 279.177 479.052 279.63C478.958 280.078 478.828 280.515 478.651 280.942C478.479 281.364 478.26 281.765 478.005 282.146C477.75 282.531 477.464 282.88 477.141 283.208C476.813 283.531 476.458 283.823 476.078 284.078C475.698 284.333 475.297 284.547 474.87 284.724C474.448 284.896 474.01 285.031 473.563 285.119C473.109 285.208 472.656 285.255 472.198 285.255ZM135.599 271.281H465.208V202.036C465.208 201.182 465.167 200.333 465.083 199.479C464.995 198.63 464.87 197.786 464.703 196.948C464.536 196.114 464.328 195.286 464.078 194.468C463.833 193.651 463.542 192.849 463.219 192.057C462.891 191.271 462.526 190.5 462.12 189.744C461.719 188.994 461.281 188.26 460.802 187.552C460.328 186.838 459.823 186.156 459.281 185.494C458.74 184.833 458.167 184.203 457.563 183.599C456.958 182.994 456.323 182.422 455.667 181.88C455.005 181.338 454.318 180.828 453.609 180.354C452.901 179.88 452.167 179.442 451.417 179.036C450.661 178.635 449.891 178.271 449.099 177.942C448.313 177.614 447.51 177.328 446.693 177.078C445.875 176.833 445.047 176.625 444.208 176.453C443.37 176.286 442.526 176.161 441.677 176.078C440.828 175.994 439.979 175.953 439.125 175.948H161.688C160.833 175.953 159.979 175.994 159.13 176.078C158.281 176.161 157.438 176.286 156.599 176.453C155.76 176.625 154.938 176.833 154.12 177.078C153.302 177.328 152.5 177.614 151.708 177.942C150.922 178.271 150.151 178.635 149.396 179.036C148.641 179.442 147.911 179.88 147.203 180.354C146.49 180.828 145.807 181.338 145.146 181.88C144.484 182.422 143.854 182.994 143.25 183.599C142.646 184.203 142.073 184.833 141.531 185.494C140.99 186.156 140.479 186.838 140.005 187.552C139.531 188.26 139.094 188.994 138.688 189.744C138.286 190.5 137.922 191.271 137.594 192.057C137.266 192.849 136.979 193.651 136.729 194.468C136.479 195.286 136.271 196.114 136.104 196.948C135.938 197.786 135.813 198.63 135.729 199.479C135.646 200.333 135.599 201.182 135.599 202.036V271.281Z" fill="white"/>
</g>
<path d="M174.646 400.276H167.656V351.01C167.661 350.026 167.755 349.047 167.953 348.078C168.146 347.109 168.432 346.167 168.807 345.255C169.187 344.344 169.651 343.479 170.198 342.656C170.75 341.833 171.37 341.078 172.068 340.38C172.771 339.677 173.526 339.057 174.349 338.505C175.172 337.958 176.036 337.495 176.948 337.115C177.859 336.74 178.802 336.453 179.771 336.26C180.74 336.063 181.714 335.969 182.703 335.969H231.969V342.953H182.703C182.177 342.953 181.651 343.005 181.13 343.109C180.615 343.214 180.109 343.365 179.62 343.568C179.135 343.771 178.667 344.021 178.229 344.313C177.792 344.609 177.385 344.943 177.01 345.318C176.635 345.693 176.302 346.099 176.005 346.536C175.714 346.974 175.464 347.443 175.26 347.927C175.057 348.417 174.906 348.922 174.802 349.438C174.698 349.958 174.646 350.484 174.646 351.01V400.276Z" fill="white"/>
<path d="M231.969 601.458H182.703C181.719 601.458 180.74 601.359 179.771 601.167C178.802 600.974 177.859 600.687 176.948 600.307C176.036 599.932 175.172 599.469 174.349 598.917C173.526 598.37 172.771 597.745 172.073 597.047C171.37 596.349 170.75 595.588 170.198 594.771C169.651 593.948 169.188 593.083 168.807 592.167C168.432 591.255 168.146 590.318 167.953 589.349C167.755 588.38 167.661 587.401 167.661 586.417V537.151H174.646V586.411C174.646 586.943 174.698 587.463 174.802 587.984C174.906 588.505 175.057 589.005 175.26 589.495C175.464 589.984 175.714 590.448 176.005 590.885C176.302 591.328 176.635 591.734 177.01 592.109C177.385 592.479 177.792 592.818 178.229 593.109C178.667 593.401 179.135 593.651 179.62 593.854C180.109 594.057 180.615 594.208 181.13 594.312C181.651 594.417 182.177 594.469 182.703 594.469H231.969V601.458Z" fill="white"/>
<path d="M433.151 400.276H426.167V351.01C426.167 350.484 426.109 349.958 426.01 349.438C425.906 348.922 425.75 348.417 425.547 347.927C425.344 347.443 425.099 346.974 424.802 346.536C424.51 346.099 424.177 345.693 423.802 345.318C423.427 344.943 423.021 344.609 422.583 344.313C422.141 344.021 421.677 343.771 421.188 343.568C420.703 343.365 420.198 343.214 419.677 343.109C419.161 343.005 418.635 342.953 418.109 342.953H368.844V335.969H418.104C419.094 335.969 420.073 336.063 421.042 336.26C422.01 336.453 422.948 336.74 423.859 337.115C424.776 337.495 425.641 337.958 426.464 338.505C427.281 339.057 428.042 339.677 428.74 340.38C429.438 341.078 430.063 341.833 430.609 342.656C431.161 343.479 431.625 344.344 432 345.255C432.38 346.167 432.667 347.109 432.859 348.078C433.052 349.047 433.151 350.026 433.151 351.01V400.276Z" fill="white"/>
<path d="M418.104 601.458H368.844V594.474H418.104C418.635 594.469 419.161 594.417 419.677 594.318C420.198 594.213 420.698 594.057 421.188 593.854C421.677 593.651 422.141 593.406 422.583 593.109C423.021 592.818 423.427 592.484 423.802 592.109C424.177 591.734 424.51 591.328 424.802 590.89C425.099 590.448 425.344 589.984 425.547 589.495C425.75 589.01 425.906 588.505 426.01 587.984C426.109 587.469 426.161 586.943 426.167 586.417V537.151H433.151V586.411C433.151 587.401 433.052 588.38 432.859 589.349C432.667 590.318 432.38 591.255 432 592.167C431.625 593.078 431.161 593.948 430.609 594.765C430.063 595.588 429.438 596.349 428.74 597.047C428.042 597.745 427.281 598.37 426.464 598.917C425.641 599.469 424.776 599.932 423.859 600.307C422.948 600.687 422.01 600.974 421.042 601.167C420.073 601.359 419.094 601.458 418.104 601.458Z" fill="white"/>
<path d="M190.281 235.261C190.318 234.604 190.193 233.974 189.922 233.37C189.651 232.771 189.255 232.261 188.734 231.854C187.703 231.037 185.891 230.193 183.297 229.323C181.12 228.62 179 227.781 176.932 226.797C171.573 224.167 168.891 220.547 168.891 215.943C168.859 213.693 169.526 211.672 170.896 209.88C172.229 208.13 174.12 206.766 176.563 205.792C179.214 204.771 181.958 204.281 184.802 204.328C187.583 204.281 190.245 204.813 192.797 205.917C195.073 206.891 196.906 208.401 198.297 210.448C199.641 212.485 200.297 214.724 200.255 217.167H190.313C190.313 215.479 189.797 214.177 188.766 213.245C187.734 212.318 186.333 211.854 184.573 211.854C182.792 211.854 181.385 212.25 180.354 213.031C179.865 213.375 179.484 213.813 179.208 214.339C178.938 214.87 178.802 215.432 178.807 216.031C178.807 217.089 179.375 218.052 180.51 218.912C181.646 219.776 183.646 220.667 186.505 221.583C188.958 222.328 191.307 223.318 193.552 224.552C198.021 227.13 200.255 230.682 200.255 235.208C200.255 238.823 198.891 241.667 196.162 243.729C193.438 245.792 189.698 246.823 184.943 246.823C181.781 246.87 178.745 246.266 175.839 245.021C173.12 243.818 171.078 242.172 169.703 240.078C168.281 237.875 167.594 235.469 167.641 232.849H177.641C177.641 235.063 178.214 236.698 179.359 237.75C180.505 238.797 182.37 239.323 184.943 239.323C186.589 239.323 187.891 238.969 188.849 238.261C189.323 237.912 189.688 237.474 189.943 236.943C190.198 236.412 190.313 235.849 190.281 235.261Z" fill="black"/>
<path d="M238.833 232.25C238.75 235.005 237.974 237.547 236.505 239.88C235.01 242.167 233.016 243.88 230.521 245.005C227.729 246.276 224.797 246.88 221.729 246.823C216.297 246.823 212.016 245.052 208.891 241.51C205.766 237.969 204.203 232.969 204.203 226.51V224.464C204.203 220.411 204.911 216.865 206.318 213.828C207.641 210.865 209.672 208.516 212.411 206.781C215.063 205.125 218.13 204.297 221.62 204.297C226.635 204.297 230.672 205.62 233.719 208.26C236.771 210.901 238.5 214.542 238.917 219.182H228.974C228.901 216.667 228.266 214.854 227.073 213.755C225.88 212.656 224.063 212.109 221.62 212.109C219.135 212.109 217.318 213.036 216.161 214.896C215.01 216.75 214.401 219.714 214.349 223.786V226.714C214.349 231.125 214.901 234.276 216.01 236.172C217.115 238.068 219.026 239.01 221.729 239.01C224.021 239.01 225.771 238.469 226.984 237.391C228.198 236.313 228.844 234.599 228.917 232.25H238.833Z" fill="black"/>
<path d="M267.042 238.526H253.375L250.99 246.255H240.339L255.505 204.896H264.88L280.167 246.255H269.453L267.042 238.526ZM255.766 230.828H264.656L260.193 216.485L255.766 230.828Z" fill="black"/>
<path d="M317.719 246.255H307.807L293.146 220.521V246.255H283.177V204.896H293.146L307.776 230.63V204.896H317.719V246.255Z" fill="black"/>
<path d="M351.609 204.896L360.844 233.672L370.047 204.896H383.172V246.255H373.172V236.599L374.141 216.823L364.141 246.255H357.547L347.521 216.797L348.49 236.599V246.255H338.516V204.896H351.609Z" fill="black"/>
<path d="M415.156 228.698H399.474V238.589H418V246.255H389.505V204.896H418.052V212.594H399.474V221.313H415.156V228.698Z" fill="black"/>
<path d="M421.859 241.964C421.844 241.307 421.969 240.672 422.234 240.068C422.5 239.464 422.88 238.948 423.38 238.516C423.917 238.078 424.51 237.745 425.161 237.511C425.813 237.281 426.484 237.167 427.172 237.167C427.865 237.167 428.536 237.281 429.188 237.511C429.839 237.745 430.432 238.078 430.964 238.516C431.203 238.735 431.422 238.974 431.609 239.24C431.797 239.5 431.958 239.781 432.089 240.078C432.219 240.375 432.318 240.682 432.385 241C432.453 241.318 432.484 241.641 432.484 241.964C432.484 242.292 432.453 242.61 432.385 242.927C432.318 243.245 432.219 243.552 432.089 243.849C431.958 244.151 431.797 244.427 431.609 244.693C431.422 244.958 431.203 245.198 430.964 245.417C430.432 245.854 429.839 246.188 429.188 246.422C428.536 246.651 427.865 246.766 427.172 246.766C426.484 246.766 425.813 246.651 425.161 246.422C424.51 246.188 423.917 245.854 423.38 245.417C422.88 244.985 422.5 244.469 422.234 243.865C421.969 243.261 421.844 242.625 421.859 241.964ZM431.12 233.162H423.365L422.146 204.896H432.344L431.12 233.162Z" fill="black"/>
<mask id="mask6_248_2" style="mask-type:luminance" maskUnits="userSpaceOnUse" x="0" y="0" width="112" height="112">
<path d="M0.619751 0.625H111.312V111.313H0.619751V0.625Z" fill="white"/>
</mask>
<g mask="url(#mask6_248_2)">
<mask id="mask7_248_2" style="mask-type:luminance" maskUnits="userSpaceOnUse" x="0" y="0" width="112" height="112">
<path d="M55.9687 0.625C25.401 0.625 0.619751 25.401 0.619751 55.9688C0.619751 86.5365 25.401 111.313 55.9687 111.313C86.5312 111.313 111.312 86.5365 111.312 55.9688C111.312 25.401 86.5312 0.625 55.9687 0.625Z" fill="white"/>
</mask>
<g mask="url(#mask7_248_2)">
<path d="M0.619751 0.625V111.313H111.312V0.625H0.619751Z" fill="url(#paint1_linear_248_2)"/>
</g>
</g>
<mask id="mask8_248_2" style="mask-type:luminance" maskUnits="userSpaceOnUse" x="0" y="0" width="112" height="112">
<path d="M0.619751 0.625H111.307V111.313H0.619751V0.625Z" fill="white"/>
</mask>
<g mask="url(#mask8_248_2)">
<mask id="mask9_248_2" style="mask-type:luminance" maskUnits="userSpaceOnUse" x="0" y="0" width="112" height="112">
<path d="M55.9635 0.625C25.401 0.625 0.619751 25.401 0.619751 55.9688C0.619751 86.5313 25.401 111.313 55.9635 111.313C86.5312 111.313 111.307 86.5313 111.307 55.9688C111.307 25.401 86.5312 0.625 55.9635 0.625Z" fill="white"/>
</mask>
<g mask="url(#mask9_248_2)">
<path d="M55.9635 0.625C25.401 0.625 0.619751 25.401 0.619751 55.9688C0.619751 86.5313 25.401 111.312 55.9635 111.312C86.5312 111.312 111.307 86.5313 111.307 55.9688C111.307 25.401 86.5312 0.625 55.9635 0.625Z" stroke="#DEE0DE" stroke-width="8"/>
</g>
</g>
<path d="M63.6718 54.8644H48.2448V47.8905C48.2448 47.354 48.3489 46.8384 48.552 46.3436C48.7604 45.8488 49.052 45.4165 49.427 45.0363C49.8073 44.6561 50.2448 44.3644 50.7395 44.1613C51.2343 43.953 51.75 43.854 52.2864 43.854H59.6302C60.1666 43.854 60.6823 43.953 61.177 44.1613C61.6718 44.3644 62.1093 44.6561 62.4895 45.0363C62.8698 45.4165 63.1614 45.8488 63.3645 46.3436C63.5677 46.8384 63.6718 47.354 63.6718 47.8905V54.8644Z" fill="#DEE0DE"/>
<mask id="mask10_248_2" style="mask-type:luminance" maskUnits="userSpaceOnUse" x="22" y="22" width="68" height="68">
<path d="M22.4688 22.4688H89.4688V89.4688H22.4688V22.4688Z" fill="white"/>
</mask>
<g mask="url(#mask10_248_2)">
<path d="M55.9583 22.4688C54.8646 22.4688 53.7656 22.5208 52.6771 22.6302C51.5833 22.7396 50.5 22.901 49.4271 23.1146C48.349 23.3281 47.2865 23.5937 46.2344 23.9115C45.1875 24.2292 44.1563 24.599 43.1406 25.0208C42.1302 25.4375 41.1406 25.9063 40.1719 26.4219C39.2031 26.9427 38.2656 27.5052 37.3542 28.1146C36.4375 28.724 35.5573 29.375 34.7135 30.0729C33.8646 30.7656 33.0521 31.5052 32.276 32.2813C31.5 33.0521 30.7656 33.8646 30.0677 34.7135C29.375 35.5625 28.7187 36.4427 28.1094 37.3542C27.5 38.2656 26.9375 39.2083 26.4219 40.1719C25.9063 41.1406 25.4375 42.1302 25.0156 43.1458C24.599 44.1563 24.2292 45.1875 23.9115 46.2396C23.5885 47.2865 23.3229 48.349 23.1094 49.4271C22.8958 50.5052 22.7344 51.5885 22.6302 52.6771C22.5208 53.7708 22.4688 54.8646 22.4688 55.9635C22.4688 57.0573 22.5208 58.151 22.6302 59.2448C22.7344 60.3333 22.8958 61.4219 23.1094 62.4948C23.3229 63.5729 23.5885 64.6354 23.9115 65.6823C24.2292 66.7344 24.599 67.7656 25.0156 68.776C25.4375 69.7917 25.9063 70.7813 26.4219 71.75C26.9375 72.7188 27.5 73.6563 28.1094 74.5677C28.7187 75.4792 29.375 76.3594 30.0677 77.2083C30.7656 78.0573 31.5 78.8698 32.276 79.6458C33.0521 80.4219 33.8646 81.1563 34.7135 81.849C35.5573 82.5469 36.4375 83.1979 37.3542 83.8073C38.2656 84.4167 39.2031 84.9792 40.1719 85.5C41.1406 86.0156 42.1302 86.4844 43.1406 86.9063C44.1563 87.3229 45.1875 87.6927 46.2344 88.0104C47.2865 88.3281 48.349 88.5938 49.4271 88.8073C50.5 89.026 51.5833 89.1823 52.6771 89.2917C53.7656 89.401 54.8646 89.4531 55.9583 89.4531C57.0573 89.4531 58.151 89.401 59.2396 89.2917C60.3333 89.1823 61.4167 89.026 62.4948 88.8073C63.5677 88.5938 64.6302 88.3281 65.6823 88.0104C66.7292 87.6927 67.7604 87.3229 68.776 86.9063C69.7917 86.4844 70.7813 86.0156 71.7448 85.5C72.7135 84.9792 73.6563 84.4167 74.5677 83.8073C75.4792 83.1979 76.3594 82.5469 77.2083 81.849C78.0521 81.1563 78.8646 80.4219 79.6406 79.6458C80.4167 78.8698 81.151 78.0573 81.849 77.2083C82.5469 76.3594 83.1979 75.4792 83.8073 74.5677C84.4167 73.6563 84.9792 72.7188 85.4948 71.75C86.0156 70.7813 86.4844 69.7917 86.901 68.776C87.3229 67.7656 87.6927 66.7344 88.0104 65.6823C88.3281 64.6354 88.5938 63.5729 88.8073 62.4948C89.0208 61.4219 89.1823 60.3333 89.2917 59.2448C89.3958 58.151 89.4531 57.0573 89.4531 55.9635C89.4531 54.8646 89.3958 53.7708 89.2917 52.6771C89.1823 51.5885 89.0208 50.5052 88.8073 49.4271C88.5938 48.3542 88.3281 47.2917 88.0104 46.2396C87.6875 45.1875 87.3229 44.1563 86.901 43.1458C86.4792 42.1302 86.0104 41.1406 85.4948 40.1719C84.9792 39.2083 84.4167 38.2656 83.8073 37.3542C83.1979 36.4427 82.5417 35.5625 81.849 34.7135C81.151 33.8698 80.4167 33.0573 79.6406 32.2813C78.8646 31.5052 78.0521 30.7708 77.2031 30.0729C76.3594 29.375 75.4792 28.724 74.5677 28.1146C73.651 27.5052 72.7135 26.9427 71.7448 26.4271C70.7813 25.9063 69.7865 25.4375 68.776 25.0208C67.7604 24.599 66.7292 24.2292 65.6823 23.9115C64.6302 23.5937 63.5677 23.3281 62.4948 23.1146C61.4167 22.901 60.3333 22.7396 59.2396 22.6302C58.151 22.5208 57.0573 22.4688 55.9583 22.4688ZM59.6302 41.6458C60.0417 41.6458 60.4479 41.6823 60.849 41.7656C61.25 41.8437 61.6406 41.9635 62.0208 42.1198C62.401 42.2813 62.7604 42.474 63.099 42.6979C63.4375 42.9271 63.7552 43.1875 64.0417 43.4792C64.3333 43.7656 64.5938 44.0833 64.8177 44.4219C65.0469 44.7656 65.2396 45.125 65.3958 45.5052C65.5521 45.8802 65.6719 46.2708 65.75 46.6719C65.8281 47.0781 65.8698 47.4844 65.8698 47.8906V54.8646H70.6563C70.9531 54.8646 71.2083 54.974 71.4219 55.1875C71.6302 55.401 71.7396 55.6615 71.7396 55.9635C71.7396 56.2604 71.6302 56.5208 71.4219 56.7344C71.2083 56.9479 70.9531 57.0573 70.6563 57.0625H41.2656C40.9583 57.0625 40.7031 56.9531 40.4896 56.7396C40.2708 56.526 40.1667 56.2656 40.1667 55.9635C40.1667 55.6563 40.2708 55.401 40.4896 55.1823C40.7031 54.9687 40.9583 54.8646 41.2656 54.8646H46.0469V47.8906C46.0469 47.4844 46.0885 47.0781 46.1667 46.6719C46.2448 46.2708 46.3646 45.8802 46.5208 45.5052C46.6771 45.125 46.8698 44.7656 47.099 44.4219C47.3281 44.0833 47.5833 43.7656 47.875 43.4792C48.1615 43.1875 48.4792 42.9271 48.8177 42.6979C49.1615 42.474 49.5208 42.2813 49.8958 42.1198C50.276 41.9635 50.6667 41.8437 51.0677 41.7656C51.4688 41.6823 51.875 41.6458 52.2865 41.6458H59.6302ZM35.026 40.5365C35.026 40.1719 35.0625 39.8125 35.1354 39.4583C35.2031 39.1042 35.3073 38.7604 35.4479 38.4271C35.5833 38.0938 35.7552 37.776 35.9583 37.4792C36.1563 37.1771 36.3854 36.901 36.6406 36.6406C36.8958 36.3854 37.1719 36.1615 37.474 35.9583C37.776 35.7552 38.0938 35.5885 38.4271 35.4479C38.7604 35.3125 39.1042 35.2083 39.4583 35.1354C39.8125 35.0625 40.1719 35.0313 40.5313 35.026H47.1458C47.4531 35.026 47.7135 35.1354 47.9271 35.3542C48.1406 35.5677 48.25 35.8281 48.25 36.1354C48.25 36.4375 48.1406 36.6979 47.9271 36.9115C47.7135 37.1302 47.4531 37.2396 47.1458 37.2396H40.5313C40.0937 37.2344 39.6719 37.3229 39.2708 37.4896C38.8646 37.6563 38.5104 37.8958 38.1979 38.2031C37.8906 38.5104 37.651 38.8698 37.4844 39.2708C37.3177 39.6771 37.2344 40.099 37.2344 40.5365V47.151C37.2344 47.4531 37.125 47.7135 36.9115 47.9271C36.6979 48.1458 36.4375 48.2552 36.1302 48.2552C35.8281 48.2552 35.5677 48.1458 35.349 47.9271C35.1354 47.7135 35.026 47.4531 35.026 47.151V40.5365ZM47.1458 76.8958H40.5313C40.1719 76.8958 39.8125 76.8594 39.4583 76.7865C39.1042 76.7135 38.7604 76.6094 38.4271 76.474C38.0938 76.3333 37.776 76.1667 37.474 75.9635C37.1719 75.7656 36.8958 75.5365 36.6406 75.2813C36.3854 75.026 36.1563 74.7448 35.9583 74.4479C35.7552 74.1458 35.5833 73.8281 35.4479 73.4948C35.3073 73.1615 35.2031 72.8177 35.1354 72.4635C35.0625 72.1094 35.026 71.75 35.026 71.3906V64.776C35.0313 64.474 35.1406 64.2135 35.3542 64.0052C35.5729 63.7917 35.8281 63.6875 36.1302 63.6875C36.4323 63.6875 36.6927 63.7917 36.9063 64.0052C37.1198 64.2135 37.2292 64.474 37.2344 64.776V71.3906C37.2344 71.8281 37.3177 72.2448 37.4844 72.651C37.651 73.0521 37.8906 73.4115 38.1979 73.7188C38.5104 74.0313 38.8646 74.2656 39.2708 74.4323C39.6719 74.6042 40.0937 74.6875 40.5313 74.6875H47.1458C47.4531 74.6875 47.7135 74.7917 47.9271 75.0104C48.1406 75.224 48.25 75.4844 48.25 75.7917C48.25 76.0938 48.1406 76.3542 47.9271 76.5729C47.7135 76.7865 47.4531 76.8958 47.1458 76.8958ZM52.2865 70.2813C51.875 70.276 51.4688 70.2396 51.0677 70.1563C50.6667 70.0781 50.276 69.9583 49.8958 69.8021C49.5208 69.6406 49.1615 69.4479 48.8177 69.224C48.4792 68.9948 48.1615 68.7344 47.875 68.4427C47.5833 68.1563 47.3281 67.8385 47.099 67.5C46.8698 67.1563 46.6771 66.7969 46.5208 66.4219C46.3646 66.0417 46.2448 65.651 46.1667 65.25C46.0885 64.849 46.0469 64.4427 46.0469 64.0313V60.3698C46.0521 60.0677 46.1615 59.8125 46.375 59.599C46.5885 59.3906 46.8438 59.2813 47.1458 59.2813C47.4479 59.2813 47.7031 59.3906 47.9167 59.599C48.1302 59.8125 48.2396 60.0677 48.2448 60.3698V64.0313C48.2448 64.5677 48.349 65.0833 48.5521 65.5781C48.7604 66.0729 49.0521 66.5104 49.4271 66.8854C49.8073 67.2656 50.2448 67.5573 50.7396 67.7604C51.2344 67.9688 51.75 68.0729 52.2865 68.0729H59.6302C60.1667 68.0729 60.6823 67.9688 61.1771 67.7604C61.6719 67.5573 62.1094 67.2656 62.4896 66.8854C62.8698 66.5104 63.1615 66.0729 63.3646 65.5781C63.5677 65.0833 63.6719 64.5677 63.6719 64.0313V60.3698C63.6771 60.0677 63.7865 59.8125 64 59.599C64.2135 59.3906 64.4688 59.2813 64.7708 59.2813C65.0729 59.2813 65.3281 59.3906 65.5417 59.599C65.7552 59.8125 65.8646 60.0677 65.8698 60.3698V64.0313C65.8698 64.4427 65.8281 64.849 65.75 65.25C65.6719 65.651 65.5521 66.0417 65.3958 66.4219C65.2396 66.7969 65.0469 67.1563 64.8177 67.5C64.5938 67.8385 64.3333 68.1563 64.0417 68.4427C63.7552 68.7344 63.4375 68.9948 63.099 69.224C62.7604 69.4479 62.401 69.6406 62.0208 69.8021C61.6406 69.9583 61.25 70.0781 60.849 70.1563C60.4479 70.2396 60.0417 70.276 59.6302 70.2813H52.2865ZM76.8906 71.3906C76.8906 71.75 76.8542 72.1094 76.7865 72.4635C76.7135 72.8177 76.6094 73.1615 76.4688 73.4948C76.3333 73.8281 76.1615 74.1458 75.9635 74.4479C75.7604 74.7448 75.5313 75.026 75.276 75.2813C75.0208 75.5365 74.7448 75.7656 74.4427 75.9635C74.1406 76.1667 73.8281 76.3333 73.4896 76.474C73.1563 76.6094 72.8125 76.7135 72.4583 76.7865C72.1042 76.8594 71.75 76.8958 71.3854 76.8958H64.7708C64.4688 76.8906 64.2135 76.7813 64 76.5625C63.7917 76.349 63.6823 76.0938 63.6823 75.7917C63.6823 75.4896 63.7917 75.2292 64 75.0156C64.2135 74.8021 64.4688 74.6875 64.7708 74.6875H71.3854C71.8229 74.6875 72.2448 74.6042 72.6458 74.4323C73.0521 74.2656 73.4063 74.0313 73.7188 73.7188C74.026 73.4115 74.2656 73.0521 74.4323 72.651C74.599 72.2448 74.6823 71.8281 74.6823 71.3906V64.776C74.6823 64.4688 74.7917 64.2083 75.0052 63.9948C75.224 63.776 75.4844 63.6719 75.7865 63.6719C76.0938 63.6719 76.3542 63.776 76.5677 63.9948C76.7813 64.2083 76.8906 64.4688 76.8906 64.776V71.3906ZM76.8906 47.151C76.8854 47.4479 76.776 47.7083 76.5625 47.9167C76.349 48.1302 76.0885 48.2344 75.7865 48.2344C75.4844 48.2344 75.2292 48.1302 75.0104 47.9167C74.7969 47.7083 74.6875 47.4479 74.6823 47.151V40.5365C74.6823 40.099 74.599 39.6771 74.4323 39.2708C74.2656 38.8698 74.026 38.5104 73.7188 38.2031C73.4063 37.8958 73.0521 37.6563 72.6458 37.4896C72.2448 37.3229 71.8229 37.2344 71.3854 37.2396H64.7708C64.4688 37.2344 64.2135 37.125 64 36.9063C63.7917 36.6927 63.6823 36.4323 63.6823 36.1354C63.6823 35.8333 63.7917 35.5729 64 35.3594C64.2135 35.1406 64.4688 35.0313 64.7708 35.026H71.3854C71.75 35.0313 72.1042 35.0625 72.4583 35.1354C72.8125 35.2083 73.1563 35.3125 73.4896 35.4479C73.8281 35.5885 74.1406 35.7552 74.4427 35.9583C74.7448 36.1615 75.0208 36.3854 75.276 36.6406C75.5313 36.901 75.7604 37.1771 75.9635 37.4792C76.1615 37.776 76.3333 38.0938 76.4688 38.4271C76.6094 38.7604 76.7135 39.1042 76.7865 39.4583C76.8542 39.8125 76.8906 40.1719 76.8906 40.5365V47.151Z" fill="#DEE0DE"/>
</g>
<path d="M129.899 744.471C128.441 744.471 127.128 744.216 125.962 743.7C124.806 743.174 123.905 742.45 123.253 741.534C122.597 740.607 122.259 739.534 122.233 738.325H125.316C125.425 739.367 125.858 740.242 126.608 740.95C127.358 741.659 128.451 742.013 129.899 742.013C131.274 742.013 132.358 741.674 133.149 740.992C133.951 740.299 134.358 739.409 134.358 738.325C134.358 737.482 134.118 736.794 133.649 736.263C133.191 735.737 132.608 735.336 131.899 735.055C131.201 734.778 130.259 734.482 129.066 734.159C127.608 733.773 126.431 733.388 125.545 733.013C124.67 732.627 123.92 732.028 123.295 731.221C122.67 730.403 122.358 729.305 122.358 727.93C122.358 726.721 122.66 725.653 123.274 724.721C123.899 723.778 124.764 723.055 125.878 722.555C126.988 722.044 128.264 721.784 129.712 721.784C131.795 721.784 133.493 722.305 134.816 723.346C136.134 724.388 136.884 725.763 137.066 727.471H133.878C133.764 726.627 133.316 725.883 132.524 725.242C131.743 724.591 130.712 724.263 129.42 724.263C128.212 724.263 127.222 724.575 126.462 725.2C125.696 725.825 125.316 726.7 125.316 727.825C125.316 728.633 125.545 729.294 126.003 729.805C126.462 730.305 127.024 730.695 127.691 730.971C128.358 731.237 129.295 731.534 130.503 731.867C131.962 732.273 133.134 732.674 134.024 733.075C134.925 733.466 135.691 734.07 136.316 734.888C136.951 735.695 137.274 736.799 137.274 738.2C137.274 739.284 136.988 740.305 136.42 741.263C135.847 742.211 135.003 742.982 133.878 743.575C132.753 744.174 131.425 744.471 129.899 744.471Z" fill="white"/>
<path d="M140.937 735.492C140.937 733.69 141.291 732.112 142 730.763C142.718 729.419 143.718 728.377 145 727.638C146.291 726.888 147.76 726.513 149.416 726.513C151.567 726.513 153.338 727.034 154.729 728.075C156.114 729.117 157.031 730.565 157.479 732.409H154.354C154.062 731.356 153.484 730.523 152.625 729.909C151.76 729.284 150.692 728.971 149.416 728.971C147.76 728.971 146.427 729.544 145.416 730.679C144.401 731.804 143.895 733.409 143.895 735.492C143.895 737.591 144.401 739.216 145.416 740.367C146.427 741.507 147.76 742.075 149.416 742.075C150.692 742.075 151.755 741.784 152.604 741.2C153.448 740.606 154.031 739.752 154.354 738.638H157.479C157.005 740.429 156.067 741.862 154.666 742.929C153.276 744.002 151.526 744.534 149.416 744.534C147.76 744.534 146.291 744.169 145 743.429C143.718 742.679 142.718 741.627 142 740.263C141.291 738.903 140.937 737.315 140.937 735.492Z" fill="white"/>
<path d="M160.715 735.471C160.715 733.679 161.069 732.112 161.778 730.763C162.496 729.419 163.491 728.377 164.757 727.638C166.017 726.888 167.429 726.513 168.986 726.513C170.512 726.513 171.83 726.846 172.944 727.513C174.069 728.169 174.908 728.992 175.465 729.992V726.804H178.403V744.242H175.465V740.992C174.892 742.023 174.038 742.867 172.903 743.534C171.778 744.2 170.455 744.534 168.944 744.534C167.403 744.534 165.996 744.153 164.736 743.388C163.486 742.627 162.496 741.554 161.778 740.179C161.069 738.794 160.715 737.221 160.715 735.471ZM175.465 735.492C175.465 734.174 175.199 733.028 174.673 732.054C174.142 731.086 173.429 730.341 172.528 729.825C171.621 729.299 170.632 729.034 169.548 729.034C168.465 729.034 167.476 729.294 166.59 729.804C165.699 730.304 164.991 731.049 164.465 732.034C163.934 733.007 163.673 734.153 163.673 735.471C163.673 736.804 163.934 737.966 164.465 738.95C164.991 739.94 165.699 740.695 166.59 741.221C167.476 741.737 168.465 741.992 169.548 741.992C170.632 741.992 171.621 741.737 172.528 741.221C173.429 740.695 174.142 739.94 174.673 738.95C175.199 737.966 175.465 736.815 175.465 735.492Z" fill="white"/>
<path d="M192.25 726.492C194.375 726.492 196.088 727.138 197.395 728.43C198.713 729.711 199.375 731.555 199.375 733.971V744.242H196.52V734.388C196.52 732.638 196.083 731.305 195.208 730.388C194.343 729.471 193.156 729.013 191.645 729.013C190.114 729.013 188.901 729.492 188 730.451C187.109 731.398 186.666 732.779 186.666 734.596V744.242H183.77V726.805H186.666V729.284C187.234 728.398 188.01 727.711 189 727.221C189.984 726.737 191.067 726.492 192.25 726.492Z" fill="white"/>
<path d="M229.085 722.075L221.856 735.867V744.242H218.96V735.867L211.71 722.075H214.919L220.398 733.304L225.877 722.075H229.085Z" fill="white"/>
<path d="M240.215 744.534C238.575 744.534 237.09 744.169 235.757 743.429C234.434 742.679 233.403 741.627 232.653 740.263C231.903 738.888 231.528 737.299 231.528 735.492C231.528 733.716 231.908 732.148 232.674 730.784C233.45 729.409 234.507 728.356 235.84 727.617C237.184 726.882 238.684 726.513 240.34 726.513C241.991 726.513 243.486 726.882 244.82 727.617C246.153 728.356 247.205 729.403 247.986 730.763C248.762 732.112 249.153 733.69 249.153 735.492C249.153 737.299 248.747 738.888 247.945 740.263C247.153 741.627 246.075 742.679 244.715 743.429C243.366 744.169 241.866 744.534 240.215 744.534ZM240.215 741.992C241.241 741.992 242.215 741.752 243.132 741.263C244.049 740.763 244.783 740.028 245.34 739.054C245.908 738.086 246.195 736.898 246.195 735.492C246.195 734.091 245.913 732.903 245.361 731.929C244.804 730.961 244.08 730.237 243.195 729.763C242.304 729.278 241.34 729.034 240.299 729.034C239.241 729.034 238.268 729.278 237.382 729.763C236.507 730.237 235.804 730.961 235.278 731.929C234.747 732.903 234.486 734.091 234.486 735.492C234.486 736.909 234.741 738.112 235.257 739.096C235.768 740.07 236.465 740.799 237.34 741.284C238.215 741.757 239.174 741.992 240.215 741.992Z" fill="white"/>
<path d="M268.897 726.805V744.242H266.001V741.659C265.444 742.549 264.673 743.242 263.689 743.742C262.699 744.242 261.616 744.492 260.439 744.492C259.074 744.492 257.855 744.216 256.772 743.659C255.689 743.091 254.834 742.242 254.209 741.117C253.584 739.992 253.272 738.628 253.272 737.013V726.805H256.126V736.638C256.126 738.362 256.564 739.69 257.439 740.617C258.314 741.534 259.501 741.992 261.001 741.992C262.543 741.992 263.756 741.513 264.647 740.555C265.548 739.596 266.001 738.211 266.001 736.388V726.805H268.897Z" fill="white"/>
<path d="M277.162 729.638C277.662 728.638 278.38 727.867 279.328 727.326C280.271 726.773 281.422 726.492 282.787 726.492V729.471H282.016C278.776 729.471 277.162 731.237 277.162 734.763V744.242H274.266V726.805H277.162V729.638Z" fill="white"/>
<path d="M302.466 722.075C304.883 722.075 306.971 722.528 308.737 723.429C310.513 724.32 311.872 725.606 312.82 727.284C313.763 728.966 314.237 730.94 314.237 733.2C314.237 735.481 313.763 737.45 312.82 739.117C311.872 740.773 310.513 742.044 308.737 742.929C306.971 743.804 304.883 744.242 302.466 744.242H295.57V722.075H302.466ZM302.466 741.846C305.326 741.846 307.508 741.091 309.008 739.575C310.518 738.065 311.279 735.94 311.279 733.2C311.279 730.45 310.518 728.304 309.008 726.763C307.492 725.211 305.31 724.429 302.466 724.429H298.466V741.846H302.466Z" fill="white"/>
<path d="M326.132 744.534C324.492 744.534 323.007 744.169 321.674 743.429C320.351 742.679 319.32 741.627 318.57 740.263C317.82 738.888 317.445 737.299 317.445 735.492C317.445 733.716 317.825 732.148 318.59 730.784C319.367 729.409 320.424 728.356 321.757 727.617C323.101 726.882 324.601 726.513 326.257 726.513C327.908 726.513 329.403 726.882 330.736 727.617C332.07 728.356 333.122 729.403 333.903 730.763C334.679 732.112 335.07 733.69 335.07 735.492C335.07 737.299 334.663 738.888 333.861 740.263C333.07 741.627 331.992 742.679 330.632 743.429C329.283 744.169 327.783 744.534 326.132 744.534ZM326.132 741.992C327.158 741.992 328.132 741.752 329.049 741.263C329.965 740.763 330.7 740.028 331.257 739.054C331.825 738.086 332.111 736.898 332.111 735.492C332.111 734.091 331.83 732.903 331.278 731.929C330.721 730.961 329.997 730.237 329.111 729.763C328.221 729.278 327.257 729.034 326.215 729.034C325.158 729.034 324.184 729.278 323.299 729.763C322.424 730.237 321.721 730.961 321.195 731.929C320.663 732.903 320.403 734.091 320.403 735.492C320.403 736.909 320.658 738.112 321.174 739.096C321.684 740.07 322.382 740.799 323.257 741.284C324.132 741.757 325.09 741.992 326.132 741.992Z" fill="white"/>
<path d="M338.272 735.492C338.272 733.69 338.626 732.112 339.334 730.763C340.053 729.419 341.053 728.377 342.334 727.638C343.626 726.888 345.095 726.513 346.751 726.513C348.902 726.513 350.673 727.034 352.064 728.075C353.449 729.117 354.366 730.565 354.814 732.409H351.689C351.397 731.356 350.819 730.523 349.959 729.909C349.095 729.284 348.027 728.971 346.751 728.971C345.095 728.971 343.761 729.544 342.751 730.679C341.735 731.804 341.23 733.409 341.23 735.492C341.23 737.591 341.735 739.216 342.751 740.367C343.761 741.507 345.095 742.075 346.751 742.075C348.027 742.075 349.09 741.784 349.939 741.2C350.782 740.606 351.366 739.752 351.689 738.638H354.814C354.34 740.429 353.402 741.862 352.001 742.929C350.61 744.002 348.86 744.534 346.751 744.534C345.095 744.534 343.626 744.169 342.334 743.429C341.053 742.679 340.053 741.627 339.334 740.263C338.626 738.903 338.272 737.315 338.272 735.492Z" fill="white"/>
<path d="M374.592 726.805V744.242H371.696V741.659C371.138 742.549 370.368 743.242 369.383 743.742C368.394 744.242 367.31 744.492 366.133 744.492C364.769 744.492 363.55 744.216 362.467 743.659C361.383 743.091 360.529 742.242 359.904 741.117C359.279 739.992 358.967 738.628 358.967 737.013V726.805H361.821V736.638C361.821 738.362 362.258 739.69 363.133 740.617C364.008 741.534 365.196 741.992 366.696 741.992C368.237 741.992 369.451 741.513 370.342 740.555C371.243 739.596 371.696 738.211 371.696 736.388V726.805H374.592Z" fill="white"/>
<path d="M400.919 726.492C402.278 726.492 403.487 726.779 404.544 727.346C405.596 727.904 406.429 728.742 407.044 729.867C407.669 730.992 407.981 732.362 407.981 733.971V744.242H405.106V734.388C405.106 732.638 404.674 731.305 403.815 730.388C402.966 729.471 401.804 729.013 400.336 729.013C398.836 729.013 397.638 729.503 396.752 730.471C395.862 731.43 395.419 732.82 395.419 734.638V744.242H392.544V734.388C392.544 732.638 392.112 731.305 391.252 730.388C390.403 729.471 389.242 729.013 387.773 729.013C386.273 729.013 385.075 729.503 384.19 730.471C383.299 731.43 382.856 732.82 382.856 734.638V744.242H379.961V726.805H382.856V729.326C383.424 728.409 384.19 727.711 385.148 727.221C386.117 726.737 387.19 726.492 388.356 726.492C389.815 726.492 391.106 726.826 392.231 727.492C393.356 728.148 394.195 729.107 394.752 730.367C395.237 729.148 396.044 728.195 397.169 727.513C398.294 726.836 399.544 726.492 400.919 726.492Z" fill="white"/>
<path d="M429.084 734.867C429.084 735.409 429.048 735.992 428.98 736.617H415.064C415.157 738.325 415.741 739.669 416.814 740.638C417.897 741.596 419.194 742.075 420.709 742.075C421.97 742.075 423.022 741.784 423.855 741.2C424.689 740.617 425.277 739.841 425.626 738.867H428.73C428.272 740.549 427.34 741.919 425.939 742.971C424.532 744.013 422.793 744.534 420.709 744.534C419.053 744.534 417.574 744.169 416.272 743.429C414.98 742.679 413.959 741.627 413.209 740.263C412.47 738.888 412.105 737.299 412.105 735.492C412.105 733.69 412.459 732.112 413.168 730.763C413.886 729.403 414.902 728.356 416.209 727.617C417.511 726.882 419.011 726.513 420.709 726.513C422.376 726.513 423.84 726.877 425.105 727.596C426.381 728.32 427.36 729.315 428.043 730.575C428.735 731.841 429.084 733.273 429.084 734.867ZM426.105 734.263C426.105 733.153 425.855 732.2 425.355 731.409C424.866 730.617 424.209 730.013 423.376 729.596C422.543 729.179 421.61 728.971 420.584 728.971C419.126 728.971 417.881 729.44 416.855 730.367C415.824 731.299 415.235 732.596 415.084 734.263H426.105Z" fill="white"/>
<path d="M441.859 726.492C443.984 726.492 445.698 727.138 447.005 728.43C448.323 729.711 448.984 731.555 448.984 733.971V744.242H446.13V734.388C446.13 732.638 445.692 731.305 444.817 730.388C443.953 729.471 442.765 729.013 441.255 729.013C439.724 729.013 438.51 729.492 437.609 730.451C436.718 731.398 436.276 732.779 436.276 734.596V744.242H433.38V726.805H436.276V729.284C436.843 728.398 437.619 727.711 438.609 727.221C439.593 726.737 440.677 726.492 441.859 726.492Z" fill="white"/>
<path d="M457.728 729.2V739.471C457.728 740.32 457.905 740.919 458.27 741.263C458.629 741.612 459.254 741.784 460.145 741.784H462.27V744.242H459.665C458.051 744.242 456.843 743.877 456.04 743.138C455.233 742.388 454.832 741.169 454.832 739.471V729.2H452.582V726.805H454.832V722.409H457.728V726.805H462.27V729.2H457.728Z" fill="white"/>
<path d="M472.425 744.534C471.092 744.534 469.889 744.304 468.821 743.846C467.764 743.388 466.925 742.757 466.3 741.95C465.686 741.132 465.352 740.19 465.3 739.117H468.279C468.363 739.992 468.769 740.711 469.508 741.263C470.243 741.804 471.201 742.075 472.383 742.075C473.493 742.075 474.363 741.836 474.988 741.346C475.623 740.862 475.946 740.242 475.946 739.492C475.946 738.742 475.602 738.179 474.925 737.804C474.258 737.429 473.206 737.065 471.779 736.7C470.488 736.367 469.43 736.028 468.613 735.679C467.805 735.32 467.113 734.799 466.529 734.117C465.946 733.424 465.654 732.513 465.654 731.388C465.654 730.502 465.915 729.69 466.446 728.95C466.972 728.2 467.722 727.612 468.696 727.179C469.665 726.737 470.779 726.513 472.029 726.513C473.956 726.513 475.514 727.007 476.696 727.992C477.889 728.966 478.534 730.299 478.633 731.992H475.738C475.665 731.075 475.3 730.346 474.633 729.804C473.967 729.252 473.071 728.971 471.946 728.971C470.904 728.971 470.076 729.195 469.467 729.638C468.852 730.086 468.55 730.669 468.55 731.388C468.55 731.961 468.727 732.429 469.092 732.804C469.467 733.179 469.93 733.481 470.488 733.7C471.055 733.924 471.842 734.174 472.842 734.45C474.092 734.784 475.102 735.117 475.883 735.45C476.675 735.773 477.347 736.263 477.904 736.929C478.472 737.586 478.764 738.44 478.779 739.492C478.779 740.45 478.514 741.315 477.988 742.075C477.456 742.841 476.706 743.445 475.738 743.888C474.779 744.315 473.675 744.534 472.425 744.534Z" fill="white"/>
<path d="M197.194 855L194.298 864.959H191.59L189.778 858L187.965 864.959H185.236L182.298 855H184.84L186.611 862.584L188.507 855H191.173L193.048 862.563L194.798 855H197.194Z" fill="white"/>
<path d="M214.173 855L211.277 864.959H208.569L206.757 858L204.944 864.959H202.215L199.277 855H201.819L203.59 862.584L205.486 855H208.152L210.027 862.563L211.777 855H214.173Z" fill="white"/>
<path d="M231.152 855L228.257 864.959H225.548L223.736 858L221.923 864.959H219.194L216.257 855H218.798L220.569 862.584L222.465 855H225.132L227.007 862.563L228.757 855H231.152Z" fill="white"/>
<path d="M235.465 865.084C235.007 865.084 234.632 864.949 234.34 864.667C234.048 864.391 233.902 864.037 233.902 863.605C233.902 863.188 234.048 862.844 234.34 862.563C234.632 862.287 235.007 862.146 235.465 862.146C235.908 862.146 236.267 862.287 236.548 862.563C236.84 862.844 236.986 863.188 236.986 863.605C236.986 864.037 236.84 864.391 236.548 864.667C236.267 864.949 235.908 865.084 235.465 865.084Z" fill="white"/>
<path d="M245.004 862.646L247.504 855H250.192L246.504 864.959H243.442L239.796 855H242.483L245.004 862.646Z" fill="white"/>
<path d="M254.711 853.834C254.263 853.834 253.899 853.698 253.607 853.417C253.315 853.125 253.169 852.771 253.169 852.355C253.169 851.938 253.315 851.594 253.607 851.313C253.899 851.021 254.263 850.875 254.711 850.875C255.154 850.875 255.524 851.021 255.815 851.313C256.107 851.594 256.253 851.938 256.253 852.355C256.253 852.771 256.107 853.125 255.815 853.417C255.524 853.698 255.154 853.834 254.711 853.834ZM255.94 855V864.959H253.419V855H255.94Z" fill="white"/>
<path d="M264.053 865.125C263.245 865.125 262.516 864.979 261.865 864.688C261.225 864.396 260.709 864 260.324 863.5C259.949 862.99 259.745 862.427 259.719 861.813H262.24C262.292 862.203 262.48 862.521 262.803 862.771C263.136 863.021 263.542 863.146 264.032 863.146C264.516 863.146 264.891 863.052 265.157 862.854C265.433 862.662 265.574 862.417 265.574 862.125C265.574 861.808 265.407 861.563 265.074 861.396C264.74 861.229 264.209 861.052 263.49 860.854C262.751 860.688 262.146 860.511 261.678 860.313C261.204 860.12 260.792 859.828 260.449 859.438C260.115 859.037 259.949 858.5 259.949 857.834C259.949 857.282 260.105 856.782 260.428 856.334C260.745 855.875 261.199 855.516 261.782 855.25C262.376 854.99 263.079 854.854 263.886 854.854C265.063 854.854 266.011 855.157 266.719 855.75C267.428 856.334 267.813 857.125 267.886 858.125H265.469C265.438 857.74 265.271 857.427 264.969 857.188C264.678 856.953 264.287 856.834 263.803 856.834C263.344 856.834 262.99 856.927 262.74 857.104C262.501 857.271 262.386 857.5 262.386 857.792C262.386 858.125 262.553 858.386 262.886 858.563C263.219 858.729 263.74 858.907 264.449 859.084C265.167 859.266 265.761 859.453 266.219 859.646C266.688 859.844 267.094 860.141 267.428 860.542C267.771 860.933 267.954 861.459 267.969 862.125C267.969 862.698 267.808 863.209 267.49 863.667C267.167 864.125 266.709 864.49 266.115 864.75C265.532 865 264.844 865.125 264.053 865.125Z" fill="white"/>
<path d="M271.207 859.959C271.207 858.948 271.405 858.052 271.811 857.271C272.212 856.495 272.754 855.896 273.436 855.479C274.129 855.063 274.905 854.854 275.77 854.854C276.504 854.854 277.15 855.011 277.707 855.313C278.259 855.604 278.707 855.979 279.04 856.438V855H281.582V864.959H279.04V863.5C278.718 863.974 278.275 864.365 277.707 864.667C277.134 864.969 276.483 865.125 275.749 865.125C274.9 865.125 274.129 864.912 273.436 864.479C272.754 864.052 272.212 863.448 271.811 862.667C271.405 861.875 271.207 860.974 271.207 859.959ZM279.04 859.979C279.04 859.37 278.921 858.849 278.686 858.417C278.447 857.974 278.124 857.641 277.707 857.417C277.301 857.183 276.874 857.063 276.415 857.063C275.942 857.063 275.504 857.177 275.103 857.396C274.712 857.62 274.395 857.953 274.145 858.396C273.905 858.828 273.79 859.349 273.79 859.959C273.79 860.558 273.905 861.078 274.145 861.521C274.395 861.969 274.718 862.313 275.124 862.563C275.525 862.802 275.957 862.917 276.415 862.917C276.874 862.917 277.301 862.802 277.707 862.563C278.124 862.328 278.447 861.995 278.686 861.563C278.921 861.12 279.04 860.594 279.04 859.979Z" fill="white"/>
<path d="M285.207 859.979C285.207 858.953 285.415 858.058 285.832 857.292C286.259 856.516 286.842 855.917 287.582 855.5C288.332 855.073 289.186 854.854 290.144 854.854C291.363 854.854 292.379 855.162 293.186 855.771C294.004 856.386 294.551 857.25 294.832 858.375H292.103C291.962 857.948 291.717 857.604 291.374 857.354C291.04 857.104 290.624 856.979 290.124 856.979C289.4 856.979 288.832 857.245 288.415 857.771C287.999 858.287 287.79 859.021 287.79 859.979C287.79 860.927 287.999 861.662 288.415 862.188C288.832 862.703 289.4 862.959 290.124 862.959C291.134 862.959 291.795 862.511 292.103 861.604H294.832C294.551 862.677 294.004 863.532 293.186 864.167C292.379 864.808 291.363 865.125 290.144 865.125C289.186 865.125 288.332 864.917 287.582 864.5C286.842 864.073 286.259 863.469 285.832 862.688C285.415 861.912 285.207 861.011 285.207 859.979Z" fill="white"/>
<path d="M302.926 865.125C301.968 865.125 301.098 864.917 300.322 864.5C299.556 864.073 298.952 863.469 298.509 862.688C298.077 861.896 297.864 860.995 297.864 859.979C297.864 858.969 298.082 858.073 298.53 857.292C298.989 856.516 299.603 855.917 300.384 855.5C301.16 855.073 302.03 854.854 302.989 854.854C303.947 854.854 304.811 855.073 305.593 855.5C306.369 855.917 306.978 856.516 307.426 857.292C307.884 858.073 308.114 858.969 308.114 859.979C308.114 860.995 307.874 861.896 307.405 862.688C306.947 863.469 306.322 864.073 305.53 864.5C304.749 864.917 303.884 865.125 302.926 865.125ZM302.926 862.938C303.369 862.938 303.791 862.828 304.197 862.604C304.598 862.386 304.916 862.052 305.155 861.604C305.405 861.162 305.53 860.62 305.53 859.979C305.53 859.037 305.28 858.313 304.78 857.813C304.28 857.302 303.666 857.042 302.947 857.042C302.239 857.042 301.64 857.302 301.155 857.813C300.666 858.313 300.426 859.037 300.426 859.979C300.426 860.927 300.66 861.657 301.134 862.167C301.603 862.683 302.202 862.938 302.926 862.938Z" fill="white"/>
<path d="M324.145 854.875C325.354 854.875 326.333 855.25 327.083 856C327.833 856.74 328.208 857.782 328.208 859.125V864.959H325.708V859.459C325.708 858.683 325.505 858.094 325.104 857.688C324.713 857.271 324.177 857.063 323.5 857.063C322.802 857.063 322.255 857.271 321.854 857.688C321.463 858.094 321.27 858.683 321.27 859.459V864.959H318.75V859.459C318.75 858.683 318.546 858.094 318.145 857.688C317.755 857.271 317.218 857.063 316.541 857.063C315.843 857.063 315.296 857.271 314.895 857.688C314.489 858.094 314.291 858.683 314.291 859.459V864.959H311.77V855H314.291V856.209C314.609 855.792 315.026 855.469 315.541 855.23C316.052 854.995 316.614 854.875 317.229 854.875C318.005 854.875 318.697 855.042 319.312 855.375C319.921 855.698 320.395 856.162 320.729 856.771C321.046 856.204 321.51 855.745 322.125 855.396C322.75 855.053 323.421 854.875 324.145 854.875Z" fill="white"/>
<path d="M344.786 854.875C345.994 854.875 346.973 855.25 347.723 856C348.473 856.74 348.848 857.782 348.848 859.125V864.959H346.348V859.459C346.348 858.683 346.145 858.094 345.744 857.688C345.354 857.271 344.817 857.063 344.14 857.063C343.442 857.063 342.895 857.271 342.494 857.688C342.104 858.094 341.911 858.683 341.911 859.459V864.959H339.39V859.459C339.39 858.683 339.187 858.094 338.786 857.688C338.395 857.271 337.859 857.063 337.182 857.063C336.484 857.063 335.937 857.271 335.536 857.688C335.13 858.094 334.932 858.683 334.932 859.459V864.959H332.411V855H334.932V856.209C335.249 855.792 335.666 855.469 336.182 855.23C336.692 854.995 337.255 854.875 337.869 854.875C338.645 854.875 339.338 855.042 339.952 855.375C340.562 855.698 341.036 856.162 341.369 856.771C341.687 856.204 342.15 855.745 342.765 855.396C343.39 855.053 344.062 854.875 344.786 854.875Z" fill="white"/>
<path d="M354.343 853.834C353.895 853.834 353.53 853.698 353.239 853.417C352.947 853.125 352.801 852.771 352.801 852.355C352.801 851.938 352.947 851.594 353.239 851.313C353.53 851.021 353.895 850.875 354.343 850.875C354.786 850.875 355.155 851.021 355.447 851.313C355.739 851.594 355.885 851.938 355.885 852.355C355.885 852.771 355.739 853.125 355.447 853.417C355.155 853.698 354.786 853.834 354.343 853.834ZM355.572 855V864.959H353.051V855H355.572Z" fill="white"/>
<path d="M362.809 857.084V861.896C362.809 862.229 362.882 862.474 363.039 862.625C363.205 862.766 363.481 862.834 363.872 862.834H365.039V864.959H363.455C361.33 864.959 360.268 863.933 360.268 861.875V857.084H359.101V855H360.268V852.542H362.809V855H365.039V857.084H362.809Z" fill="white"/>
<path d="M369.792 865.084C369.334 865.084 368.959 864.949 368.667 864.667C368.375 864.391 368.229 864.037 368.229 863.605C368.229 863.188 368.375 862.844 368.667 862.563C368.959 862.287 369.334 862.146 369.792 862.146C370.235 862.146 370.594 862.287 370.875 862.563C371.167 862.844 371.313 863.188 371.313 863.605C371.313 864.037 371.167 864.391 370.875 864.667C370.594 864.949 370.235 865.084 369.792 865.084Z" fill="white"/>
<path d="M374.519 859.979C374.519 858.953 374.727 858.058 375.144 857.292C375.571 856.516 376.154 855.917 376.894 855.5C377.644 855.073 378.498 854.854 379.456 854.854C380.675 854.854 381.691 855.162 382.498 855.771C383.316 856.386 383.863 857.25 384.144 858.375H381.415C381.274 857.948 381.029 857.604 380.685 857.354C380.352 857.104 379.935 856.979 379.435 856.979C378.712 856.979 378.144 857.245 377.727 857.771C377.31 858.287 377.102 859.021 377.102 859.979C377.102 860.927 377.31 861.662 377.727 862.188C378.144 862.703 378.712 862.959 379.435 862.959C380.446 862.959 381.107 862.511 381.415 861.604H384.144C383.863 862.677 383.316 863.532 382.498 864.167C381.691 864.808 380.675 865.125 379.456 865.125C378.498 865.125 377.644 864.917 376.894 864.5C376.154 864.073 375.571 863.469 375.144 862.688C374.727 861.912 374.519 861.011 374.519 859.979Z" fill="white"/>
<path d="M392.238 865.125C391.28 865.125 390.41 864.917 389.634 864.5C388.868 864.073 388.264 863.469 387.821 862.688C387.389 861.896 387.175 860.995 387.175 859.979C387.175 858.969 387.394 858.073 387.842 857.292C388.3 856.516 388.915 855.917 389.696 855.5C390.472 855.073 391.342 854.854 392.3 854.854C393.259 854.854 394.123 855.073 394.905 855.5C395.681 855.917 396.29 856.516 396.738 857.292C397.196 858.073 397.425 858.969 397.425 859.979C397.425 860.995 397.186 861.896 396.717 862.688C396.259 863.469 395.634 864.073 394.842 864.5C394.061 864.917 393.196 865.125 392.238 865.125ZM392.238 862.938C392.681 862.938 393.102 862.828 393.509 862.604C393.91 862.386 394.227 862.052 394.467 861.604C394.717 861.162 394.842 860.62 394.842 859.979C394.842 859.037 394.592 858.313 394.092 857.813C393.592 857.302 392.977 857.042 392.259 857.042C391.55 857.042 390.951 857.302 390.467 857.813C389.977 858.313 389.738 859.037 389.738 859.979C389.738 860.927 389.972 861.657 390.446 862.167C390.915 862.683 391.514 862.938 392.238 862.938Z" fill="white"/>
<path d="M413.457 854.875C414.666 854.875 415.645 855.25 416.395 856C417.145 856.74 417.52 857.782 417.52 859.125V864.959H415.02V859.459C415.02 858.683 414.817 858.094 414.416 857.688C414.025 857.271 413.489 857.063 412.812 857.063C412.114 857.063 411.567 857.271 411.166 857.688C410.775 858.094 410.582 858.683 410.582 859.459V864.959H408.062V859.459C408.062 858.683 407.858 858.094 407.457 857.688C407.067 857.271 406.53 857.063 405.853 857.063C405.155 857.063 404.608 857.271 404.207 857.688C403.801 858.094 403.603 858.683 403.603 859.459V864.959H401.082V855H403.603V856.209C403.921 855.792 404.338 855.469 404.853 855.23C405.364 854.995 405.926 854.875 406.541 854.875C407.317 854.875 408.009 855.042 408.624 855.375C409.233 855.698 409.707 856.162 410.041 856.771C410.358 856.204 410.822 855.745 411.437 855.396C412.062 855.053 412.733 854.875 413.457 854.875Z" fill="white"/>
<defs>
<linearGradient id="paint0_linear_248_2" x1="300.429" y1="842.69" x2="300.429" y2="875.537" gradientUnits="userSpaceOnUse">
<stop stop-color="#0F0F0F"/>
<stop offset="0.0625" stop-color="#0F0F0F"/>
<stop offset="0.125" stop-color="#101010"/>
<stop offset="0.1875" stop-color="#111111"/>
<stop offset="0.25" stop-color="#121212"/>
<stop offset="0.3125" stop-color="#131212"/>
<stop offset="0.375" stop-color="#141313"/>
<stop offset="0.4375" stop-color="#141414"/>
<stop offset="0.5" stop-color="#151515"/>
<stop offset="0.5625" stop-color="#161515"/>
<stop offset="0.625" stop-color="#171616"/>
<stop offset="0.6875" stop-color="#181717"/>
<stop offset="0.75" stop-color="#181818"/>
<stop offset="0.8125" stop-color="#191818"/>
<stop offset="0.875" stop-color="#1A1919"/>
<stop offset="0.9375" stop-color="#1B1A1A"/>
<stop offset="1" stop-color="#1C1B1B"/>
</linearGradient>
<linearGradient id="paint1_linear_248_2" x1="55.9663" y1="0.624476" x2="55.9663" y2="111.313" gradientUnits="userSpaceOnUse">
<stop stop-color="#0F0F0F"/>
<stop offset="0.0625" stop-color="#0F0F0F"/>
<stop offset="0.125" stop-color="#101010"/>
<stop offset="0.1875" stop-color="#111111"/>
<stop offset="0.25" stop-color="#121212"/>
<stop offset="0.3125" stop-color="#131212"/>
<stop offset="0.375" stop-color="#141313"/>
<stop offset="0.4375" stop-color="#141414"/>
<stop offset="0.5" stop-color="#151515"/>
<stop offset="0.5625" stop-color="#161515"/>
<stop offset="0.625" stop-color="#171616"/>
<stop offset="0.6875" stop-color="#181717"/>
<stop offset="0.75" stop-color="#181818"/>
<stop offset="0.8125" stop-color="#191818"/>
<stop offset="0.875" stop-color="#1A1919"/>
<stop offset="0.9375" stop-color="#1B1A1A"/>
<stop offset="1" stop-color="#1C1B1B"/>
</linearGradient>
</defs>
</svg>
