<svg width="123" height="122" viewBox="0 0 123 122" fill="none" xmlns="http://www.w3.org/2000/svg">
<g clip-path="url(#clip0_169_24)">
<path fill-rule="evenodd" clip-rule="evenodd" d="M55.15 0C61.0393 3.77567 67.1842 7.13712 73.54 10.06C71.7794 12.2674 70.3076 14.6902 69.16 17.27C64.3494 14.9151 59.6753 12.2909 55.16 9.41C41.47 20.05 25.72 25.34 8.52999 24.41C7.22999 73.93 25.72 101.41 55.34 112.19C76.53 104.19 91.8 88.07 98.45 63.41H99.21C101.739 63.412 104.259 63.12 106.72 62.54C99.2 92.59 81.21 111.85 55.34 121.6C19.64 108.59 -1.49001 76.65 0.0799935 17C18.86 18 37.29 13.92 55.15 0.05V0Z" fill="black"/>
<path fill-rule="evenodd" clip-rule="evenodd" d="M40.3 53.0901H41.8V49.7801C41.792 46.1022 43.2034 42.5631 45.74 39.9001C46.9683 38.5866 48.4533 37.5395 50.1029 36.8236C51.7526 36.1077 53.5317 35.7383 55.33 35.7383C57.1283 35.7383 58.9074 36.1077 60.5571 36.8236C62.2067 37.5395 63.6917 38.5866 64.92 39.9001C67.4812 42.552 68.9149 46.0933 68.92 49.7801V53.0901H70.41C70.9961 53.0901 71.5583 53.3229 71.9727 53.7374C72.3872 54.1518 72.62 54.7139 72.62 55.3001V78.6501C72.6174 79.2354 72.3837 79.796 71.9698 80.2099C71.5559 80.6238 70.9953 80.8574 70.41 80.8601H40.3C39.7147 80.8574 39.1541 80.6238 38.7402 80.2099C38.3263 79.796 38.0926 79.2354 38.09 78.6501V55.3001C38.09 54.7139 38.3228 54.1518 38.7373 53.7374C39.1517 53.3229 39.7139 53.0901 40.3 53.0901ZM45.98 53.0901H64.69V49.7801C64.7064 47.1764 63.7136 44.6675 61.92 42.7801C61.0778 41.8761 60.0585 41.1552 58.9256 40.6623C57.7927 40.1694 56.5705 39.915 55.335 39.915C54.0995 39.915 52.8773 40.1694 51.7444 40.6623C50.6115 41.1552 49.5922 41.8761 48.75 42.7801C46.9564 44.6675 45.9636 47.1764 45.98 49.7801V53.0901ZM53.52 68.0001L51.14 74.2501H59.53L57.32 67.9101C58.192 67.4595 58.8855 66.7266 59.2873 65.8311C59.6891 64.9356 59.7755 63.9303 59.5324 62.9794C59.2892 62.0284 58.7309 61.188 57.9486 60.5952C57.1663 60.0025 56.2061 59.6924 55.2249 59.7156C54.2436 59.7389 53.2992 60.0941 52.5458 60.7232C51.7924 61.3523 51.2745 62.2182 51.0767 63.1796C50.8788 64.141 51.0127 65.1411 51.4565 66.0166C51.9002 66.892 52.6277 67.5913 53.52 68.0001Z" fill="black"/>
<path fill-rule="evenodd" clip-rule="evenodd" d="M99.23 6.91992C103.908 6.91992 108.48 8.30697 112.369 10.9057C116.258 13.5044 119.29 17.198 121.08 21.5195C122.87 25.8409 123.338 30.5962 122.426 35.1838C121.513 39.7715 119.261 43.9855 115.953 47.293C112.646 50.6005 108.432 52.853 103.844 53.7655C99.2562 54.678 94.501 54.2097 90.1795 52.4197C85.8581 50.6297 82.1644 47.5984 79.5657 43.7092C76.967 39.8199 75.58 35.2474 75.58 30.5699C75.58 24.2976 78.0717 18.2821 82.5069 13.8468C86.9422 9.41161 92.9576 6.91992 99.23 6.91992ZM93.79 29.9999C94.4703 30.5699 95.1086 31.1882 95.7 31.8499C97.51 28.9476 99.5146 26.1712 101.7 23.5399C107.7 16.3599 104.95 17.7499 113.2 17.7499L112 19.0499C109.207 22.2176 106.669 25.6015 104.41 29.1699C101.549 33.304 98.9534 37.6161 96.64 42.0799L95.93 43.4599L95.27 42.0599C94.1053 39.5149 92.6308 37.1235 90.88 34.9399C89.3008 32.9477 87.4177 31.2165 85.3 29.8099C86.37 26.2799 91.49 28.0899 93.78 30.0299L93.79 29.9999Z" fill="#56B320"/>
</g>
<defs>
<clipPath id="clip0_169_24">
<rect width="122.88" height="121.63" fill="white"/>
</clipPath>
</defs>
</svg>
