<svg width="41" height="10" viewBox="0 0 41 10" fill="none" xmlns="http://www.w3.org/2000/svg">
<path d="M10.6073 2.27344H14.6571V3.02903H13.0647V7.27656H12.189V3.02903H10.6038L10.6073 2.27344ZM14.484 3.65398H15.2326V4.35308H15.2467C15.2714 4.25421 15.3173 4.15888 15.3844 4.06708C15.4515 3.97528 15.5326 3.88702 15.628 3.81287C15.7234 3.73519 15.8292 3.67517 15.9458 3.62574C16.0623 3.57984 16.1823 3.55512 16.3024 3.55512C16.3942 3.55512 16.4613 3.55865 16.4966 3.56218C16.5319 3.56571 16.5672 3.57277 16.606 3.57631V4.34602C16.5495 4.33543 16.493 4.32836 16.433 4.3213C16.373 4.31424 16.3165 4.31071 16.26 4.31071C16.1259 4.31071 15.9987 4.33896 15.8787 4.39192C15.7587 4.44488 15.6562 4.52609 15.568 4.62848C15.4797 4.73441 15.4091 4.86152 15.3562 5.01687C15.3032 5.17223 15.2784 5.34876 15.2784 5.55002V7.27305H14.4805L14.484 3.65398ZM20.2744 7.27656H19.4906V6.77168H19.4765C19.3776 6.9553 19.2329 7.10007 19.0387 7.20952C18.8445 7.31898 18.6468 7.37547 18.4455 7.37547C17.9689 7.37547 17.6229 7.25891 17.411 7.02234C17.1992 6.78581 17.0932 6.42919 17.0932 5.95254V3.65398H17.8912V5.87485C17.8912 6.19263 17.9512 6.4186 18.0748 6.54924C18.1948 6.67988 18.3678 6.74696 18.5867 6.74696C18.7562 6.74696 18.8939 6.72225 19.0069 6.66929C19.1199 6.61633 19.2117 6.54924 19.2788 6.46097C19.3494 6.37623 19.3988 6.27031 19.4306 6.15026C19.4624 6.03021 19.4765 5.89957 19.4765 5.75834V3.65751H20.2744V7.27656ZM21.6338 6.11495C21.6584 6.34798 21.7467 6.5104 21.8986 6.60573C22.0539 6.69753 22.2375 6.74696 22.4529 6.74696C22.5271 6.74696 22.6118 6.7399 22.7071 6.72931C22.8025 6.71872 22.8943 6.694 22.9754 6.66223C23.0602 6.63045 23.1272 6.58102 23.1837 6.51746C23.2367 6.45391 23.2615 6.3727 23.2579 6.27031C23.2544 6.16792 23.2155 6.08317 23.1449 6.01962C23.0743 5.95254 22.9861 5.90311 22.8766 5.86073C22.7671 5.82189 22.6436 5.78659 22.5023 5.75834C22.3611 5.73009 22.2199 5.69832 22.0751 5.66654C21.9268 5.63476 21.782 5.59239 21.6444 5.54649C21.5066 5.50059 21.3831 5.43704 21.2737 5.35583C21.1642 5.27815 21.0759 5.17576 21.0123 5.05218C20.9453 4.9286 20.9135 4.77677 20.9135 4.59317C20.9135 4.39545 20.963 4.23303 21.0583 4.09886C21.1536 3.96469 21.2772 3.85877 21.4219 3.77756C21.5702 3.69635 21.7327 3.63985 21.9127 3.60456C22.0928 3.57277 22.2658 3.55512 22.4282 3.55512C22.6153 3.55512 22.7954 3.57631 22.9649 3.61514C23.1343 3.65398 23.2897 3.71754 23.4274 3.80934C23.5651 3.8976 23.678 4.01412 23.7698 4.15535C23.8616 4.29659 23.9181 4.46959 23.9429 4.67085H23.1096C23.0708 4.48019 22.9861 4.34955 22.8483 4.286C22.7107 4.21891 22.5518 4.18713 22.3752 4.18713C22.3187 4.18713 22.2517 4.19066 22.174 4.20125C22.0963 4.21185 22.0256 4.2295 21.9551 4.25421C21.888 4.27893 21.8315 4.31777 21.782 4.3672C21.7362 4.41663 21.7114 4.48019 21.7114 4.56139C21.7114 4.66026 21.7467 4.73794 21.8138 4.79796C21.8809 4.85799 21.9692 4.90742 22.0786 4.94978C22.1881 4.98862 22.3117 5.02393 22.4529 5.05218C22.5941 5.08043 22.7389 5.1122 22.8872 5.14398C23.0319 5.17576 23.1732 5.21813 23.3144 5.26403C23.4556 5.30993 23.5792 5.37348 23.6887 5.45469C23.7981 5.5359 23.8864 5.63476 23.9534 5.75481C24.0205 5.87485 24.0559 6.02668 24.0559 6.20322C24.0559 6.4186 24.0064 6.59867 23.9076 6.75049C23.8087 6.89881 23.6816 7.02234 23.5262 7.11414C23.3709 7.20594 23.1943 7.27656 23.0037 7.31898C22.813 7.36133 22.6224 7.3825 22.4353 7.3825C22.2057 7.3825 21.9939 7.35781 21.7997 7.30484C21.6055 7.25187 21.436 7.17421 21.2948 7.07179C21.1536 6.96585 21.0406 6.83524 20.9594 6.67988C20.8782 6.52453 20.8358 6.33739 20.8287 6.12201H21.6338V6.11495ZM24.2677 3.65398H24.8714V2.5665H25.6694V3.65398H26.3897V4.25069H25.6694V6.18557C25.6694 6.27031 25.6729 6.34092 25.68 6.40448C25.6871 6.4645 25.7047 6.51746 25.7294 6.55983C25.7541 6.6022 25.7929 6.63398 25.8459 6.65516C25.8989 6.67635 25.966 6.68694 26.0578 6.68694C26.1143 6.68694 26.1708 6.68694 26.2272 6.68341C26.2837 6.67988 26.3402 6.67282 26.3967 6.65869V7.27656C26.3084 7.28719 26.2202 7.29422 26.139 7.30484C26.0543 7.31539 25.9695 7.31898 25.8812 7.31898C25.6694 7.31898 25.4999 7.29774 25.3728 7.25891C25.2457 7.22008 25.1433 7.16007 25.0727 7.08241C24.9985 7.00468 24.9527 6.90937 24.9244 6.79286C24.8997 6.67635 24.882 6.54218 24.8785 6.39388V4.25775H24.2748V3.65398H24.2677ZM26.9546 3.65398H27.7102V4.14476H27.7242C27.8373 3.93292 27.9926 3.78462 28.1939 3.69282C28.3951 3.60102 28.6105 3.55512 28.8471 3.55512C29.133 3.55512 29.3802 3.60456 29.592 3.70694C29.8039 3.8058 29.9804 3.9435 30.1216 4.12005C30.2629 4.29659 30.3653 4.50138 30.4359 4.7344C30.5065 4.96744 30.5418 5.21813 30.5418 5.48294C30.5418 5.72656 30.51 5.96312 30.4465 6.1891C30.3829 6.4186 30.2876 6.61986 30.1605 6.79639C30.0334 6.97296 29.8709 7.11062 29.6733 7.21656C29.4755 7.3225 29.246 7.37547 28.9777 7.37547C28.8611 7.37547 28.7447 7.36485 28.6282 7.34367C28.5116 7.3225 28.3986 7.28718 28.2927 7.24125C28.1868 7.19539 28.0844 7.13538 27.9961 7.06124C27.9043 6.98703 27.8302 6.90233 27.7667 6.80699H27.7525V8.61479H26.9546V3.65398ZM29.7438 5.46881C29.7438 5.3064 29.7227 5.14751 29.6803 4.99215C29.638 4.8368 29.5744 4.70263 29.4897 4.58258C29.4049 4.46253 29.299 4.3672 29.1754 4.29659C29.0483 4.22597 28.9036 4.18713 28.7411 4.18713C28.4057 4.18713 28.1515 4.30364 27.9821 4.53668C27.8125 4.76971 27.7278 5.08043 27.7278 5.46881C27.7278 5.65241 27.749 5.82189 27.7949 5.97725C27.8408 6.1326 27.9043 6.26678 27.9961 6.37976C28.0844 6.49275 28.1903 6.58102 28.3139 6.64457C28.4375 6.71166 28.5822 6.74343 28.7447 6.74343C28.9283 6.74343 29.0801 6.70459 29.2072 6.63045C29.3343 6.5563 29.4367 6.45744 29.5179 6.34092C29.5991 6.22087 29.6591 6.0867 29.6944 5.93488C29.7262 5.78306 29.7438 5.6277 29.7438 5.46881ZM31.1526 2.27344H31.9505V3.02903H31.1526V2.27344ZM31.1526 3.65398H31.9505V7.27656H31.1526V3.65398ZM32.6638 2.27344H33.4617V7.27656H32.6638V2.27344ZM35.9085 7.37547C35.619 7.37547 35.3613 7.32602 35.1353 7.2307C34.9093 7.13538 34.7187 7.00117 34.5597 6.83524C34.4044 6.66576 34.2843 6.4645 34.2032 6.23147C34.122 5.99844 34.0796 5.74069 34.0796 5.46175C34.0796 5.18635 34.122 4.93213 34.2032 4.6991C34.2843 4.46606 34.4044 4.26481 34.5597 4.09533C34.7151 3.92585 34.9093 3.79521 35.1353 3.69988C35.3613 3.60455 35.619 3.55512 35.9085 3.55512C36.198 3.55512 36.4558 3.60455 36.6818 3.69988C36.9077 3.79521 37.0983 3.92938 37.2572 4.09533C37.4126 4.26481 37.5326 4.46606 37.6138 4.6991C37.6951 4.93213 37.7374 5.18635 37.7374 5.46175C37.7374 5.74069 37.6951 5.99844 37.6138 6.23147C37.5326 6.4645 37.4126 6.66576 37.2572 6.83524C37.1019 7.00468 36.9077 7.13538 36.6818 7.2307C36.4558 7.32602 36.198 7.37547 35.9085 7.37547ZM35.9085 6.74343C36.085 6.74343 36.2404 6.70459 36.371 6.63045C36.5017 6.5563 36.6076 6.45744 36.6923 6.33739C36.7771 6.21735 36.8371 6.07964 36.8795 5.92782C36.9183 5.77599 36.9395 5.62064 36.9395 5.46175C36.9395 5.3064 36.9183 5.15457 36.8795 4.99922C36.8406 4.84386 36.7771 4.70969 36.6923 4.58964C36.6076 4.46959 36.5017 4.37426 36.371 4.30012C36.2404 4.22597 36.085 4.18713 35.9085 4.18713C35.732 4.18713 35.5766 4.22597 35.446 4.30012C35.3153 4.37426 35.2094 4.47312 35.1247 4.58964C35.0399 4.70969 34.9799 4.84386 34.9376 4.99922C34.8987 5.15457 34.8776 5.3064 34.8776 5.46175C34.8776 5.62064 34.8987 5.77599 34.9376 5.92782C34.9764 6.07964 35.0399 6.21735 35.1247 6.33739C35.2094 6.45744 35.3153 6.5563 35.446 6.63045C35.5766 6.70813 35.732 6.74343 35.9085 6.74343ZM37.9705 3.65398H38.5742V2.5665H39.3721V3.65398H40.0924V4.25069H39.3721V6.18557C39.3721 6.27031 39.3757 6.34092 39.3828 6.40448C39.3898 6.4645 39.4075 6.51746 39.4321 6.55983C39.4569 6.6022 39.4957 6.63398 39.5487 6.65516C39.6017 6.67635 39.6687 6.68694 39.7605 6.68694C39.817 6.68694 39.8735 6.68694 39.93 6.68341C39.9865 6.67988 40.043 6.67282 40.0995 6.65869V7.27656C40.0112 7.28719 39.9229 7.29422 39.8418 7.30484C39.757 7.31539 39.6722 7.31898 39.584 7.31898C39.3721 7.31898 39.2027 7.29774 39.0756 7.25891C38.9485 7.22008 38.8461 7.16007 38.7755 7.08241C38.7013 7.00468 38.6554 6.90937 38.6272 6.79286C38.6024 6.67635 38.5848 6.54218 38.5813 6.39388V4.25775H37.9775V3.65398H37.9705Z" fill="black"/>
<path d="M9.67857 3.58297H6.02072L4.89087 0.101562L3.75749 3.58297L0.0996094 3.57944L3.06192 5.73326L1.92855 9.21111L4.89087 7.06082L7.84968 9.21111L6.71981 5.73326L9.67857 3.58297Z" fill="#00B67A"/>
<path d="M6.97083 6.51736L6.71661 5.72998L4.8877 7.05756L6.97083 6.51736Z" fill="#005128"/>
</svg>
