<svg width="607" height="269" viewBox="0 0 607 269" fill="none" xmlns="http://www.w3.org/2000/svg">
<g clip-path="url(#clip0_155_2)">
<mask id="mask0_155_2" style="mask-type:luminance" maskUnits="userSpaceOnUse" x="0" y="0" width="607" height="269">
<path d="M607 0H0V268.273H607V0Z" fill="white"/>
</mask>
<g mask="url(#mask0_155_2)">
<path d="M155.428 32.2046H215.293V43.374H191.754V106.162H178.81V43.374H155.376L155.428 32.2046ZM212.735 52.6121H223.8V62.9464H224.009C224.374 61.4849 225.053 60.0757 226.044 58.7187C227.036 57.3617 228.236 56.0569 229.645 54.9608C231.055 53.8125 232.62 52.9253 234.343 52.1946C236.065 51.5161 237.84 51.1507 239.614 51.1507C240.971 51.1507 241.963 51.2029 242.485 51.2551C243.007 51.3073 243.529 51.4117 244.103 51.4639V62.842C243.268 62.6854 242.432 62.581 241.545 62.4766C240.658 62.3722 239.823 62.32 238.988 62.32C237.005 62.32 235.126 62.7376 233.351 63.5205C231.577 64.3034 230.063 65.5038 228.758 67.0174C227.453 68.5832 226.41 70.4622 225.627 72.7587C224.844 75.0552 224.478 77.6648 224.478 80.6398V106.11H212.683L212.735 52.6121ZM298.33 106.162H286.744V98.6987H286.535C285.073 101.413 282.934 103.553 280.063 105.171C277.192 106.789 274.27 107.624 271.295 107.624C264.249 107.624 259.134 105.901 256.002 102.404C252.871 98.9075 251.305 93.6359 251.305 86.5899V52.6121H263.101V85.4416C263.101 90.139 263.988 93.4794 265.815 95.4105C267.589 97.3417 270.146 98.3333 273.382 98.3333C275.888 98.3333 277.923 97.968 279.593 97.1851C281.263 96.4022 282.62 95.4105 283.612 94.1057C284.656 92.853 285.387 91.2873 285.856 89.5127C286.326 87.7381 286.535 85.807 286.535 83.7192V52.6643H298.33V106.162ZM318.424 88.9908C318.789 92.4355 320.094 94.8364 322.339 96.2456C324.635 97.6026 327.349 98.3333 330.533 98.3333C331.629 98.3333 332.881 98.2289 334.291 98.0724C335.7 97.9158 337.057 97.5504 338.257 97.0807C339.51 96.611 340.501 95.8803 341.336 94.9408C342.119 94.0013 342.485 92.8009 342.432 91.2873C342.38 89.7737 341.806 88.521 340.762 87.5815C339.719 86.5899 338.414 85.8592 336.796 85.2328C335.178 84.6587 333.351 84.1368 331.263 83.7192C329.176 83.3017 327.088 82.832 324.948 82.3622C322.756 81.8925 320.616 81.2662 318.581 80.5877C316.545 79.9091 314.719 78.9697 313.101 77.7692C311.483 76.621 310.178 75.1074 309.238 73.2806C308.247 71.4538 307.777 69.2095 307.777 66.4955C307.777 63.5727 308.508 61.1718 309.917 59.1884C311.326 57.2051 313.153 55.6393 315.293 54.4389C317.485 53.2384 319.886 52.4033 322.547 51.8815C325.209 51.4117 327.767 51.1507 330.167 51.1507C332.934 51.1507 335.595 51.4639 338.101 52.038C340.606 52.6121 342.902 53.5516 344.938 54.9086C346.973 56.2134 348.643 57.9358 350 60.0235C351.357 62.1113 352.192 64.6687 352.558 67.6437H340.24C339.666 64.8253 338.414 62.8942 336.378 61.9547C334.343 60.963 331.994 60.4933 329.384 60.4933C328.549 60.4933 327.558 60.5455 326.41 60.702C325.261 60.8586 324.217 61.1196 323.174 61.4849C322.182 61.8503 321.347 62.4244 320.616 63.1551C319.938 63.8858 319.572 64.8253 319.572 66.0257C319.572 67.4872 320.094 68.6354 321.086 69.5227C322.078 70.41 323.382 71.1407 325 71.767C326.618 72.3411 328.445 72.8631 330.533 73.2806C332.62 73.6982 334.76 74.1679 336.952 74.6376C339.092 75.1074 341.18 75.7337 343.268 76.4122C345.355 77.0907 347.182 78.0302 348.8 79.2306C350.418 80.4311 351.723 81.8925 352.714 83.667C353.706 85.4416 354.228 87.6859 354.228 90.2956C354.228 93.4794 353.497 96.1412 352.036 98.3855C350.574 100.578 348.696 102.404 346.399 103.761C344.103 105.118 341.493 106.162 338.675 106.789C335.856 107.415 333.038 107.728 330.272 107.728C326.879 107.728 323.748 107.363 320.877 106.58C318.007 105.797 315.501 104.649 313.414 103.135C311.326 101.569 309.656 99.6382 308.455 97.3417C307.255 95.0452 306.629 92.2789 306.524 89.0951H318.424V88.9908ZM357.359 52.6121H366.284V36.5367H378.08V52.6121H388.727V61.4328H378.08V90.0346C378.08 91.2873 378.132 92.3311 378.236 93.2706C378.341 94.1579 378.602 94.9408 378.967 95.5671C379.332 96.1934 379.906 96.6631 380.689 96.9763C381.472 97.2895 382.464 97.4461 383.821 97.4461C384.656 97.4461 385.491 97.446 386.326 97.3939C387.161 97.3417 387.996 97.2373 388.831 97.0285V106.162C387.526 106.319 386.222 106.423 385.021 106.58C383.769 106.736 382.516 106.789 381.211 106.789C378.08 106.789 375.574 106.475 373.696 105.901C371.817 105.327 370.303 104.44 369.259 103.292C368.163 102.143 367.485 100.734 367.067 99.0118C366.702 97.2895 366.441 95.3061 366.389 93.114V61.5371H357.464V52.6121H357.359ZM397.078 52.6121H408.247V59.867H408.455C410.126 56.7354 412.422 54.5433 415.397 53.1862C418.372 51.8293 421.556 51.1507 425.053 51.1507C429.28 51.1507 432.934 51.8815 436.065 53.395C439.197 54.8564 441.806 56.8919 443.894 59.5016C445.982 62.1113 447.495 65.1385 448.539 68.5832C449.583 72.028 450.105 75.7337 450.105 79.6482C450.105 83.2495 449.635 86.7464 448.696 90.0868C447.756 93.4794 446.347 96.4544 444.468 99.064C442.589 101.674 440.188 103.709 437.266 105.275C434.343 106.841 430.95 107.624 426.984 107.624C425.261 107.624 423.539 107.467 421.817 107.154C420.094 106.841 418.424 106.319 416.858 105.64C415.293 104.962 413.779 104.075 412.474 102.979C411.117 101.882 410.021 100.63 409.082 99.2206H408.873V125.944H397.078V52.6121ZM438.309 79.4394C438.309 77.0385 437.996 74.6898 437.37 72.3933C436.744 70.0968 435.804 68.1135 434.552 66.3389C433.299 64.5643 431.733 63.1551 429.906 62.1113C428.028 61.0674 425.888 60.4933 423.487 60.4933C418.529 60.4933 414.771 62.2156 412.266 65.6604C409.76 69.1051 408.508 73.6982 408.508 79.4394C408.508 82.1534 408.821 84.6587 409.499 86.9552C410.178 89.2517 411.117 91.2351 412.474 92.9052C413.779 94.5754 415.345 95.8803 417.172 96.8197C418.998 97.8114 421.138 98.2811 423.539 98.2811C426.253 98.2811 428.497 97.707 430.376 96.611C432.255 95.5149 433.769 94.0535 434.969 92.3311C436.169 90.5565 437.057 88.5732 437.579 86.3289C438.048 84.0846 438.309 81.7881 438.309 79.4394ZM459.134 32.2046H470.929V43.374H459.134V32.2046ZM459.134 52.6121H470.929V106.162H459.134V52.6121ZM481.472 32.2046H493.268V106.162H481.472V32.2046ZM529.437 107.624C525.157 107.624 521.347 106.893 518.007 105.484C514.666 104.075 511.848 102.091 509.499 99.6382C507.203 97.1329 505.428 94.1579 504.228 90.7131C503.028 87.2684 502.401 83.4583 502.401 79.335C502.401 75.2639 503.028 71.506 504.228 68.0613C505.428 64.6165 507.203 61.6415 509.499 59.1363C511.796 56.631 514.666 54.6998 518.007 53.2906C521.347 51.8814 525.157 51.1507 529.437 51.1507C533.716 51.1507 537.527 51.8814 540.867 53.2906C544.207 54.6998 547.025 56.6832 549.374 59.1363C551.671 61.6415 553.445 64.6165 554.645 68.0613C555.846 71.506 556.472 75.2639 556.472 79.335C556.472 83.4583 555.846 87.2684 554.645 90.7131C553.445 94.1579 551.671 97.1329 549.374 99.6382C547.078 102.143 544.207 104.075 540.867 105.484C537.527 106.893 533.716 107.624 529.437 107.624ZM529.437 98.2811C532.046 98.2811 534.343 97.707 536.274 96.611C538.205 95.5149 539.771 94.0535 541.023 92.2789C542.276 90.5044 543.163 88.4688 543.79 86.2245C544.364 83.9802 544.677 81.6837 544.677 79.335C544.677 77.0385 544.364 74.7942 543.79 72.4977C543.215 70.2012 542.276 68.2179 541.023 66.4433C539.771 64.6687 538.205 63.2595 536.274 62.1635C534.343 61.0674 532.046 60.4933 529.437 60.4933C526.827 60.4933 524.531 61.0674 522.6 62.1635C520.668 63.2595 519.103 64.7209 517.85 66.4433C516.597 68.2179 515.71 70.2012 515.084 72.4977C514.51 74.7942 514.197 77.0385 514.197 79.335C514.197 81.6837 514.51 83.9802 515.084 86.2245C515.658 88.4688 516.597 90.5044 517.85 92.2789C519.103 94.0535 520.668 95.5149 522.6 96.611C524.531 97.7592 526.827 98.2811 529.437 98.2811ZM559.917 52.6121H568.842V36.5367H580.637V52.6121H591.284V61.4328H580.637V90.0346C580.637 91.2873 580.689 92.3311 580.794 93.2706C580.898 94.1579 581.159 94.9408 581.524 95.5671C581.89 96.1934 582.464 96.6631 583.247 96.9763C584.03 97.2895 585.021 97.4461 586.378 97.4461C587.213 97.4461 588.048 97.446 588.884 97.3939C589.719 97.3417 590.554 97.2373 591.389 97.0285V106.162C590.084 106.319 588.779 106.423 587.579 106.58C586.326 106.736 585.073 106.789 583.769 106.789C580.637 106.789 578.132 106.475 576.253 105.901C574.374 105.327 572.861 104.44 571.817 103.292C570.721 102.143 570.042 100.734 569.625 99.0118C569.259 97.2895 568.998 95.3061 568.946 93.114V61.5371H560.021V52.6121H559.917Z" fill="white"/>
<path d="M141.698 51.5645H87.6268L70.9252 0.101562L54.1713 51.5645L0.0996094 51.5123L43.8892 83.3506L27.1354 134.761L70.9252 102.975L114.663 134.761L97.9609 83.3506L141.698 51.5645Z" fill="#00B67A"/>
<path d="M113.78 154.49H0V268.273H113.78V154.49Z" fill="#00B67A"/>
<path d="M237.042 154.49H123.262V268.273H237.042V154.49Z" fill="#00B67A"/>
<path d="M360.307 154.49H246.526V268.273H360.307V154.49Z" fill="#00B67A"/>
<path d="M483.569 154.49H369.789V268.273H483.569V154.49Z" fill="#00B67A"/>
<path d="M606.831 154.49H493.051V268.273H606.831V154.49Z" fill="#00B67A"/>
<path d="M56.8905 231.178L74.1947 226.792L81.4245 249.075L56.8905 231.178ZM96.714 202.377H66.254L56.8905 173.695L47.5274 202.377H17.0671L41.7198 220.155L32.3565 248.838L57.009 231.059L72.18 220.155L96.714 202.377Z" fill="white"/>
<path d="M180.153 231.178L197.457 226.792L204.687 249.075L180.153 231.178ZM219.976 202.377H189.516L180.153 173.695L170.79 202.377H140.329L164.982 220.155L155.619 248.838L180.271 231.059L195.442 220.155L219.976 202.377Z" fill="white"/>
<path d="M303.413 231.178L320.717 226.792L327.947 249.075L303.413 231.178ZM343.237 202.377H312.777L303.413 173.695L294.05 202.377H263.59L288.243 220.155L278.879 248.838L303.532 231.059L318.703 220.155L343.237 202.377Z" fill="white"/>
<path d="M426.673 231.178L443.977 226.792L451.207 249.075L426.673 231.178ZM466.496 202.377H436.036L426.673 173.695L417.31 202.377H386.849L411.502 220.155L402.139 248.838L426.791 231.059L441.962 220.155L466.496 202.377Z" fill="white"/>
<path d="M549.933 231.178L567.235 226.792L574.464 249.075L549.933 231.178ZM589.756 202.377H559.297L549.933 173.695L540.57 202.377H510.109L534.761 220.155L525.398 248.838L550.054 231.059L565.221 220.155L589.756 202.377Z" fill="white"/>
<path d="M101.671 94.9396L97.913 83.3004L70.8776 102.925L101.671 94.9396Z" fill="#005128"/>
</g>
</g>
<defs>
<clipPath id="clip0_155_2">
<rect width="607" height="268.273" fill="white"/>
</clipPath>
</defs>
</svg>
