<svg width="30" height="38" viewBox="0 0 30 38" fill="none" xmlns="http://www.w3.org/2000/svg">
<path fill-rule="evenodd" clip-rule="evenodd" d="M0 5.32258C0 2.38301 2.38301 0 5.32258 0H20.7809C21.8721 0 22.8964 0.525619 23.5326 1.41203L29.3646 9.537C29.7778 10.1127 30 10.8034 30 11.5121V32.4194C30 35.359 27.617 37.7419 24.6774 37.7419H5.32258C2.38301 37.7419 0 35.359 0 32.4194V5.32258ZM5.32258 2.90323C3.9864 2.90323 2.90323 3.9864 2.90323 5.32258V32.4194C2.90323 33.7556 3.9864 34.8387 5.32258 34.8387H24.6774C26.0137 34.8387 27.0968 33.7556 27.0968 32.4194V12.8653H20.8065C20.0048 12.8653 19.3548 12.2153 19.3548 11.4136V2.90323H5.32258Z" fill="white"/>
<path d="M20.9723 21.2294C20.4714 21.8555 19.558 21.9569 18.9319 21.4562L16.4518 19.4719V26.129C16.4518 26.9307 15.8018 27.5806 15.0002 27.5806C14.1983 27.5806 13.5486 26.9307 13.5486 26.129V19.4717L11.0681 21.4562C10.4421 21.9569 9.52861 21.8555 9.02781 21.2294C8.52698 20.6034 8.62848 19.6899 9.25451 19.189L14.088 15.3223C14.3344 15.1231 14.6471 15.0029 14.9878 15C14.9918 15 14.9959 15 15.0002 15H15.0048C15.3515 15.0012 15.6695 15.1237 15.9186 15.3275L20.7455 19.189C21.3716 19.6899 21.473 20.6034 20.9723 21.2294Z" fill="white"/>
</svg>
