<svg width="1080" height="950" viewBox="0 0 1080 950" fill="none" xmlns="http://www.w3.org/2000/svg">
<path fill-rule="evenodd" clip-rule="evenodd" d="M1012.29 847.765C1012.28 849.068 1012.22 850.37 1012.09 851.661C1011.95 852.958 1011.76 854.245 1011.51 855.521C1011.25 856.797 1010.93 858.057 1010.55 859.302C1010.17 860.547 1009.73 861.771 1009.23 862.969C1008.73 864.172 1008.18 865.349 1007.56 866.495C1006.95 867.64 1006.28 868.755 1005.55 869.838C1004.83 870.922 1004.06 871.963 1003.23 872.969C1002.4 873.974 1001.53 874.937 1000.61 875.859C999.688 876.781 998.729 877.651 997.719 878.479C996.714 879.302 995.672 880.078 994.589 880.802C993.51 881.526 992.396 882.198 991.25 882.812C990.099 883.427 988.927 883.984 987.724 884.484C986.521 884.979 985.302 885.422 984.057 885.802C982.813 886.182 981.552 886.5 980.276 886.755C979 887.01 977.714 887.203 976.422 887.338C975.125 887.469 973.828 887.531 972.526 887.536H107.198C105.896 887.531 104.599 887.469 103.302 887.338C102.01 887.203 100.724 887.01 99.4479 886.755C98.1719 886.5 96.9115 886.182 95.6667 885.802C94.4219 885.422 93.2031 884.979 92 884.484C90.7969 883.984 89.625 883.427 88.474 882.812C87.3281 882.198 86.2135 881.526 85.1354 880.802C84.0521 880.078 83.0104 879.302 82.0052 878.479C80.9948 877.651 80.0365 876.781 79.1146 875.859C78.1927 874.937 77.3229 873.974 76.4948 872.969C75.6719 871.963 74.8958 870.922 74.1719 869.838C73.4479 868.755 72.776 867.64 72.1615 866.495C71.5469 865.349 70.9896 864.172 70.4948 862.969C69.9948 861.771 69.5521 860.547 69.1719 859.302C68.7917 858.057 68.474 856.797 68.2188 855.521C67.9635 854.245 67.7708 852.958 67.6406 851.661C67.5052 850.37 67.4427 849.068 67.4375 847.765V232.594C67.4427 231.292 67.5052 229.995 67.6406 228.698C67.7708 227.401 67.9635 226.12 68.2188 224.844C68.474 223.568 68.7917 222.307 69.1719 221.057C69.5521 219.812 69.9896 218.594 70.4896 217.39C70.9896 216.187 71.5469 215.015 72.1615 213.864C72.776 212.719 73.4479 211.604 74.1719 210.521C74.8958 209.443 75.6667 208.396 76.4948 207.39C77.3177 206.385 78.1927 205.422 79.1146 204.5C80.0313 203.578 80.9948 202.708 82 201.88C83.0052 201.057 84.0521 200.281 85.1354 199.557C86.2135 198.833 87.3281 198.161 88.474 197.547C89.625 196.932 90.7969 196.375 92 195.875C93.1979 195.375 94.4219 194.937 95.6667 194.557C96.9115 194.177 98.1719 193.859 99.4479 193.604C100.724 193.349 102.01 193.151 103.302 193.021C104.599 192.89 105.896 192.823 107.198 192.823H972.526C973.828 192.823 975.125 192.89 976.422 193.021C977.714 193.151 979 193.349 980.276 193.604C981.552 193.859 982.813 194.177 984.057 194.557C985.302 194.937 986.526 195.375 987.724 195.875C988.927 196.375 990.099 196.932 991.25 197.547C992.396 198.161 993.51 198.833 994.594 199.557C995.672 200.281 996.719 201.057 997.724 201.88C998.729 202.708 999.693 203.578 1000.61 204.5C1001.53 205.422 1002.41 206.385 1003.23 207.39C1004.06 208.396 1004.83 209.443 1005.55 210.521C1006.28 211.604 1006.95 212.719 1007.56 213.864C1008.18 215.015 1008.73 216.187 1009.23 217.39C1009.73 218.594 1010.17 219.812 1010.55 221.057C1010.93 222.307 1011.25 223.568 1011.51 224.844C1011.76 226.12 1011.96 227.401 1012.09 228.698C1012.22 229.995 1012.28 231.292 1012.29 232.594V847.765Z" fill="#3D5966"/>
<path fill-rule="evenodd" clip-rule="evenodd" d="M945.76 755.047V265.745C945.76 265.333 945.719 264.922 945.641 264.516C945.557 264.104 945.437 263.714 945.281 263.328C945.12 262.943 944.927 262.578 944.693 262.234C944.463 261.891 944.203 261.573 943.911 261.276C943.615 260.984 943.297 260.724 942.953 260.495C942.609 260.261 942.245 260.068 941.859 259.906C941.479 259.75 941.083 259.63 940.677 259.547C940.271 259.469 939.859 259.427 939.443 259.427H140.344C139.927 259.422 139.516 259.464 139.109 259.542C138.698 259.62 138.302 259.74 137.917 259.896C137.536 260.057 137.172 260.25 136.823 260.479C136.479 260.708 136.156 260.974 135.865 261.266C135.568 261.563 135.307 261.88 135.078 262.224C134.849 262.573 134.651 262.938 134.495 263.323C134.338 263.708 134.219 264.104 134.141 264.511C134.057 264.917 134.021 265.328 134.021 265.745V755.047C134.021 755.464 134.057 755.875 134.141 756.281C134.219 756.693 134.338 757.089 134.495 757.469C134.651 757.854 134.849 758.219 135.078 758.568C135.307 758.912 135.568 759.235 135.865 759.526C136.156 759.818 136.479 760.083 136.823 760.313C137.172 760.542 137.536 760.74 137.917 760.896C138.302 761.052 138.698 761.172 139.109 761.25C139.516 761.328 139.927 761.37 140.344 761.365H939.443C939.859 761.365 940.271 761.328 940.677 761.245C941.083 761.162 941.479 761.042 941.859 760.886C942.245 760.724 942.609 760.531 942.953 760.302C943.297 760.068 943.615 759.807 943.911 759.516C944.203 759.219 944.463 758.901 944.693 758.557C944.927 758.214 945.12 757.849 945.281 757.464C945.437 757.083 945.557 756.688 945.641 756.281C945.719 755.875 945.76 755.464 945.76 755.047Z" fill="#60B7FF"/>
<mask id="mask0_251_122" style="mask-type:luminance" maskUnits="userSpaceOnUse" x="16" y="826" width="1048" height="124">
<path d="M16.2292 826.667H1063.49V949.333H16.2292V826.667Z" fill="white"/>
</mask>
<g mask="url(#mask0_251_122)">
<path fill-rule="evenodd" clip-rule="evenodd" d="M22.547 827.969H1057.18C1057.59 827.969 1058 828.005 1058.41 828.083C1058.81 828.161 1059.2 828.276 1059.59 828.432C1059.97 828.589 1060.33 828.781 1060.68 829.01C1061.03 829.24 1061.34 829.495 1061.64 829.786C1061.93 830.078 1062.19 830.396 1062.42 830.74C1062.66 831.078 1062.85 831.443 1063.01 831.823C1063.17 832.203 1063.29 832.599 1063.37 833.005C1063.45 833.411 1063.49 833.818 1063.49 834.229V888.552C1063.49 890.536 1063.39 892.51 1063.19 894.484C1062.99 896.458 1062.69 898.417 1062.3 900.359C1061.91 902.302 1061.43 904.224 1060.85 906.12C1060.27 908.016 1059.6 909.88 1058.84 911.708C1058.08 913.542 1057.23 915.328 1056.3 917.078C1055.36 918.823 1054.34 920.521 1053.24 922.172C1052.14 923.818 1050.95 925.406 1049.7 926.943C1048.44 928.474 1047.11 929.938 1045.71 931.344C1044.31 932.745 1042.84 934.073 1041.31 935.333C1039.78 936.589 1038.19 937.771 1036.54 938.875C1034.89 939.974 1033.19 940.995 1031.45 941.932C1029.7 942.87 1027.91 943.719 1026.08 944.479C1024.25 945.24 1022.39 945.911 1020.49 946.49C1018.6 947.068 1016.68 947.552 1014.73 947.943C1012.79 948.333 1010.83 948.625 1008.86 948.828C1006.89 949.026 1004.91 949.125 1002.93 949.13H76.797C74.8126 949.125 72.8334 949.026 70.8647 948.828C68.8907 948.625 66.9324 948.333 64.9897 947.943C63.047 947.552 61.1303 947.068 59.2345 946.49C57.3386 945.906 55.474 945.24 53.6407 944.479C51.8126 943.719 50.0261 942.87 48.2761 941.932C46.5313 940.995 44.8334 939.974 43.1876 938.875C41.5365 937.771 39.948 936.589 38.4167 935.333C36.8855 934.073 35.4167 932.745 34.0157 931.344C32.6147 929.938 31.2865 928.474 30.0261 926.938C28.7709 925.406 27.5886 923.818 26.4845 922.172C25.3855 920.521 24.3647 918.823 23.4272 917.078C22.4949 915.328 21.6459 913.542 20.8855 911.708C20.1251 909.88 19.4532 908.016 18.8751 906.12C18.297 904.224 17.8126 902.302 17.422 900.359C17.0313 898.417 16.7345 896.458 16.5365 894.484C16.3386 892.51 16.2345 890.536 16.2292 888.552V834.229C16.2345 833.818 16.2761 833.411 16.3595 833.005C16.4428 832.604 16.5626 832.208 16.724 831.828C16.8855 831.448 17.0834 831.089 17.3126 830.745C17.5417 830.406 17.8074 830.089 18.099 829.797C18.3907 829.51 18.7084 829.25 19.0522 829.021C19.3959 828.792 19.7605 828.599 20.1407 828.443C20.5261 828.286 20.9167 828.167 21.323 828.089C21.7292 828.01 22.1355 827.969 22.547 827.969Z" fill="#4B6E7D"/>
</g>
<path fill-rule="evenodd" clip-rule="evenodd" d="M431.13 827.969H648.594V857.724C648.594 858.698 648.542 859.672 648.443 860.641C648.344 861.609 648.203 862.573 648.01 863.531C647.818 864.484 647.578 865.427 647.297 866.359C647.01 867.292 646.682 868.208 646.312 869.109C645.937 870.01 645.521 870.891 645.062 871.745C644.599 872.604 644.099 873.443 643.562 874.25C643.021 875.063 642.437 875.844 641.823 876.599C641.203 877.349 640.552 878.073 639.865 878.76C639.177 879.453 638.453 880.109 637.703 880.724C636.948 881.344 636.172 881.927 635.359 882.469C634.552 883.01 633.719 883.516 632.859 883.974C632 884.438 631.125 884.854 630.224 885.229C629.323 885.604 628.411 885.938 627.479 886.224C626.547 886.51 625.604 886.75 624.651 886.943C623.693 887.135 622.734 887.281 621.766 887.38C620.797 887.479 619.823 887.531 618.849 887.536H460.943C459.963 887.536 458.995 887.484 458.021 887.385C457.052 887.286 456.088 887.141 455.13 886.948C454.177 886.755 453.234 886.521 452.297 886.234C451.365 885.948 450.448 885.62 449.547 885.245C448.646 884.87 447.771 884.453 446.906 883.99C446.047 883.531 445.213 883.026 444.401 882.484C443.594 881.943 442.812 881.365 442.057 880.745C441.302 880.125 440.583 879.469 439.891 878.781C439.203 878.089 438.547 877.37 437.927 876.615C437.307 875.859 436.729 875.078 436.187 874.266C435.646 873.458 435.141 872.62 434.682 871.76C434.219 870.901 433.802 870.021 433.427 869.12C433.052 868.219 432.724 867.302 432.437 866.37C432.156 865.438 431.917 864.49 431.724 863.536C431.531 862.578 431.385 861.615 431.286 860.646C431.193 859.672 431.141 858.703 431.135 857.724L431.13 827.969Z" fill="#EAF6FF"/>
<path fill-rule="evenodd" clip-rule="evenodd" d="M306.062 0.40625H661.052L773.661 113.042V564.479H306.062V0.40625Z" fill="#EAF6FF"/>
<path fill-rule="evenodd" clip-rule="evenodd" d="M661.052 0.40625V113.042H773.661L661.052 0.40625Z" fill="#D3DDE6"/>
<path fill-rule="evenodd" clip-rule="evenodd" d="M501.406 446.177H578.37C578.781 446.172 579.188 446.13 579.594 446.047C579.995 445.964 580.391 445.844 580.771 445.682C581.151 445.521 581.511 445.323 581.854 445.094C582.193 444.865 582.511 444.599 582.802 444.307C583.089 444.016 583.349 443.698 583.578 443.354C583.807 443.011 583.995 442.646 584.156 442.266C584.313 441.88 584.427 441.49 584.511 441.084C584.589 440.677 584.625 440.271 584.625 439.86V272.485C584.63 272.068 584.672 271.662 584.755 271.255C584.839 270.849 584.958 270.453 585.12 270.073C585.276 269.688 585.474 269.328 585.703 268.985C585.938 268.641 586.198 268.318 586.49 268.026C586.781 267.735 587.099 267.474 587.443 267.24C587.787 267.011 588.151 266.818 588.531 266.656C588.917 266.495 589.307 266.375 589.714 266.292C590.12 266.209 590.531 266.167 590.943 266.162H617.12C618.266 266.167 619.339 265.88 620.328 265.297C621.323 264.719 622.094 263.922 622.651 262.917C623.214 261.917 623.474 260.839 623.443 259.688C623.417 258.542 623.094 257.479 622.484 256.505L545.229 133.552C545.083 133.328 544.927 133.115 544.761 132.906C544.589 132.703 544.406 132.505 544.214 132.323C544.016 132.141 543.813 131.974 543.599 131.818C543.38 131.656 543.156 131.516 542.922 131.386C542.688 131.261 542.448 131.146 542.203 131.047C541.953 130.948 541.703 130.865 541.443 130.802C541.182 130.735 540.922 130.682 540.656 130.651C540.396 130.62 540.13 130.599 539.865 130.599C539.594 130.599 539.328 130.62 539.068 130.651C538.802 130.682 538.542 130.735 538.281 130.802C538.026 130.865 537.771 130.948 537.521 131.047C537.276 131.146 537.037 131.261 536.802 131.386C536.568 131.516 536.344 131.656 536.125 131.818C535.912 131.974 535.708 132.141 535.511 132.323C535.318 132.505 535.136 132.703 534.964 132.906C534.797 133.115 534.641 133.328 534.495 133.552L457.302 256.505C456.682 257.474 456.359 258.531 456.323 259.677C456.287 260.823 456.542 261.901 457.094 262.906C457.646 263.912 458.417 264.703 459.406 265.287C460.391 265.875 461.458 266.162 462.604 266.162H488.776C489.188 266.167 489.599 266.209 490.005 266.292C490.412 266.375 490.802 266.495 491.188 266.656C491.568 266.818 491.932 267.011 492.276 267.24C492.62 267.474 492.938 267.735 493.229 268.026C493.521 268.318 493.787 268.636 494.016 268.985C494.245 269.328 494.443 269.688 494.599 270.073C494.76 270.453 494.88 270.849 494.964 271.255C495.047 271.662 495.089 272.068 495.094 272.485V439.86C495.094 440.271 495.135 440.682 495.214 441.089C495.297 441.495 495.417 441.891 495.573 442.276C495.734 442.656 495.927 443.021 496.162 443.37C496.391 443.714 496.651 444.031 496.943 444.323C497.24 444.62 497.557 444.88 497.901 445.11C498.245 445.344 498.609 445.537 498.995 445.693C499.375 445.854 499.771 445.974 500.177 446.057C500.589 446.136 500.995 446.177 501.412 446.177H501.406Z" fill="#3BB54A"/>
<path d="M663.677 484.219C664.646 484.219 665.599 484.313 666.552 484.5C667.5 484.693 668.417 484.969 669.313 485.339C670.208 485.708 671.052 486.167 671.859 486.703C672.662 487.24 673.406 487.849 674.089 488.536C674.776 489.219 675.386 489.964 675.922 490.766C676.458 491.573 676.912 492.422 677.281 493.313C677.651 494.208 677.932 495.13 678.12 496.078C678.307 497.026 678.406 497.984 678.406 498.948C678.406 499.917 678.307 500.875 678.12 501.823C677.932 502.771 677.651 503.693 677.281 504.589C676.912 505.479 676.458 506.328 675.922 507.135C675.386 507.938 674.776 508.682 674.089 509.365C673.406 510.052 672.662 510.661 671.859 511.198C671.052 511.734 670.208 512.188 669.313 512.557C668.417 512.932 667.5 513.208 666.552 513.396C665.599 513.589 664.646 513.682 663.677 513.682H416.047C415.078 513.682 414.125 513.589 413.172 513.396C412.224 513.208 411.307 512.932 410.412 512.557C409.521 512.188 408.672 511.734 407.865 511.198C407.063 510.661 406.318 510.052 405.635 509.365C404.948 508.682 404.339 507.938 403.802 507.135C403.266 506.328 402.813 505.479 402.443 504.589C402.073 503.693 401.792 502.771 401.604 501.823C401.417 500.875 401.323 499.917 401.323 498.948C401.323 497.984 401.417 497.026 401.604 496.078C401.792 495.13 402.073 494.208 402.443 493.313C402.813 492.422 403.266 491.573 403.802 490.766C404.339 489.964 404.948 489.219 405.635 488.536C406.318 487.849 407.063 487.24 407.865 486.703C408.672 486.167 409.521 485.708 410.412 485.339C411.307 484.969 412.224 484.693 413.172 484.5C414.125 484.313 415.078 484.219 416.047 484.219H663.677Z" fill="#3BB54A"/>
<path fill-rule="evenodd" clip-rule="evenodd" d="M181 761.365V259.427H140.344C139.927 259.422 139.516 259.464 139.109 259.542C138.698 259.62 138.302 259.74 137.917 259.896C137.536 260.057 137.172 260.25 136.823 260.479C136.479 260.708 136.156 260.974 135.865 261.266C135.568 261.563 135.307 261.88 135.078 262.224C134.849 262.573 134.651 262.938 134.495 263.323C134.338 263.708 134.219 264.104 134.141 264.511C134.057 264.917 134.021 265.328 134.021 265.745V755.047C134.021 755.464 134.057 755.875 134.141 756.281C134.219 756.693 134.338 757.089 134.495 757.469C134.651 757.854 134.849 758.219 135.078 758.568C135.307 758.912 135.568 759.235 135.865 759.526C136.156 759.818 136.479 760.083 136.823 760.313C137.172 760.542 137.536 760.74 137.917 760.896C138.302 761.052 138.698 761.172 139.109 761.25C139.516 761.328 139.927 761.37 140.344 761.365H181Z" fill="#56A5E6"/>
<path fill-rule="evenodd" clip-rule="evenodd" d="M134.021 755.047V265.745C134.021 265.328 134.057 264.917 134.141 264.51C134.219 264.104 134.339 263.708 134.495 263.323C134.651 262.937 134.849 262.573 135.078 262.224C135.307 261.88 135.568 261.562 135.865 261.265C136.156 260.974 136.479 260.708 136.823 260.479C137.172 260.25 137.536 260.057 137.917 259.896C138.302 259.739 138.698 259.62 139.109 259.542C139.516 259.463 139.927 259.422 140.344 259.427H181V192.823H107.198C105.896 192.823 104.599 192.89 103.302 193.021C102.01 193.151 100.724 193.349 99.4479 193.604C98.1719 193.859 96.9115 194.177 95.6667 194.557C94.4219 194.937 93.1979 195.375 92 195.875C90.7969 196.375 89.625 196.932 88.474 197.547C87.3281 198.161 86.2135 198.833 85.1354 199.557C84.0521 200.281 83.0052 201.057 82 201.88C80.9948 202.708 80.0313 203.578 79.1146 204.5C78.1927 205.422 77.3177 206.385 76.4948 207.39C75.6667 208.396 74.8958 209.443 74.1719 210.521C73.4479 211.604 72.776 212.719 72.1615 213.864C71.5469 215.01 70.9896 216.187 70.4896 217.39C69.9896 218.594 69.5521 219.812 69.1719 221.057C68.7917 222.307 68.474 223.568 68.2188 224.844C67.9635 226.12 67.7708 227.401 67.6406 228.698C67.5052 229.995 67.4427 231.292 67.4375 232.594V827.969H181V761.364H140.344C139.927 761.37 139.516 761.328 139.109 761.25C138.698 761.172 138.302 761.052 137.917 760.896C137.536 760.739 137.172 760.542 136.823 760.312C136.479 760.083 136.156 759.818 135.865 759.526C135.568 759.234 135.307 758.911 135.078 758.568C134.849 758.219 134.651 757.854 134.495 757.469C134.339 757.088 134.219 756.693 134.141 756.281C134.057 755.875 134.021 755.463 134.021 755.047Z" fill="#37505C"/>
<mask id="mask1_251_122" style="mask-type:luminance" maskUnits="userSpaceOnUse" x="16" y="826" width="166" height="124">
<path d="M16.2292 826.667H181.333V949.333H16.2292V826.667Z" fill="white"/>
</mask>
<g mask="url(#mask1_251_122)">
<path fill-rule="evenodd" clip-rule="evenodd" d="M181 827.969H22.547C22.1355 827.969 21.7292 828.01 21.323 828.089C20.9167 828.167 20.5261 828.286 20.1407 828.443C19.7605 828.599 19.3959 828.792 19.0522 829.021C18.7084 829.25 18.3907 829.51 18.099 829.797C17.8074 830.089 17.5417 830.406 17.3126 830.745C17.0834 831.089 16.8855 831.448 16.724 831.828C16.5626 832.208 16.4428 832.604 16.3595 833.005C16.2761 833.411 16.2345 833.818 16.2292 834.229V888.552C16.2345 890.536 16.3386 892.51 16.5365 894.484C16.7345 896.458 17.0313 898.417 17.422 900.359C17.8126 902.302 18.297 904.224 18.8751 906.12C19.4532 908.016 20.1251 909.88 20.8855 911.708C21.6459 913.542 22.4949 915.328 23.4272 917.078C24.3647 918.823 25.3855 920.521 26.4845 922.172C27.5886 923.818 28.7709 925.406 30.0261 926.938C31.2865 928.474 32.6147 929.938 34.0157 931.344C35.4167 932.745 36.8855 934.073 38.4167 935.333C39.948 936.589 41.5365 937.771 43.1876 938.875C44.8334 939.974 46.5313 940.995 48.2761 941.932C50.0261 942.87 51.8126 943.719 53.6407 944.479C55.474 945.24 57.3386 945.906 59.2345 946.49C61.1303 947.068 63.047 947.552 64.9897 947.943C66.9324 948.333 68.8907 948.625 70.8647 948.828C72.8334 949.026 74.8126 949.125 76.797 949.13H181V827.969Z" fill="#446371"/>
</g>
<path fill-rule="evenodd" clip-rule="evenodd" d="M339.984 192.823V0.40625H306.062V564.479H339.984V192.823Z" fill="#D3DDE6"/>
</svg>
