<svg xmlns="http://www.w3.org/2000/svg" xmlns:xlink="http://www.w3.org/1999/xlink" width="496" zoomAndPan="magnify" viewBox="0 0 372 172.499995" height="230" preserveAspectRatio="xMidYMid meet" version="1.0"><defs><g/><clipPath id="c4992b9d3b"><path d="M 120 8.917969 L 177.066406 8.917969 L 177.066406 51 L 120 51 Z M 120 8.917969 " clip-rule="nonzero"/></clipPath><clipPath id="3d38876034"><path d="M 0.578125 36 L 139 36 L 139 131.5625 L 0.578125 131.5625 Z M 0.578125 36 " clip-rule="nonzero"/></clipPath></defs><g fill="#183d4c" fill-opacity="1"><g transform="translate(110.720072, 134.066663)"><g><path d="M 51.84375 -31.96875 L 51.84375 -39.625 C 51.84375 -52.25 51.21875 -60.21875 49.96875 -63.53125 C 48.59375 -67.320312 46.628906 -69.664062 44.078125 -70.5625 C 42.628906 -71.113281 40.867188 -71.390625 38.796875 -71.390625 C 36.734375 -71.390625 34.957031 -71.113281 33.46875 -70.5625 C 31.988281 -70.007812 30.765625 -69.039062 29.796875 -67.65625 C 28.828125 -66.28125 28.050781 -64.832031 27.46875 -63.3125 C 26.882812 -61.800781 26.421875 -59.664062 26.078125 -56.90625 C 25.660156 -52.90625 25.453125 -47.007812 25.453125 -39.21875 L 25.453125 -31.765625 C 25.453125 -23.347656 25.78125 -17.363281 26.4375 -13.8125 C 27.09375 -10.257812 27.90625 -7.722656 28.875 -6.203125 C 31.007812 -2.828125 34.316406 -1.140625 38.796875 -1.140625 C 44.242188 -1.140625 47.78125 -3.429688 49.40625 -8.015625 C 51.03125 -12.609375 51.84375 -20.59375 51.84375 -31.96875 Z M 38.59375 1.03125 C 27.070312 1.03125 18.46875 -2.085938 12.78125 -8.328125 C 7.09375 -14.566406 4.25 -23.601562 4.25 -35.4375 C 4.25 -47.269531 7.300781 -56.582031 13.40625 -63.375 C 19.507812 -70.164062 28.144531 -73.5625 39.3125 -73.5625 C 50.488281 -73.5625 58.921875 -70.335938 64.609375 -63.890625 C 70.304688 -57.441406 73.15625 -48.285156 73.15625 -36.421875 C 73.15625 -24.554688 70.273438 -15.347656 64.515625 -8.796875 C 58.753906 -2.242188 50.113281 1.03125 38.59375 1.03125 Z M 38.59375 1.03125 "/></g></g></g><g fill="#183d4c" fill-opacity="1"><g transform="translate(188.112023, 134.066663)"><g><path d="M 2.59375 -72.421875 L 34.140625 -72.421875 L 34.140625 -70.46875 L 28.453125 -70.46875 L 28.453125 -37.765625 L 29.28125 -37.96875 L 58.453125 -70.46875 L 50.28125 -70.46875 L 50.28125 -72.421875 L 68.390625 -72.421875 L 68.390625 -70.46875 L 62.1875 -70.46875 L 44.390625 -50.59375 L 69.21875 -1.96875 L 74.8125 -1.96875 L 74.8125 0 L 41.59375 0 L 41.59375 -1.96875 L 46.453125 -1.96875 L 29.390625 -34.96875 L 28.453125 -34.765625 L 28.453125 -1.96875 L 34.140625 -1.96875 L 34.140625 0 L 2.59375 0 L 2.59375 -1.96875 L 8.28125 -1.96875 L 8.28125 -70.46875 L 2.59375 -70.46875 Z M 2.59375 -72.421875 "/></g></g></g><g fill="#183d4c" fill-opacity="1"><g transform="translate(264.05546, 134.066663)"><g><path d="M 2.59375 -72.421875 L 34.140625 -72.421875 L 34.140625 -70.46875 L 28.453125 -70.46875 L 28.453125 -1.96875 L 34.140625 -1.96875 L 34.140625 0 L 2.59375 0 L 2.59375 -1.96875 L 8.28125 -1.96875 L 8.28125 -70.46875 L 2.59375 -70.46875 Z M 2.59375 -72.421875 "/></g></g></g><g fill="#183d4c" fill-opacity="1"><g transform="translate(300.785591, 134.066663)"><g><path d="M 65.8125 -72.421875 L 66.84375 -46.453125 L 64.875 -46.453125 C 61.84375 -55.628906 59.148438 -61.890625 56.796875 -65.234375 C 54.453125 -68.578125 51.078125 -70.25 46.671875 -70.25 L 45.421875 -70.25 L 45.421875 -2.171875 L 54.21875 -2.171875 L 54.21875 0 L 16.453125 0 L 16.453125 -2.171875 L 25.25 -2.171875 L 25.25 -70.25 L 23.90625 -70.25 C 19.488281 -70.25 16.070312 -68.507812 13.65625 -65.03125 C 11.238281 -61.550781 8.582031 -55.359375 5.6875 -46.453125 L 3.71875 -46.453125 L 4.765625 -72.421875 Z M 65.8125 -72.421875 "/></g></g></g><g fill="#183d4c" fill-opacity="1"><g transform="translate(48.671984, 161.821171)"><g><path d="M 8.90625 0 L 6.765625 0 L 6.765625 -7.15625 L 0.46875 -18.21875 L 2.8125 -18.21875 L 7.734375 -9.6875 L 8.046875 -9.6875 L 12.921875 -18.21875 L 15.203125 -18.21875 L 8.90625 -7.15625 Z M 8.90625 0 "/></g></g></g><g fill="#183d4c" fill-opacity="1"><g transform="translate(64.342424, 161.821171)"><g><path d="M 7.890625 0.265625 C 6.597656 0.265625 5.46875 -0.0078125 4.5 -0.5625 C 3.539062 -1.113281 2.800781 -1.921875 2.28125 -2.984375 C 1.769531 -4.054688 1.515625 -5.351562 1.515625 -6.875 C 1.515625 -8.394531 1.769531 -9.6875 2.28125 -10.75 C 2.800781 -11.820312 3.539062 -12.632812 4.5 -13.1875 C 5.46875 -13.738281 6.597656 -14.015625 7.890625 -14.015625 C 9.191406 -14.015625 10.320312 -13.738281 11.28125 -13.1875 C 12.238281 -12.632812 12.976562 -11.820312 13.5 -10.75 C 14.019531 -9.6875 14.28125 -8.394531 14.28125 -6.875 C 14.28125 -5.351562 14.019531 -4.054688 13.5 -2.984375 C 12.976562 -1.921875 12.238281 -1.113281 11.28125 -0.5625 C 10.320312 -0.0078125 9.191406 0.265625 7.890625 0.265625 Z M 7.890625 -1.5625 C 9.265625 -1.5625 10.3125 -1.992188 11.03125 -2.859375 C 11.757812 -3.722656 12.125 -5.0625 12.125 -6.875 C 12.125 -8.6875 11.757812 -10.023438 11.03125 -10.890625 C 10.3125 -11.753906 9.265625 -12.1875 7.890625 -12.1875 C 6.515625 -12.1875 5.460938 -11.753906 4.734375 -10.890625 C 4.003906 -10.023438 3.640625 -8.6875 3.640625 -6.875 C 3.640625 -5.0625 4.003906 -3.722656 4.734375 -2.859375 C 5.460938 -1.992188 6.515625 -1.5625 7.890625 -1.5625 Z M 7.890625 -1.5625 "/></g></g></g><g fill="#183d4c" fill-opacity="1"><g transform="translate(80.125056, 161.821171)"><g><path d="M 6.796875 0.265625 C 5.242188 0.265625 4.085938 -0.144531 3.328125 -0.96875 C 2.566406 -1.789062 2.1875 -3 2.1875 -4.59375 L 2.1875 -13.75 L 4.21875 -13.75 L 4.21875 -4.640625 C 4.21875 -2.554688 5.195312 -1.515625 7.15625 -1.515625 C 8.40625 -1.515625 9.390625 -1.921875 10.109375 -2.734375 C 10.828125 -3.546875 11.1875 -4.863281 11.1875 -6.6875 L 11.1875 -13.75 L 13.234375 -13.75 L 13.234375 0 L 11.3125 0 L 11.3125 -2.15625 L 11.046875 -2.21875 C 10.566406 -1.375 10 -0.75 9.34375 -0.34375 C 8.6875 0.0625 7.835938 0.265625 6.796875 0.265625 Z M 6.796875 0.265625 "/></g></g></g><g fill="#183d4c" fill-opacity="1"><g transform="translate(95.745629, 161.821171)"><g><path d="M 2.390625 0 L 2.390625 -13.75 L 4.328125 -13.75 L 4.328125 -11.59375 L 4.59375 -11.53125 C 5.226562 -13.09375 6.429688 -13.875 8.203125 -13.875 C 9.140625 -13.875 9.84375 -13.703125 10.3125 -13.359375 L 9.78125 -11.640625 L 9.53125 -11.59375 C 9.019531 -11.851562 8.457031 -11.984375 7.84375 -11.984375 C 6.75 -11.984375 5.90625 -11.570312 5.3125 -10.75 C 4.71875 -9.925781 4.421875 -8.59375 4.421875 -6.75 L 4.421875 0 Z M 2.390625 0 "/></g></g></g><g fill="#183d4c" fill-opacity="1"><g transform="translate(106.367117, 161.821171)"><g/></g></g><g fill="#183d4c" fill-opacity="1"><g transform="translate(112.625317, 161.821171)"><g><path d="M 14.21875 -18.21875 L 14.21875 -16.40625 L 8.515625 -16.40625 L 8.515625 0 L 6.390625 0 L 6.390625 -16.40625 L 0.671875 -16.40625 L 0.671875 -18.21875 Z M 14.21875 -18.21875 "/></g></g></g><g fill="#183d4c" fill-opacity="1"><g transform="translate(127.510359, 161.821171)"><g><path d="M 2.390625 0 L 2.390625 -13.75 L 4.328125 -13.75 L 4.328125 -11.59375 L 4.59375 -11.53125 C 5.226562 -13.09375 6.429688 -13.875 8.203125 -13.875 C 9.140625 -13.875 9.84375 -13.703125 10.3125 -13.359375 L 9.78125 -11.640625 L 9.53125 -11.59375 C 9.019531 -11.851562 8.457031 -11.984375 7.84375 -11.984375 C 6.75 -11.984375 5.90625 -11.570312 5.3125 -10.75 C 4.71875 -9.925781 4.421875 -8.59375 4.421875 -6.75 L 4.421875 0 Z M 2.390625 0 "/></g></g></g><g fill="#183d4c" fill-opacity="1"><g transform="translate(138.131847, 161.821171)"><g><path d="M 6.796875 0.265625 C 5.242188 0.265625 4.085938 -0.144531 3.328125 -0.96875 C 2.566406 -1.789062 2.1875 -3 2.1875 -4.59375 L 2.1875 -13.75 L 4.21875 -13.75 L 4.21875 -4.640625 C 4.21875 -2.554688 5.195312 -1.515625 7.15625 -1.515625 C 8.40625 -1.515625 9.390625 -1.921875 10.109375 -2.734375 C 10.828125 -3.546875 11.1875 -4.863281 11.1875 -6.6875 L 11.1875 -13.75 L 13.234375 -13.75 L 13.234375 0 L 11.3125 0 L 11.3125 -2.15625 L 11.046875 -2.21875 C 10.566406 -1.375 10 -0.75 9.34375 -0.34375 C 8.6875 0.0625 7.835938 0.265625 6.796875 0.265625 Z M 6.796875 0.265625 "/></g></g></g><g fill="#183d4c" fill-opacity="1"><g transform="translate(153.75242, 161.821171)"><g><path d="M 6.265625 0.265625 C 5.398438 0.265625 4.597656 0.148438 3.859375 -0.078125 C 3.128906 -0.304688 2.507812 -0.617188 2 -1.015625 C 1.5 -1.421875 1.144531 -1.875 0.9375 -2.375 L 2.125 -3.609375 L 2.390625 -3.609375 C 2.835938 -2.929688 3.378906 -2.421875 4.015625 -2.078125 C 4.648438 -1.734375 5.398438 -1.5625 6.265625 -1.5625 C 7.285156 -1.5625 8.054688 -1.757812 8.578125 -2.15625 C 9.109375 -2.550781 9.375 -3.097656 9.375 -3.796875 C 9.375 -4.335938 9.210938 -4.785156 8.890625 -5.140625 C 8.578125 -5.492188 8.0625 -5.757812 7.34375 -5.9375 L 5.03125 -6.5 C 3.789062 -6.800781 2.882812 -7.273438 2.3125 -7.921875 C 1.738281 -8.578125 1.453125 -9.378906 1.453125 -10.328125 C 1.453125 -11.078125 1.644531 -11.726562 2.03125 -12.28125 C 2.414062 -12.832031 2.96875 -13.257812 3.6875 -13.5625 C 4.40625 -13.863281 5.257812 -14.015625 6.25 -14.015625 C 7.507812 -14.015625 8.503906 -13.835938 9.234375 -13.484375 C 9.960938 -13.128906 10.53125 -12.632812 10.9375 -12 L 9.78125 -10.890625 L 9.53125 -10.890625 C 9.09375 -11.390625 8.613281 -11.75 8.09375 -11.96875 C 7.570312 -12.195312 6.957031 -12.3125 6.25 -12.3125 C 5.34375 -12.3125 4.644531 -12.148438 4.15625 -11.828125 C 3.675781 -11.503906 3.4375 -11.035156 3.4375 -10.421875 C 3.4375 -9.867188 3.609375 -9.421875 3.953125 -9.078125 C 4.296875 -8.734375 4.890625 -8.457031 5.734375 -8.25 L 8.015625 -7.703125 C 9.210938 -7.421875 10.078125 -6.953125 10.609375 -6.296875 C 11.140625 -5.640625 11.40625 -4.816406 11.40625 -3.828125 C 11.40625 -3.023438 11.210938 -2.3125 10.828125 -1.6875 C 10.453125 -1.070312 9.875 -0.59375 9.09375 -0.25 C 8.320312 0.09375 7.378906 0.265625 6.265625 0.265625 Z M 6.265625 0.265625 "/></g></g></g><g fill="#183d4c" fill-opacity="1"><g transform="translate(166.468285, 161.821171)"><g><path d="M 9.296875 -2.1875 L 9.953125 -0.71875 C 9.628906 -0.394531 9.203125 -0.148438 8.671875 0.015625 C 8.140625 0.179688 7.566406 0.265625 6.953125 0.265625 C 4.328125 0.265625 3.015625 -1.066406 3.015625 -3.734375 L 3.015625 -12.09375 L 0.625 -12.09375 L 0.625 -13.765625 L 3.015625 -13.765625 L 3.015625 -16.671875 L 5.046875 -17 L 5.046875 -13.765625 L 9.46875 -13.765625 L 9.46875 -12.09375 L 5.046875 -12.09375 L 5.046875 -3.921875 C 5.046875 -2.347656 5.734375 -1.5625 7.109375 -1.5625 C 7.859375 -1.5625 8.5 -1.769531 9.03125 -2.1875 Z M 9.296875 -2.1875 "/></g></g></g><g fill="#183d4c" fill-opacity="1"><g transform="translate(176.940174, 161.821171)"><g><path d="M 13.109375 -6.40625 L 3.65625 -6.40625 C 3.707031 -4.738281 4.101562 -3.515625 4.84375 -2.734375 C 5.59375 -1.953125 6.617188 -1.5625 7.921875 -1.5625 C 8.898438 -1.5625 9.6875 -1.734375 10.28125 -2.078125 C 10.882812 -2.429688 11.351562 -2.984375 11.6875 -3.734375 L 11.953125 -3.734375 L 13.28125 -2.9375 C 12.875 -1.945312 12.234375 -1.164062 11.359375 -0.59375 C 10.484375 -0.0195312 9.335938 0.265625 7.921875 0.265625 C 6.585938 0.265625 5.441406 0.00390625 4.484375 -0.515625 C 3.523438 -1.046875 2.789062 -1.84375 2.28125 -2.90625 C 1.769531 -3.96875 1.515625 -5.289062 1.515625 -6.875 C 1.515625 -8.4375 1.785156 -9.75 2.328125 -10.8125 C 2.867188 -11.882812 3.609375 -12.6875 4.546875 -13.21875 C 5.492188 -13.75 6.578125 -14.015625 7.796875 -14.015625 C 9.554688 -14.015625 10.929688 -13.515625 11.921875 -12.515625 C 12.910156 -11.523438 13.40625 -10.054688 13.40625 -8.109375 C 13.40625 -7.335938 13.390625 -6.820312 13.359375 -6.5625 Z M 11.40625 -8.109375 C 11.375 -9.566406 11.050781 -10.628906 10.4375 -11.296875 C 9.820312 -11.960938 8.941406 -12.296875 7.796875 -12.296875 C 6.585938 -12.296875 5.640625 -11.957031 4.953125 -11.28125 C 4.265625 -10.613281 3.847656 -9.554688 3.703125 -8.109375 Z M 11.40625 -8.109375 "/></g></g></g><g fill="#183d4c" fill-opacity="1"><g transform="translate(191.600819, 161.821171)"><g><path d="M 7.125 0.265625 C 6.019531 0.265625 5.046875 0 4.203125 -0.53125 C 3.359375 -1.0625 2.695312 -1.859375 2.21875 -2.921875 C 1.75 -3.984375 1.515625 -5.300781 1.515625 -6.875 C 1.515625 -8.4375 1.757812 -9.75 2.25 -10.8125 C 2.75 -11.882812 3.4375 -12.6875 4.3125 -13.21875 C 5.195312 -13.75 6.21875 -14.015625 7.375 -14.015625 C 8.28125 -14.015625 9.097656 -13.84375 9.828125 -13.5 C 10.566406 -13.15625 11.195312 -12.585938 11.71875 -11.796875 L 11.984375 -11.84375 L 11.984375 -19.265625 L 14.015625 -19.265625 L 14.015625 0 L 11.984375 0 L 11.984375 -2 L 11.71875 -2.0625 C 11.269531 -1.375 10.660156 -0.8125 9.890625 -0.375 C 9.117188 0.0507812 8.195312 0.265625 7.125 0.265625 Z M 7.765625 -1.5625 C 9.046875 -1.5625 10.066406 -2 10.828125 -2.875 C 11.597656 -3.75 11.984375 -5.082031 11.984375 -6.875 C 11.984375 -8.664062 11.597656 -10 10.828125 -10.875 C 10.066406 -11.75 9.046875 -12.1875 7.765625 -12.1875 C 6.441406 -12.1875 5.421875 -11.757812 4.703125 -10.90625 C 3.992188 -10.050781 3.640625 -8.707031 3.640625 -6.875 C 3.640625 -3.332031 5.015625 -1.5625 7.765625 -1.5625 Z M 7.765625 -1.5625 "/></g></g></g><g fill="#183d4c" fill-opacity="1"><g transform="translate(208.019251, 161.821171)"><g/></g></g><g fill="#183d4c" fill-opacity="1"><g transform="translate(214.277451, 161.821171)"><g><path d="M 9.921875 0 L 7.109375 0 L 0.78125 -18.21875 L 3.0625 -18.21875 L 8.421875 -2.6875 L 8.71875 -2.6875 L 14.015625 -18.21875 L 16.25 -18.21875 Z M 9.921875 0 "/></g></g></g><g fill="#183d4c" fill-opacity="1"><g transform="translate(231.306737, 161.821171)"><g><path d="M 3.421875 -16.40625 C 2.984375 -16.40625 2.628906 -16.539062 2.359375 -16.8125 C 2.085938 -17.082031 1.953125 -17.425781 1.953125 -17.84375 C 1.953125 -18.257812 2.085938 -18.597656 2.359375 -18.859375 C 2.628906 -19.128906 2.984375 -19.265625 3.421875 -19.265625 C 3.847656 -19.265625 4.195312 -19.128906 4.46875 -18.859375 C 4.738281 -18.597656 4.875 -18.257812 4.875 -17.84375 C 4.875 -17.425781 4.738281 -17.082031 4.46875 -16.8125 C 4.195312 -16.539062 3.847656 -16.40625 3.421875 -16.40625 Z M 2.390625 0 L 2.390625 -13.75 L 4.421875 -13.75 L 4.421875 0 Z M 2.390625 0 "/></g></g></g><g fill="#183d4c" fill-opacity="1"><g transform="translate(238.125937, 161.821171)"><g><path d="M 6.265625 0.265625 C 5.398438 0.265625 4.597656 0.148438 3.859375 -0.078125 C 3.128906 -0.304688 2.507812 -0.617188 2 -1.015625 C 1.5 -1.421875 1.144531 -1.875 0.9375 -2.375 L 2.125 -3.609375 L 2.390625 -3.609375 C 2.835938 -2.929688 3.378906 -2.421875 4.015625 -2.078125 C 4.648438 -1.734375 5.398438 -1.5625 6.265625 -1.5625 C 7.285156 -1.5625 8.054688 -1.757812 8.578125 -2.15625 C 9.109375 -2.550781 9.375 -3.097656 9.375 -3.796875 C 9.375 -4.335938 9.210938 -4.785156 8.890625 -5.140625 C 8.578125 -5.492188 8.0625 -5.757812 7.34375 -5.9375 L 5.03125 -6.5 C 3.789062 -6.800781 2.882812 -7.273438 2.3125 -7.921875 C 1.738281 -8.578125 1.453125 -9.378906 1.453125 -10.328125 C 1.453125 -11.078125 1.644531 -11.726562 2.03125 -12.28125 C 2.414062 -12.832031 2.96875 -13.257812 3.6875 -13.5625 C 4.40625 -13.863281 5.257812 -14.015625 6.25 -14.015625 C 7.507812 -14.015625 8.503906 -13.835938 9.234375 -13.484375 C 9.960938 -13.128906 10.53125 -12.632812 10.9375 -12 L 9.78125 -10.890625 L 9.53125 -10.890625 C 9.09375 -11.390625 8.613281 -11.75 8.09375 -11.96875 C 7.570312 -12.195312 6.957031 -12.3125 6.25 -12.3125 C 5.34375 -12.3125 4.644531 -12.148438 4.15625 -11.828125 C 3.675781 -11.503906 3.4375 -11.035156 3.4375 -10.421875 C 3.4375 -9.867188 3.609375 -9.421875 3.953125 -9.078125 C 4.296875 -8.734375 4.890625 -8.457031 5.734375 -8.25 L 8.015625 -7.703125 C 9.210938 -7.421875 10.078125 -6.953125 10.609375 -6.296875 C 11.140625 -5.640625 11.40625 -4.816406 11.40625 -3.828125 C 11.40625 -3.023438 11.210938 -2.3125 10.828125 -1.6875 C 10.453125 -1.070312 9.875 -0.59375 9.09375 -0.25 C 8.320312 0.09375 7.378906 0.265625 6.265625 0.265625 Z M 6.265625 0.265625 "/></g></g></g><g fill="#183d4c" fill-opacity="1"><g transform="translate(250.841814, 161.821171)"><g><path d="M 5.671875 0.265625 C 4.316406 0.265625 3.257812 -0.0859375 2.5 -0.796875 C 1.738281 -1.503906 1.359375 -2.515625 1.359375 -3.828125 C 1.359375 -4.640625 1.523438 -5.328125 1.859375 -5.890625 C 2.203125 -6.453125 2.722656 -6.910156 3.421875 -7.265625 C 4.128906 -7.617188 5.054688 -7.890625 6.203125 -8.078125 C 7.191406 -8.242188 7.945312 -8.429688 8.46875 -8.640625 C 8.988281 -8.847656 9.335938 -9.078125 9.515625 -9.328125 C 9.691406 -9.585938 9.78125 -9.914062 9.78125 -10.3125 C 9.78125 -10.9375 9.566406 -11.410156 9.140625 -11.734375 C 8.710938 -12.066406 8.023438 -12.234375 7.078125 -12.234375 C 6.191406 -12.234375 5.429688 -12.0625 4.796875 -11.71875 C 4.160156 -11.375 3.578125 -10.863281 3.046875 -10.1875 L 2.796875 -10.1875 L 1.796875 -11.59375 C 2.378906 -12.332031 3.117188 -12.921875 4.015625 -13.359375 C 4.910156 -13.796875 5.929688 -14.015625 7.078125 -14.015625 C 8.703125 -14.015625 9.894531 -13.65625 10.65625 -12.9375 C 11.425781 -12.226562 11.8125 -11.25 11.8125 -10 L 11.8125 -2.703125 C 11.8125 -1.941406 12.140625 -1.5625 12.796875 -1.5625 C 13.003906 -1.5625 13.207031 -1.597656 13.40625 -1.671875 L 13.59375 -1.625 L 13.828125 -0.21875 C 13.671875 -0.113281 13.46875 -0.0351562 13.21875 0.015625 C 12.976562 0.0664062 12.734375 0.09375 12.484375 0.09375 C 11.722656 0.09375 11.148438 -0.0664062 10.765625 -0.390625 C 10.378906 -0.722656 10.128906 -1.21875 10.015625 -1.875 L 9.765625 -1.890625 C 9.367188 -1.171875 8.835938 -0.628906 8.171875 -0.265625 C 7.515625 0.0859375 6.679688 0.265625 5.671875 0.265625 Z M 6.125 -1.359375 C 6.882812 -1.359375 7.546875 -1.535156 8.109375 -1.890625 C 8.671875 -2.242188 9.097656 -2.738281 9.390625 -3.375 C 9.691406 -4.019531 9.84375 -4.757812 9.84375 -5.59375 L 9.84375 -7.34375 L 9.609375 -7.390625 C 9.304688 -7.171875 8.929688 -6.988281 8.484375 -6.84375 C 8.046875 -6.695312 7.429688 -6.566406 6.640625 -6.453125 C 5.847656 -6.347656 5.21875 -6.179688 4.75 -5.953125 C 4.28125 -5.734375 3.941406 -5.453125 3.734375 -5.109375 C 3.535156 -4.765625 3.4375 -4.335938 3.4375 -3.828125 C 3.4375 -3.023438 3.671875 -2.410156 4.140625 -1.984375 C 4.617188 -1.566406 5.28125 -1.359375 6.125 -1.359375 Z M 6.125 -1.359375 "/></g></g></g><g fill="#183d4c" fill-opacity="1"><g transform="translate(265.066147, 161.821171)"><g/></g></g><g fill="#183d4c" fill-opacity="1"><g transform="translate(271.324359, 161.821171)"><g><path d="M 9.28125 -18.21875 C 10.53125 -18.21875 11.601562 -17.992188 12.5 -17.546875 C 13.394531 -17.097656 14.078125 -16.457031 14.546875 -15.625 C 15.023438 -14.789062 15.265625 -13.804688 15.265625 -12.671875 C 15.265625 -11.546875 15.023438 -10.566406 14.546875 -9.734375 C 14.078125 -8.898438 13.394531 -8.253906 12.5 -7.796875 C 11.601562 -7.347656 10.53125 -7.125 9.28125 -7.125 L 4.90625 -7.125 L 4.90625 0 L 2.75 0 L 2.75 -18.21875 Z M 9.21875 -8.96875 C 11.75 -8.96875 13.015625 -10.203125 13.015625 -12.671875 C 13.015625 -15.160156 11.75 -16.40625 9.21875 -16.40625 L 4.90625 -16.40625 L 4.90625 -8.96875 Z M 9.21875 -8.96875 "/></g></g></g><g fill="#183d4c" fill-opacity="1"><g transform="translate(287.942267, 161.821171)"><g><path d="M 5.671875 0.265625 C 4.316406 0.265625 3.257812 -0.0859375 2.5 -0.796875 C 1.738281 -1.503906 1.359375 -2.515625 1.359375 -3.828125 C 1.359375 -4.640625 1.523438 -5.328125 1.859375 -5.890625 C 2.203125 -6.453125 2.722656 -6.910156 3.421875 -7.265625 C 4.128906 -7.617188 5.054688 -7.890625 6.203125 -8.078125 C 7.191406 -8.242188 7.945312 -8.429688 8.46875 -8.640625 C 8.988281 -8.847656 9.335938 -9.078125 9.515625 -9.328125 C 9.691406 -9.585938 9.78125 -9.914062 9.78125 -10.3125 C 9.78125 -10.9375 9.566406 -11.410156 9.140625 -11.734375 C 8.710938 -12.066406 8.023438 -12.234375 7.078125 -12.234375 C 6.191406 -12.234375 5.429688 -12.0625 4.796875 -11.71875 C 4.160156 -11.375 3.578125 -10.863281 3.046875 -10.1875 L 2.796875 -10.1875 L 1.796875 -11.59375 C 2.378906 -12.332031 3.117188 -12.921875 4.015625 -13.359375 C 4.910156 -13.796875 5.929688 -14.015625 7.078125 -14.015625 C 8.703125 -14.015625 9.894531 -13.65625 10.65625 -12.9375 C 11.425781 -12.226562 11.8125 -11.25 11.8125 -10 L 11.8125 -2.703125 C 11.8125 -1.941406 12.140625 -1.5625 12.796875 -1.5625 C 13.003906 -1.5625 13.207031 -1.597656 13.40625 -1.671875 L 13.59375 -1.625 L 13.828125 -0.21875 C 13.671875 -0.113281 13.46875 -0.0351562 13.21875 0.015625 C 12.976562 0.0664062 12.734375 0.09375 12.484375 0.09375 C 11.722656 0.09375 11.148438 -0.0664062 10.765625 -0.390625 C 10.378906 -0.722656 10.128906 -1.21875 10.015625 -1.875 L 9.765625 -1.890625 C 9.367188 -1.171875 8.835938 -0.628906 8.171875 -0.265625 C 7.515625 0.0859375 6.679688 0.265625 5.671875 0.265625 Z M 6.125 -1.359375 C 6.882812 -1.359375 7.546875 -1.535156 8.109375 -1.890625 C 8.671875 -2.242188 9.097656 -2.738281 9.390625 -3.375 C 9.691406 -4.019531 9.84375 -4.757812 9.84375 -5.59375 L 9.84375 -7.34375 L 9.609375 -7.390625 C 9.304688 -7.171875 8.929688 -6.988281 8.484375 -6.84375 C 8.046875 -6.695312 7.429688 -6.566406 6.640625 -6.453125 C 5.847656 -6.347656 5.21875 -6.179688 4.75 -5.953125 C 4.28125 -5.734375 3.941406 -5.453125 3.734375 -5.109375 C 3.535156 -4.765625 3.4375 -4.335938 3.4375 -3.828125 C 3.4375 -3.023438 3.671875 -2.410156 4.140625 -1.984375 C 4.617188 -1.566406 5.28125 -1.359375 6.125 -1.359375 Z M 6.125 -1.359375 "/></g></g></g><g fill="#183d4c" fill-opacity="1"><g transform="translate(302.1666, 161.821171)"><g><path d="M 2.390625 0 L 2.390625 -13.75 L 4.328125 -13.75 L 4.328125 -11.59375 L 4.59375 -11.53125 C 5.226562 -13.09375 6.429688 -13.875 8.203125 -13.875 C 9.140625 -13.875 9.84375 -13.703125 10.3125 -13.359375 L 9.78125 -11.640625 L 9.53125 -11.59375 C 9.019531 -11.851562 8.457031 -11.984375 7.84375 -11.984375 C 6.75 -11.984375 5.90625 -11.570312 5.3125 -10.75 C 4.71875 -9.925781 4.421875 -8.59375 4.421875 -6.75 L 4.421875 0 Z M 2.390625 0 "/></g></g></g><g fill="#183d4c" fill-opacity="1"><g transform="translate(312.788087, 161.821171)"><g><path d="M 9.296875 -2.1875 L 9.953125 -0.71875 C 9.628906 -0.394531 9.203125 -0.148438 8.671875 0.015625 C 8.140625 0.179688 7.566406 0.265625 6.953125 0.265625 C 4.328125 0.265625 3.015625 -1.066406 3.015625 -3.734375 L 3.015625 -12.09375 L 0.625 -12.09375 L 0.625 -13.765625 L 3.015625 -13.765625 L 3.015625 -16.671875 L 5.046875 -17 L 5.046875 -13.765625 L 9.46875 -13.765625 L 9.46875 -12.09375 L 5.046875 -12.09375 L 5.046875 -3.921875 C 5.046875 -2.347656 5.734375 -1.5625 7.109375 -1.5625 C 7.859375 -1.5625 8.5 -1.769531 9.03125 -2.1875 Z M 9.296875 -2.1875 "/></g></g></g><g fill="#183d4c" fill-opacity="1"><g transform="translate(323.259976, 161.821171)"><g><path d="M 2.390625 0 L 2.390625 -13.75 L 4.328125 -13.75 L 4.328125 -11.59375 L 4.59375 -11.53125 C 5.039062 -12.332031 5.617188 -12.945312 6.328125 -13.375 C 7.046875 -13.800781 7.914062 -14.015625 8.9375 -14.015625 C 10.59375 -14.015625 11.789062 -13.59375 12.53125 -12.75 C 13.28125 -11.90625 13.65625 -10.601562 13.65625 -8.84375 L 13.65625 0 L 11.625 0 L 11.625 -8.796875 C 11.625 -9.628906 11.515625 -10.296875 11.296875 -10.796875 C 11.085938 -11.304688 10.757812 -11.671875 10.3125 -11.890625 C 9.875 -12.117188 9.289062 -12.234375 8.5625 -12.234375 C 7.320312 -12.234375 6.320312 -11.820312 5.5625 -11 C 4.800781 -10.1875 4.421875 -8.875 4.421875 -7.0625 L 4.421875 0 Z M 2.390625 0 "/></g></g></g><g fill="#183d4c" fill-opacity="1"><g transform="translate(339.092463, 161.821171)"><g><path d="M 13.109375 -6.40625 L 3.65625 -6.40625 C 3.707031 -4.738281 4.101562 -3.515625 4.84375 -2.734375 C 5.59375 -1.953125 6.617188 -1.5625 7.921875 -1.5625 C 8.898438 -1.5625 9.6875 -1.734375 10.28125 -2.078125 C 10.882812 -2.429688 11.351562 -2.984375 11.6875 -3.734375 L 11.953125 -3.734375 L 13.28125 -2.9375 C 12.875 -1.945312 12.234375 -1.164062 11.359375 -0.59375 C 10.484375 -0.0195312 9.335938 0.265625 7.921875 0.265625 C 6.585938 0.265625 5.441406 0.00390625 4.484375 -0.515625 C 3.523438 -1.046875 2.789062 -1.84375 2.28125 -2.90625 C 1.769531 -3.96875 1.515625 -5.289062 1.515625 -6.875 C 1.515625 -8.4375 1.785156 -9.75 2.328125 -10.8125 C 2.867188 -11.882812 3.609375 -12.6875 4.546875 -13.21875 C 5.492188 -13.75 6.578125 -14.015625 7.796875 -14.015625 C 9.554688 -14.015625 10.929688 -13.515625 11.921875 -12.515625 C 12.910156 -11.523438 13.40625 -10.054688 13.40625 -8.109375 C 13.40625 -7.335938 13.390625 -6.820312 13.359375 -6.5625 Z M 11.40625 -8.109375 C 11.375 -9.566406 11.050781 -10.628906 10.4375 -11.296875 C 9.820312 -11.960938 8.941406 -12.296875 7.796875 -12.296875 C 6.585938 -12.296875 5.640625 -11.957031 4.953125 -11.28125 C 4.265625 -10.613281 3.847656 -9.554688 3.703125 -8.109375 Z M 11.40625 -8.109375 "/></g></g></g><g fill="#183d4c" fill-opacity="1"><g transform="translate(353.753108, 161.821171)"><g><path d="M 2.390625 0 L 2.390625 -13.75 L 4.328125 -13.75 L 4.328125 -11.59375 L 4.59375 -11.53125 C 5.226562 -13.09375 6.429688 -13.875 8.203125 -13.875 C 9.140625 -13.875 9.84375 -13.703125 10.3125 -13.359375 L 9.78125 -11.640625 L 9.53125 -11.59375 C 9.019531 -11.851562 8.457031 -11.984375 7.84375 -11.984375 C 6.75 -11.984375 5.90625 -11.570312 5.3125 -10.75 C 4.71875 -9.925781 4.421875 -8.59375 4.421875 -6.75 L 4.421875 0 Z M 2.390625 0 "/></g></g></g><g clip-path="url(#c4992b9d3b)"><path fill="#000000" d="M 120.542969 28.707031 L 140.410156 30.722656 L 166.574219 16.757812 L 142.074219 33.304688 L 142.5 38.679688 L 143.417969 50.949219 L 152.257812 40.375 L 154.34375 37.832031 L 161.765625 40.550781 L 177.394531 8.980469 Z M 120.542969 28.707031 " fill-opacity="1" fill-rule="nonzero"/></g><path fill="#183d4c" d="M 112.199219 23.582031 L 85.894531 23.582031 L 66.835938 83.476562 C 77.476562 76.511719 88.015625 69.121094 98.375 61.695312 Z M 112.199219 23.582031 " fill-opacity="1" fill-rule="nonzero"/><path fill="#183d4c" d="M 38.941406 99.171875 C 44.277344 97.15625 49.511719 94.117188 53.71875 91.675781 C 54.710938 91.078125 55.734375 90.476562 56.757812 89.839844 L 35.40625 23.582031 L 8.957031 23.582031 L 36.890625 99.878906 C 37.597656 99.667969 38.269531 99.421875 38.941406 99.171875 Z M 38.941406 99.171875 " fill-opacity="1" fill-rule="nonzero"/><g clip-path="url(#3d38876034)"><path fill="#183d4c" d="M 65.066406 87.753906 C 61.78125 89.839844 58.421875 91.960938 55.0625 93.941406 C 50.183594 96.804688 45.199219 99.632812 39.894531 101.613281 C 29.535156 105.644531 15.109375 106.738281 9.347656 95.214844 C 5.5625 87.578125 7.15625 78.347656 10.691406 70.851562 C 11.007812 70.144531 11.363281 69.472656 11.679688 68.800781 C 11.46875 68.945312 11.292969 69.121094 11.078125 69.261719 C 4.679688 74.460938 0.613281 82.519531 0.613281 90.828125 C 0.578125 99.171875 4.855469 106.988281 12.175781 111.195312 C 15.710938 113.246094 19.742188 114.375 23.808594 114.695312 C 29.820312 115.152344 35.757812 114.023438 41.378906 112.113281 L 48.488281 131.523438 L 72.953125 131.523438 L 91.726562 79.867188 C 98.902344 74.035156 105.871094 67.988281 112.691406 61.730469 C 121.53125 53.5625 130.195312 45.183594 138.253906 36.238281 C 113.894531 53.386719 90.066406 71.59375 65.066406 87.753906 Z M 60.789062 102.320312 Z M 60.789062 102.320312 " fill-opacity="1" fill-rule="nonzero"/></g></svg>